<svg width="358" height="491" viewBox="0 0 358 491" fill="none" xmlns="http://www.w3.org/2000/svg">
<g clip-path="url(#clip0_1_673)" filter="url(#filter0_d_1_673)">
<rect x="4" width="350" height="483" rx="10" fill="#68D585"/>
<mask id="mask0_1_673" style="mask-type:luminance" maskUnits="userSpaceOnUse" x="4" y="0" width="350" height="483">
<rect x="4" width="350" height="483" rx="10" fill="white"/>
</mask>
<g mask="url(#mask0_1_673)">
</g>
<g clip-path="url(#clip1_1_673)">
<path d="M120.451 432.756H124.99V435H118.105V423.1H120.451V432.756ZM127.308 431.651C127.614 432.773 128.549 433.249 129.705 433.249C130.555 433.249 131.235 432.892 131.609 432.399L133.377 433.419C132.578 434.575 131.303 435.238 129.671 435.238C126.815 435.238 125.013 433.283 125.013 430.75C125.013 428.217 126.832 426.262 129.501 426.262C132.017 426.262 133.802 428.251 133.802 430.75C133.802 431.073 133.768 431.362 133.717 431.651H127.308ZM127.274 429.951H131.609C131.337 428.727 130.419 428.234 129.501 428.234C128.328 428.234 127.529 428.863 127.274 429.951ZM141.126 426.5H143.319V435H141.126V433.997C140.514 434.762 139.596 435.238 138.355 435.238C136.094 435.238 134.224 433.283 134.224 430.75C134.224 428.217 136.094 426.262 138.355 426.262C139.596 426.262 140.514 426.738 141.126 427.503V426.5ZM138.763 433.147C140.123 433.147 141.126 432.178 141.126 430.75C141.126 429.322 140.123 428.353 138.763 428.353C137.42 428.353 136.417 429.322 136.417 430.75C136.417 432.178 137.42 433.147 138.763 433.147ZM146.901 427.962C147.343 426.806 148.414 426.33 149.485 426.33V428.778C148.346 428.642 146.901 429.152 146.901 430.937V435H144.708V426.5H146.901V427.962ZM154.893 426.262C156.695 426.262 158.106 427.52 158.106 429.781V435H155.913V430.053C155.913 428.897 155.216 428.302 154.23 428.302C153.159 428.302 152.36 428.931 152.36 430.41V435H150.167V426.5H152.36V427.452C152.87 426.687 153.754 426.262 154.893 426.262ZM172.43 426.262C174.368 426.262 175.643 427.639 175.643 429.764V435H173.45V429.917C173.45 428.914 172.94 428.302 172.022 428.302C171.053 428.302 170.441 428.948 170.441 430.223V435H168.248V429.917C168.248 428.914 167.738 428.302 166.82 428.302C165.885 428.302 165.222 428.948 165.222 430.223V435H163.029V426.5H165.222V427.401C165.698 426.687 166.497 426.262 167.585 426.262C168.639 426.262 169.421 426.704 169.897 427.486C170.424 426.721 171.274 426.262 172.43 426.262ZM180.952 435.238C178.453 435.238 176.464 433.283 176.464 430.75C176.464 428.217 178.453 426.262 180.952 426.262C183.451 426.262 185.457 428.217 185.457 430.75C185.457 433.283 183.451 435.238 180.952 435.238ZM180.952 433.096C182.261 433.096 183.264 432.127 183.264 430.75C183.264 429.373 182.261 428.404 180.952 428.404C179.66 428.404 178.657 429.373 178.657 430.75C178.657 432.127 179.66 433.096 180.952 433.096ZM188.592 427.962C189.034 426.806 190.105 426.33 191.176 426.33V428.778C190.037 428.642 188.592 429.152 188.592 430.937V435H186.399V426.5H188.592V427.962ZM193.396 431.651C193.702 432.773 194.637 433.249 195.793 433.249C196.643 433.249 197.323 432.892 197.697 432.399L199.465 433.419C198.666 434.575 197.391 435.238 195.759 435.238C192.903 435.238 191.101 433.283 191.101 430.75C191.101 428.217 192.92 426.262 195.589 426.262C198.105 426.262 199.89 428.251 199.89 430.75C199.89 431.073 199.856 431.362 199.805 431.651H193.396ZM193.362 429.951H197.697C197.425 428.727 196.507 428.234 195.589 428.234C194.416 428.234 193.617 428.863 193.362 429.951Z" fill="white"/>
<path d="M234.4 424L240 429.2L234.4 434.4" stroke="white" stroke-width="2" stroke-linecap="square" stroke-linejoin="bevel"/>
<path d="M228 428.986H239.2" stroke="white" stroke-width="2" stroke-linecap="square" stroke-linejoin="bevel"/>
</g>
<path d="M114.259 249.976V251.272C114.259 256.12 110.827 259.336 106.003 259.336C100.747 259.336 97.0029 255.424 97.0029 250.624C97.0029 245.752 100.795 241.864 105.811 241.864C109.003 241.864 111.715 243.472 113.131 245.776L110.299 247.408C109.531 246.064 107.827 245.08 105.787 245.08C102.595 245.08 100.291 247.432 100.291 250.624C100.291 253.744 102.523 256.096 106.027 256.096C108.667 256.096 110.347 254.824 110.923 252.904H105.835V249.976H114.259ZM119.067 249.064C119.691 247.432 121.203 246.76 122.715 246.76V250.216C121.107 250.024 119.067 250.744 119.067 253.264V259H115.971V247H119.067V249.064ZM132.7 247H135.796V259H132.7V257.584C131.836 258.664 130.54 259.336 128.788 259.336C125.596 259.336 122.956 256.576 122.956 253C122.956 249.424 125.596 246.664 128.788 246.664C130.54 246.664 131.836 247.336 132.7 248.416V247ZM129.364 256.384C131.284 256.384 132.7 255.016 132.7 253C132.7 250.984 131.284 249.616 129.364 249.616C127.468 249.616 126.052 250.984 126.052 253C126.052 255.016 127.468 256.384 129.364 256.384ZM145.088 246.664C148.304 246.664 150.944 249.424 150.944 253C150.944 256.576 148.304 259.336 145.088 259.336C143.336 259.336 142.064 258.688 141.2 257.584V263.8H138.104V247H141.2V248.416C142.064 247.312 143.336 246.664 145.088 246.664ZM144.512 256.384C146.432 256.384 147.848 255.016 147.848 253C147.848 250.984 146.432 249.616 144.512 249.616C142.616 249.616 141.2 250.984 141.2 253C141.2 255.016 142.616 256.384 144.512 256.384ZM159.299 246.664C161.843 246.664 163.835 248.44 163.835 251.632V259H160.739V252.016C160.739 250.384 159.755 249.544 158.363 249.544C156.851 249.544 155.723 250.432 155.723 252.52V259H152.627V242.2H155.723V248.344C156.443 247.264 157.691 246.664 159.299 246.664ZM167.515 245.56C166.483 245.56 165.619 244.696 165.619 243.664C165.619 242.632 166.483 241.744 167.515 241.744C168.571 241.744 169.435 242.632 169.435 243.664C169.435 244.696 168.571 245.56 167.515 245.56ZM165.979 259V247H169.075V259H165.979ZM177.12 259.336C173.472 259.336 170.784 256.576 170.784 253C170.784 249.424 173.472 246.664 177.12 246.664C179.472 246.664 181.512 247.912 182.496 249.76L179.832 251.32C179.352 250.336 178.32 249.712 177.096 249.712C175.248 249.712 173.88 251.08 173.88 253C173.88 254.896 175.248 256.264 177.096 256.264C178.344 256.264 179.376 255.664 179.856 254.68L182.544 256.216C181.512 258.088 179.472 259.336 177.12 259.336ZM196.091 242.2C200.723 242.2 204.179 245.872 204.179 250.6C204.179 255.328 200.723 259 196.091 259H189.419V242.2H196.091ZM196.091 255.832C198.995 255.832 201.011 253.696 201.011 250.6C201.011 247.504 198.995 245.368 196.091 245.368H192.731V255.832H196.091ZM208.501 254.272C208.933 255.856 210.253 256.528 211.885 256.528C213.085 256.528 214.045 256.024 214.573 255.328L217.069 256.768C215.941 258.4 214.141 259.336 211.837 259.336C207.805 259.336 205.261 256.576 205.261 253C205.261 249.424 207.829 246.664 211.597 246.664C215.149 246.664 217.669 249.472 217.669 253C217.669 253.456 217.621 253.864 217.549 254.272H208.501ZM208.453 251.872H214.573C214.189 250.144 212.893 249.448 211.597 249.448C209.941 249.448 208.813 250.336 208.453 251.872ZM221.717 250.408C221.717 252.184 227.909 251.08 227.909 255.496C227.909 258.088 225.653 259.336 223.085 259.336C220.685 259.336 218.909 258.328 218.045 256.48L220.733 254.968C221.069 255.952 221.885 256.528 223.085 256.528C224.069 256.528 224.741 256.192 224.741 255.496C224.741 253.744 218.549 254.704 218.549 250.48C218.549 248.032 220.637 246.664 223.109 246.664C225.053 246.664 226.733 247.552 227.669 249.208L225.029 250.648C224.669 249.88 223.997 249.424 223.109 249.424C222.341 249.424 221.717 249.76 221.717 250.408ZM230.936 245.56C229.904 245.56 229.04 244.696 229.04 243.664C229.04 242.632 229.904 241.744 230.936 241.744C231.992 241.744 232.856 242.632 232.856 243.664C232.856 244.696 231.992 245.56 230.936 245.56ZM229.4 259V247H232.496V259H229.4ZM244.022 247H247.046V258.424C247.046 262.36 243.95 264.136 240.782 264.136C238.214 264.136 236.15 263.152 235.094 261.208L237.734 259.696C238.238 260.632 239.03 261.376 240.878 261.376C242.822 261.376 244.022 260.32 244.022 258.424V257.128C243.182 258.256 241.886 258.952 240.182 258.952C236.774 258.952 234.206 256.192 234.206 252.808C234.206 249.448 236.774 246.664 240.182 246.664C241.886 246.664 243.182 247.36 244.022 248.488V247ZM240.662 256.096C242.606 256.096 244.022 254.728 244.022 252.808C244.022 250.912 242.606 249.544 240.662 249.544C238.718 249.544 237.302 250.912 237.302 252.808C237.302 254.728 238.718 256.096 240.662 256.096ZM256.026 246.664C258.57 246.664 260.562 248.44 260.562 251.632V259H257.466V252.016C257.466 250.384 256.482 249.544 255.09 249.544C253.578 249.544 252.45 250.432 252.45 252.52V259H249.354V247H252.45V248.344C253.17 247.264 254.418 246.664 256.026 246.664Z" fill="white"/>
<path opacity="0.65" d="M51.503 303L48.052 291.1H49.31L52.251 301.385L55.345 291.1H56.739L59.833 301.385L62.774 291.1H64.032L60.581 303H59.153L56.042 292.664L52.931 303H51.503ZM65.761 292.698C65.302 292.698 64.945 292.324 64.945 291.882C64.945 291.44 65.302 291.066 65.761 291.066C66.22 291.066 66.577 291.44 66.577 291.882C66.577 292.324 66.22 292.698 65.761 292.698ZM65.2 303V294.5H66.322V303H65.2ZM73.0079 295.588H70.5599V300.739C70.5599 302.201 71.3589 302.082 73.0079 302.014V303C70.7129 303.34 69.4379 302.779 69.4379 300.739V295.588H67.6529V294.5H69.4379V292.46L70.5599 292.12V294.5H73.0079V295.588ZM78.6559 294.296C80.7299 294.296 81.9879 295.656 81.9879 297.781V303H80.8659V297.781C80.8659 296.268 80.0329 295.384 78.5539 295.384C77.0579 295.384 75.7999 296.268 75.7999 298.546V303H74.6779V291.1H75.7999V295.826C76.4629 294.755 77.4489 294.296 78.6559 294.296ZM88.0074 303V290.59H89.1294V303H88.0074ZM95.2713 303.204C92.7893 303.204 90.8003 301.266 90.8003 298.75C90.8003 296.234 92.7893 294.296 95.2713 294.296C97.7533 294.296 99.7423 296.234 99.7423 298.75C99.7423 301.266 97.7533 303.204 95.2713 303.204ZM95.2713 302.116C97.1583 302.116 98.6203 300.637 98.6203 298.75C98.6203 296.863 97.1583 295.384 95.2713 295.384C93.3843 295.384 91.9223 296.863 91.9223 298.75C91.9223 300.637 93.3843 302.116 95.2713 302.116ZM105.759 295.588H103.311V300.739C103.311 302.201 104.11 302.082 105.759 302.014V303C103.464 303.34 102.189 302.779 102.189 300.739V295.588H100.404V294.5H102.189V292.46L103.311 292.12V294.5H105.759V295.588ZM107.798 296.727C107.798 298.835 112.762 297.628 112.762 300.756C112.762 302.201 111.504 303.204 109.685 303.204C107.985 303.204 106.829 302.337 106.404 301.249L107.356 300.688C107.662 301.555 108.546 302.116 109.685 302.116C110.688 302.116 111.64 301.759 111.64 300.756C111.64 298.648 106.676 299.855 106.676 296.727C106.676 295.367 107.883 294.296 109.583 294.296C110.977 294.296 112.065 294.976 112.558 296.03L111.623 296.574C111.266 295.707 110.399 295.384 109.583 295.384C108.699 295.384 107.798 295.809 107.798 296.727ZM122.445 303.204C119.963 303.204 117.974 301.266 117.974 298.75C117.974 296.234 119.963 294.296 122.445 294.296C124.927 294.296 126.916 296.234 126.916 298.75C126.916 301.266 124.927 303.204 122.445 303.204ZM122.445 302.116C124.332 302.116 125.794 300.637 125.794 298.75C125.794 296.863 124.332 295.384 122.445 295.384C120.558 295.384 119.096 296.863 119.096 298.75C119.096 300.637 120.558 302.116 122.445 302.116ZM132.511 291.984C130.862 291.848 130.063 292.528 130.063 294.16V294.5H132.511V295.588H130.063V303H128.941V295.588H127.496V294.5H128.941V294.16C128.941 291.95 130.216 290.726 132.511 290.896V291.984ZM143.541 294.5H144.663V303H143.541V301.674C142.878 302.745 141.892 303.204 140.685 303.204C138.611 303.204 137.353 301.844 137.353 299.719V294.5H138.475V299.719C138.475 301.232 139.308 302.116 140.787 302.116C142.283 302.116 143.541 301.232 143.541 298.954V294.5ZM150.814 294.296C152.888 294.296 154.146 295.656 154.146 297.781V303H153.024V297.781C153.024 296.268 152.191 295.384 150.712 295.384C149.216 295.384 147.958 296.268 147.958 298.546V303H146.836V294.5H147.958V295.826C148.621 294.755 149.607 294.296 150.814 294.296ZM156.677 292.698C156.218 292.698 155.861 292.324 155.861 291.882C155.861 291.44 156.218 291.066 156.677 291.066C157.136 291.066 157.493 291.44 157.493 291.882C157.493 292.324 157.136 292.698 156.677 292.698ZM156.116 303V294.5H157.238V303H156.116ZM166.729 294.5H167.851V306.4H166.729V301.334C166.015 302.473 164.808 303.204 163.295 303.204C160.898 303.204 158.909 301.266 158.909 298.75C158.909 296.234 160.898 294.296 163.295 294.296C164.808 294.296 166.015 295.027 166.729 296.166V294.5ZM163.38 302.116C165.267 302.116 166.729 300.637 166.729 298.75C166.729 296.863 165.267 295.384 163.38 295.384C161.493 295.384 160.031 296.863 160.031 298.75C160.031 300.637 161.493 302.116 163.38 302.116ZM176.01 294.5H177.132V303H176.01V301.674C175.347 302.745 174.361 303.204 173.154 303.204C171.08 303.204 169.822 301.844 169.822 299.719V294.5H170.944V299.719C170.944 301.232 171.777 302.116 173.256 302.116C174.752 302.116 176.01 301.232 176.01 298.954V294.5ZM183.233 294.296C185.834 294.296 187.449 296.455 187.449 298.784C187.449 298.954 187.432 299.141 187.415 299.311H179.952C180.19 301.045 181.533 302.116 183.335 302.116C184.678 302.116 185.613 301.487 186.072 300.671L187.058 301.249C186.344 302.405 185.035 303.204 183.318 303.204C180.632 303.204 178.796 301.317 178.796 298.75C178.796 296.251 180.598 294.296 183.233 294.296ZM183.233 295.384C181.448 295.384 180.173 296.557 179.952 298.223H186.293C186.055 296.353 184.695 295.384 183.233 295.384ZM197.64 294.296C200.037 294.296 202.026 296.234 202.026 298.75C202.026 301.266 200.037 303.204 197.64 303.204C196.127 303.204 194.92 302.473 194.206 301.334V303H193.084V291.1H194.206V296.166C194.92 295.027 196.127 294.296 197.64 294.296ZM197.555 302.116C199.442 302.116 200.904 300.637 200.904 298.75C200.904 296.863 199.442 295.384 197.555 295.384C195.668 295.384 194.206 296.863 194.206 298.75C194.206 300.637 195.668 302.116 197.555 302.116ZM203.691 303V290.59H204.813V303H203.691ZM210.955 303.204C208.473 303.204 206.484 301.266 206.484 298.75C206.484 296.234 208.473 294.296 210.955 294.296C213.437 294.296 215.426 296.234 215.426 298.75C215.426 301.266 213.437 303.204 210.955 303.204ZM210.955 302.116C212.842 302.116 214.304 300.637 214.304 298.75C214.304 296.863 212.842 295.384 210.955 295.384C209.068 295.384 207.606 296.863 207.606 298.75C207.606 300.637 209.068 302.116 210.955 302.116ZM221.065 303.204C218.498 303.204 216.594 301.266 216.594 298.75C216.594 296.234 218.498 294.296 221.065 294.296C222.748 294.296 224.176 295.18 224.788 296.523L223.87 297.05C223.411 296.047 222.34 295.384 221.065 295.384C219.178 295.384 217.716 296.863 217.716 298.75C217.716 300.637 219.178 302.116 221.065 302.116C222.357 302.116 223.394 301.436 223.938 300.45L224.873 300.994C224.176 302.337 222.731 303.204 221.065 303.204ZM233.152 303H231.656L227.406 298.903V303H226.284V291.1H227.406V298.257L231.452 294.5H232.982L228.596 298.58L233.152 303ZM234.687 296.727C234.687 298.835 239.651 297.628 239.651 300.756C239.651 302.201 238.393 303.204 236.574 303.204C234.874 303.204 233.718 302.337 233.293 301.249L234.245 300.688C234.551 301.555 235.435 302.116 236.574 302.116C237.577 302.116 238.529 301.759 238.529 300.756C238.529 298.648 233.565 299.855 233.565 296.727C233.565 295.367 234.772 294.296 236.472 294.296C237.866 294.296 238.954 294.976 239.447 296.03L238.512 296.574C238.155 295.707 237.288 295.384 236.472 295.384C235.588 295.384 234.687 295.809 234.687 296.727ZM243.027 301.555L242.007 305.38H240.987L241.667 301.555H243.027ZM255.211 294.5H256.401L252.763 303.782C252.117 305.414 250.859 306.519 249.329 306.4V305.346C250.434 305.465 251.199 304.683 251.658 303.578L251.879 303.051L248.071 294.5H249.261L252.457 301.623L255.211 294.5ZM261.186 303.204C258.704 303.204 256.715 301.266 256.715 298.75C256.715 296.234 258.704 294.296 261.186 294.296C263.668 294.296 265.657 296.234 265.657 298.75C265.657 301.266 263.668 303.204 261.186 303.204ZM261.186 302.116C263.073 302.116 264.535 300.637 264.535 298.75C264.535 296.863 263.073 295.384 261.186 295.384C259.299 295.384 257.837 296.863 257.837 298.75C257.837 300.637 259.299 302.116 261.186 302.116ZM273.319 294.5H274.441V303H273.319V301.674C272.656 302.745 271.67 303.204 270.463 303.204C268.389 303.204 267.131 301.844 267.131 299.719V294.5H268.253V299.719C268.253 301.232 269.086 302.116 270.565 302.116C272.061 302.116 273.319 301.232 273.319 298.954V294.5ZM284.625 303.204C282.058 303.204 280.154 301.266 280.154 298.75C280.154 296.234 282.058 294.296 284.625 294.296C286.308 294.296 287.736 295.18 288.348 296.523L287.43 297.05C286.971 296.047 285.9 295.384 284.625 295.384C282.738 295.384 281.276 296.863 281.276 298.75C281.276 300.637 282.738 302.116 284.625 302.116C285.917 302.116 286.954 301.436 287.498 300.45L288.433 300.994C287.736 302.337 286.291 303.204 284.625 303.204ZM297.071 294.5H298.193V303H297.071V301.334C296.357 302.473 295.15 303.204 293.637 303.204C291.24 303.204 289.251 301.266 289.251 298.75C289.251 296.234 291.24 294.296 293.637 294.296C295.15 294.296 296.357 295.027 297.071 296.166V294.5ZM293.722 302.116C295.609 302.116 297.071 300.637 297.071 298.75C297.071 296.863 295.609 295.384 293.722 295.384C291.835 295.384 290.373 296.863 290.373 298.75C290.373 300.637 291.835 302.116 293.722 302.116ZM304.347 294.296C306.421 294.296 307.679 295.656 307.679 297.781V303H306.557V297.781C306.557 296.268 305.724 295.384 304.245 295.384C302.749 295.384 301.491 296.268 301.491 298.546V303H300.369V294.5H301.491V295.826C302.154 294.755 303.14 294.296 304.347 294.296ZM49.9778 323.296C52.5788 323.296 54.1938 325.455 54.1938 327.784C54.1938 327.954 54.1768 328.141 54.1598 328.311H46.6968C46.9348 330.045 48.2778 331.116 50.0798 331.116C51.4228 331.116 52.3578 330.487 52.8168 329.671L53.8028 330.249C53.0888 331.405 51.7798 332.204 50.0628 332.204C47.3768 332.204 45.5408 330.317 45.5408 327.75C45.5408 325.251 47.3428 323.296 49.9778 323.296ZM49.9778 324.384C48.1928 324.384 46.9178 325.557 46.6968 327.223H53.0378C52.7998 325.353 51.4398 324.384 49.9778 324.384ZM63.0886 323.5H64.2106V332H63.0886V330.334C62.3746 331.473 61.1676 332.204 59.6546 332.204C57.2576 332.204 55.2686 330.266 55.2686 327.75C55.2686 325.234 57.2576 323.296 59.6546 323.296C61.1676 323.296 62.3746 324.027 63.0886 325.166V323.5ZM59.7396 331.116C61.6266 331.116 63.0886 329.637 63.0886 327.75C63.0886 325.863 61.6266 324.384 59.7396 324.384C57.8526 324.384 56.3906 325.863 56.3906 327.75C56.3906 329.637 57.8526 331.116 59.7396 331.116ZM67.2702 325.727C67.2702 327.835 72.2342 326.628 72.2342 329.756C72.2342 331.201 70.9762 332.204 69.1572 332.204C67.4572 332.204 66.3012 331.337 65.8762 330.249L66.8282 329.688C67.1342 330.555 68.0182 331.116 69.1572 331.116C70.1602 331.116 71.1122 330.759 71.1122 329.756C71.1122 327.648 66.1482 328.855 66.1482 325.727C66.1482 324.367 67.3552 323.296 69.0552 323.296C70.4492 323.296 71.5372 323.976 72.0302 325.03L71.0952 325.574C70.7382 324.707 69.8712 324.384 69.0552 324.384C68.1712 324.384 67.2702 324.809 67.2702 325.727ZM74.3839 321.698C73.9249 321.698 73.5679 321.324 73.5679 320.882C73.5679 320.44 73.9249 320.066 74.3839 320.066C74.8429 320.066 75.1999 320.44 75.1999 320.882C75.1999 321.324 74.8429 321.698 74.3839 321.698ZM73.8229 332V323.5H74.9449V332H73.8229ZM77.1258 332V319.59H78.2478V332H77.1258ZM86.5488 323.5H87.7388L84.1008 332.782C83.4548 334.414 82.1968 335.519 80.6668 335.4V334.346C81.7718 334.465 82.5368 333.683 82.9958 332.578L83.2168 332.051L79.4088 323.5H80.5988L83.7948 330.623L86.5488 323.5ZM97.5008 323.296C99.8978 323.296 101.887 325.234 101.887 327.75C101.887 330.266 99.8978 332.204 97.5008 332.204C95.9878 332.204 94.7808 331.473 94.0668 330.334V332H92.9448V320.1H94.0668V325.166C94.7808 324.027 95.9878 323.296 97.5008 323.296ZM97.4158 331.116C99.3028 331.116 100.765 329.637 100.765 327.75C100.765 325.863 99.3028 324.384 97.4158 324.384C95.5288 324.384 94.0668 325.863 94.0668 327.75C94.0668 329.637 95.5288 331.116 97.4158 331.116ZM109.536 323.5H110.658V332H109.536V330.674C108.873 331.745 107.887 332.204 106.68 332.204C104.606 332.204 103.348 330.844 103.348 328.719V323.5H104.47V328.719C104.47 330.232 105.303 331.116 106.782 331.116C108.278 331.116 109.536 330.232 109.536 327.954V323.5ZM113.393 321.698C112.934 321.698 112.577 321.324 112.577 320.882C112.577 320.44 112.934 320.066 113.393 320.066C113.852 320.066 114.209 320.44 114.209 320.882C114.209 321.324 113.852 321.698 113.393 321.698ZM112.832 332V323.5H113.954V332H112.832ZM116.135 332V319.59H117.257V332H116.135ZM126.748 320.1H127.87V332H126.748V330.334C126.034 331.473 124.827 332.204 123.314 332.204C120.917 332.204 118.928 330.266 118.928 327.75C118.928 325.234 120.917 323.296 123.314 323.296C124.827 323.296 126.034 324.027 126.748 325.166V320.1ZM123.399 331.116C125.286 331.116 126.748 329.637 126.748 327.75C126.748 325.863 125.286 324.384 123.399 324.384C121.512 324.384 120.05 325.863 120.05 327.75C120.05 329.637 121.512 331.116 123.399 331.116ZM141.405 323.5H142.527V332H141.405V330.334C140.691 331.473 139.484 332.204 137.971 332.204C135.574 332.204 133.585 330.266 133.585 327.75C133.585 325.234 135.574 323.296 137.971 323.296C139.484 323.296 140.691 324.027 141.405 325.166V323.5ZM138.056 331.116C139.943 331.116 141.405 329.637 141.405 327.75C141.405 325.863 139.943 324.384 138.056 324.384C136.169 324.384 134.707 325.863 134.707 327.75C134.707 329.637 136.169 331.116 138.056 331.116ZM153.309 323.296C155.706 323.296 157.695 325.234 157.695 327.75C157.695 330.266 155.706 332.204 153.309 332.204C151.796 332.204 150.589 331.473 149.875 330.334V335.4H148.753V323.5H149.875V325.166C150.589 324.027 151.796 323.296 153.309 323.296ZM153.224 331.116C155.111 331.116 156.573 329.637 156.573 327.75C156.573 325.863 155.111 324.384 153.224 324.384C151.337 324.384 149.875 325.863 149.875 327.75C149.875 329.637 151.337 331.116 153.224 331.116ZM166.671 323.5H167.793V332H166.671V330.334C165.957 331.473 164.75 332.204 163.237 332.204C160.84 332.204 158.851 330.266 158.851 327.75C158.851 325.234 160.84 323.296 163.237 323.296C164.75 323.296 165.957 324.027 166.671 325.166V323.5ZM163.322 331.116C165.209 331.116 166.671 329.637 166.671 327.75C166.671 325.863 165.209 324.384 163.322 324.384C161.435 324.384 159.973 325.863 159.973 327.75C159.973 329.637 161.435 331.116 163.322 331.116ZM177.278 323.5H178.4V331.66C178.4 334.244 176.326 335.604 174.133 335.604C172.178 335.604 170.767 334.856 170.104 333.53L171.09 332.969C171.515 333.836 172.297 334.516 174.133 334.516C176.105 334.516 177.278 333.394 177.278 331.66V330.334C176.564 331.473 175.357 332.204 173.844 332.204C171.447 332.204 169.458 330.266 169.458 327.75C169.458 325.234 171.447 323.296 173.844 323.296C175.357 323.296 176.564 324.027 177.278 325.166V323.5ZM173.929 331.116C175.816 331.116 177.278 329.637 177.278 327.75C177.278 325.863 175.816 324.384 173.929 324.384C172.042 324.384 170.58 325.863 170.58 327.75C170.58 329.637 172.042 331.116 173.929 331.116ZM184.503 323.296C187.104 323.296 188.719 325.455 188.719 327.784C188.719 327.954 188.702 328.141 188.685 328.311H181.222C181.46 330.045 182.803 331.116 184.605 331.116C185.948 331.116 186.883 330.487 187.342 329.671L188.328 330.249C187.614 331.405 186.305 332.204 184.588 332.204C181.902 332.204 180.066 330.317 180.066 327.75C180.066 325.251 181.868 323.296 184.503 323.296ZM184.503 324.384C182.718 324.384 181.443 325.557 181.222 327.223H187.563C187.325 325.353 185.965 324.384 184.503 324.384ZM204.588 323.5H205.744L203.126 332H201.902L199.709 325.149L197.516 332H196.292L193.674 323.5H194.83L196.921 330.555L199.148 323.5H200.27L202.497 330.555L204.588 323.5ZM207.797 321.698C207.338 321.698 206.981 321.324 206.981 320.882C206.981 320.44 207.338 320.066 207.797 320.066C208.256 320.066 208.613 320.44 208.613 320.882C208.613 321.324 208.256 321.698 207.797 321.698ZM207.236 332V323.5H208.358V332H207.236ZM215.044 324.588H212.596V329.739C212.596 331.201 213.395 331.082 215.044 331.014V332C212.749 332.34 211.474 331.779 211.474 329.739V324.588H209.689V323.5H211.474V321.46L212.596 321.12V323.5H215.044V324.588ZM220.692 323.296C222.766 323.296 224.024 324.656 224.024 326.781V332H222.902V326.781C222.902 325.268 222.069 324.384 220.59 324.384C219.094 324.384 217.836 325.268 217.836 327.546V332H216.714V320.1H217.836V324.826C218.499 323.755 219.485 323.296 220.692 323.296ZM229.954 332.204C227.472 332.204 225.483 330.266 225.483 327.75C225.483 325.234 227.472 323.296 229.954 323.296C232.436 323.296 234.425 325.234 234.425 327.75C234.425 330.266 232.436 332.204 229.954 332.204ZM229.954 331.116C231.841 331.116 233.303 329.637 233.303 327.75C233.303 325.863 231.841 324.384 229.954 324.384C228.067 324.384 226.605 325.863 226.605 327.75C226.605 329.637 228.067 331.116 229.954 331.116ZM242.087 323.5H243.209V332H242.087V330.674C241.424 331.745 240.438 332.204 239.231 332.204C237.157 332.204 235.899 330.844 235.899 328.719V323.5H237.021V328.719C237.021 330.232 237.854 331.116 239.333 331.116C240.829 331.116 242.087 330.232 242.087 327.954V323.5ZM249.887 324.588H247.439V329.739C247.439 331.201 248.238 331.082 249.887 331.014V332C247.592 332.34 246.317 331.779 246.317 329.739V324.588H244.532V323.5H246.317V321.46L247.439 321.12V323.5H249.887V324.588ZM259.568 332.204C257.001 332.204 255.097 330.266 255.097 327.75C255.097 325.234 257.001 323.296 259.568 323.296C261.251 323.296 262.679 324.18 263.291 325.523L262.373 326.05C261.914 325.047 260.843 324.384 259.568 324.384C257.681 324.384 256.219 325.863 256.219 327.75C256.219 329.637 257.681 331.116 259.568 331.116C260.86 331.116 261.897 330.436 262.441 329.45L263.376 329.994C262.679 331.337 261.234 332.204 259.568 332.204ZM268.665 332.204C266.183 332.204 264.194 330.266 264.194 327.75C264.194 325.234 266.183 323.296 268.665 323.296C271.147 323.296 273.136 325.234 273.136 327.75C273.136 330.266 271.147 332.204 268.665 332.204ZM268.665 331.116C270.552 331.116 272.014 329.637 272.014 327.75C272.014 325.863 270.552 324.384 268.665 324.384C266.778 324.384 265.316 325.863 265.316 327.75C265.316 329.637 266.778 331.116 268.665 331.116ZM282.124 320.1H283.246V332H282.124V330.334C281.41 331.473 280.203 332.204 278.69 332.204C276.293 332.204 274.304 330.266 274.304 327.75C274.304 325.234 276.293 323.296 278.69 323.296C280.203 323.296 281.41 324.027 282.124 325.166V320.1ZM278.775 331.116C280.662 331.116 282.124 329.637 282.124 327.75C282.124 325.863 280.662 324.384 278.775 324.384C276.888 324.384 275.426 325.863 275.426 327.75C275.426 329.637 276.888 331.116 278.775 331.116ZM285.982 321.698C285.523 321.698 285.166 321.324 285.166 320.882C285.166 320.44 285.523 320.066 285.982 320.066C286.441 320.066 286.798 320.44 286.798 320.882C286.798 321.324 286.441 321.698 285.982 321.698ZM285.421 332V323.5H286.543V332H285.421ZM292.702 323.296C294.776 323.296 296.034 324.656 296.034 326.781V332H294.912V326.781C294.912 325.268 294.079 324.384 292.6 324.384C291.104 324.384 289.846 325.268 289.846 327.546V332H288.724V323.5H289.846V324.826C290.509 323.755 291.495 323.296 292.702 323.296ZM305.314 323.5H306.436V331.66C306.436 334.244 304.362 335.604 302.169 335.604C300.214 335.604 298.803 334.856 298.14 333.53L299.126 332.969C299.551 333.836 300.333 334.516 302.169 334.516C304.141 334.516 305.314 333.394 305.314 331.66V330.334C304.6 331.473 303.393 332.204 301.88 332.204C299.483 332.204 297.494 330.266 297.494 327.75C297.494 325.234 299.483 323.296 301.88 323.296C303.393 323.296 304.6 324.027 305.314 325.166V323.5ZM301.965 331.116C303.852 331.116 305.314 329.637 305.314 327.75C305.314 325.863 303.852 324.384 301.965 324.384C300.078 324.384 298.616 325.863 298.616 327.75C298.616 329.637 300.078 331.116 301.965 331.116ZM309.376 332.17C308.849 332.17 308.441 331.762 308.441 331.235C308.441 330.708 308.849 330.3 309.376 330.3C309.903 330.3 310.311 330.708 310.311 331.235C310.311 331.762 309.903 332.17 309.376 332.17ZM75.4752 354.829C76.5972 355.305 77.3792 356.359 77.3792 357.685C77.3792 359.521 75.9002 361 74.0642 361H68.8792V349.1H73.6732C75.4412 349.1 76.8692 350.545 76.8692 352.296C76.8692 353.401 76.3252 354.302 75.4752 354.829ZM73.6732 350.222H70.0692V354.37H73.6732C74.7782 354.37 75.6792 353.452 75.6792 352.296C75.6792 351.157 74.7782 350.222 73.6732 350.222ZM74.0642 359.878C75.2372 359.878 76.1892 358.909 76.1892 357.685C76.1892 356.478 75.2372 355.492 74.0642 355.492H70.0692V359.878H74.0642ZM85.2012 352.5H86.3232V361H85.2012V359.674C84.5382 360.745 83.5522 361.204 82.3452 361.204C80.2712 361.204 79.0132 359.844 79.0132 357.719V352.5H80.1352V357.719C80.1352 359.232 80.9682 360.116 82.4472 360.116C83.9432 360.116 85.2012 359.232 85.2012 356.954V352.5ZM89.0577 350.698C88.5987 350.698 88.2417 350.324 88.2417 349.882C88.2417 349.44 88.5987 349.066 89.0577 349.066C89.5167 349.066 89.8737 349.44 89.8737 349.882C89.8737 350.324 89.5167 350.698 89.0577 350.698ZM88.4967 361V352.5H89.6187V361H88.4967ZM91.7997 361V348.59H92.9217V361H91.7997ZM102.413 349.1H103.535V361H102.413V359.334C101.699 360.473 100.492 361.204 98.9786 361.204C96.5816 361.204 94.5926 359.266 94.5926 356.75C94.5926 354.234 96.5816 352.296 98.9786 352.296C100.492 352.296 101.699 353.027 102.413 354.166V349.1ZM99.0636 360.116C100.951 360.116 102.413 358.637 102.413 356.75C102.413 354.863 100.951 353.384 99.0636 353.384C97.1766 353.384 95.7146 354.863 95.7146 356.75C95.7146 358.637 97.1766 360.116 99.0636 360.116ZM115.88 352.5H117.07L113.432 361.782C112.786 363.414 111.528 364.519 109.998 364.4V363.346C111.103 363.465 111.868 362.683 112.327 361.578L112.548 361.051L108.74 352.5H109.93L113.126 359.623L115.88 352.5ZM121.855 361.204C119.373 361.204 117.384 359.266 117.384 356.75C117.384 354.234 119.373 352.296 121.855 352.296C124.337 352.296 126.326 354.234 126.326 356.75C126.326 359.266 124.337 361.204 121.855 361.204ZM121.855 360.116C123.742 360.116 125.204 358.637 125.204 356.75C125.204 354.863 123.742 353.384 121.855 353.384C119.968 353.384 118.506 354.863 118.506 356.75C118.506 358.637 119.968 360.116 121.855 360.116ZM133.988 352.5H135.11V361H133.988V359.674C133.325 360.745 132.339 361.204 131.132 361.204C129.058 361.204 127.8 359.844 127.8 357.719V352.5H128.922V357.719C128.922 359.232 129.755 360.116 131.234 360.116C132.73 360.116 133.988 359.232 133.988 356.954V352.5ZM138.405 353.911C139 352.721 140.003 352.364 141.091 352.364V353.452C139.731 353.452 138.405 354.166 138.405 356.274V361H137.283V352.5H138.405V353.911ZM150.457 352.296C152.531 352.296 153.789 353.656 153.789 355.781V361H152.667V355.781C152.667 354.268 151.834 353.384 150.355 353.384C148.859 353.384 147.601 354.268 147.601 356.546V361H146.479V352.5H147.601V353.826C148.264 352.755 149.25 352.296 150.457 352.296ZM159.685 352.296C162.286 352.296 163.901 354.455 163.901 356.784C163.901 356.954 163.884 357.141 163.867 357.311H156.404C156.642 359.045 157.985 360.116 159.787 360.116C161.13 360.116 162.065 359.487 162.524 358.671L163.51 359.249C162.796 360.405 161.487 361.204 159.77 361.204C157.084 361.204 155.248 359.317 155.248 356.75C155.248 354.251 157.05 352.296 159.685 352.296ZM159.685 353.384C157.9 353.384 156.625 354.557 156.404 356.223H162.745C162.507 354.353 161.147 353.384 159.685 353.384ZM172.294 361H170.951L168.299 357.498L165.647 361H164.304L167.636 356.597L164.525 352.5H165.868L168.299 355.713L170.73 352.5H172.073L168.979 356.597L172.294 361ZM178.125 353.588H175.677V358.739C175.677 360.201 176.476 360.082 178.125 360.014V361C175.83 361.34 174.555 360.779 174.555 358.739V353.588H172.77V352.5H174.555V350.46L175.677 350.12V352.5H178.125V353.588ZM183.845 361V348.59H184.967V361H183.845ZM194.458 352.5H195.58V361H194.458V359.334C193.744 360.473 192.537 361.204 191.024 361.204C188.627 361.204 186.638 359.266 186.638 356.75C186.638 354.234 188.627 352.296 191.024 352.296C192.537 352.296 193.744 353.027 194.458 354.166V352.5ZM191.109 360.116C192.996 360.116 194.458 358.637 194.458 356.75C194.458 354.863 192.996 353.384 191.109 353.384C189.222 353.384 187.76 354.863 187.76 356.75C187.76 358.637 189.222 360.116 191.109 360.116ZM201.734 352.296C203.808 352.296 205.066 353.656 205.066 355.781V361H203.944V355.781C203.944 354.268 203.111 353.384 201.632 353.384C200.136 353.384 198.878 354.268 198.878 356.546V361H197.756V352.5H198.878V353.826C199.541 352.755 200.527 352.296 201.734 352.296ZM214.345 349.1H215.467V361H214.345V359.334C213.631 360.473 212.424 361.204 210.911 361.204C208.514 361.204 206.525 359.266 206.525 356.75C206.525 354.234 208.514 352.296 210.911 352.296C212.424 352.296 213.631 353.027 214.345 354.166V349.1ZM210.996 360.116C212.883 360.116 214.345 358.637 214.345 356.75C214.345 354.863 212.883 353.384 210.996 353.384C209.109 353.384 207.647 354.863 207.647 356.75C207.647 358.637 209.109 360.116 210.996 360.116ZM218.204 350.698C217.745 350.698 217.388 350.324 217.388 349.882C217.388 349.44 217.745 349.066 218.204 349.066C218.663 349.066 219.02 349.44 219.02 349.882C219.02 350.324 218.663 350.698 218.204 350.698ZM217.643 361V352.5H218.765V361H217.643ZM224.924 352.296C226.998 352.296 228.256 353.656 228.256 355.781V361H227.134V355.781C227.134 354.268 226.301 353.384 224.822 353.384C223.326 353.384 222.068 354.268 222.068 356.546V361H220.946V352.5H222.068V353.826C222.731 352.755 223.717 352.296 224.924 352.296ZM237.535 352.5H238.657V360.66C238.657 363.244 236.583 364.604 234.39 364.604C232.435 364.604 231.024 363.856 230.361 362.53L231.347 361.969C231.772 362.836 232.554 363.516 234.39 363.516C236.362 363.516 237.535 362.394 237.535 360.66V359.334C236.821 360.473 235.614 361.204 234.101 361.204C231.704 361.204 229.715 359.266 229.715 356.75C229.715 354.234 231.704 352.296 234.101 352.296C235.614 352.296 236.821 353.027 237.535 354.166V352.5ZM234.186 360.116C236.073 360.116 237.535 358.637 237.535 356.75C237.535 354.863 236.073 353.384 234.186 353.384C232.299 353.384 230.837 354.863 230.837 356.75C230.837 358.637 232.299 360.116 234.186 360.116ZM249.439 352.296C251.836 352.296 253.825 354.234 253.825 356.75C253.825 359.266 251.836 361.204 249.439 361.204C247.926 361.204 246.719 360.473 246.005 359.334V364.4H244.883V352.5H246.005V354.166C246.719 353.027 247.926 352.296 249.439 352.296ZM249.354 360.116C251.241 360.116 252.703 358.637 252.703 356.75C252.703 354.863 251.241 353.384 249.354 353.384C247.467 353.384 246.005 354.863 246.005 356.75C246.005 358.637 247.467 360.116 249.354 360.116ZM262.8 352.5H263.922V361H262.8V359.334C262.086 360.473 260.879 361.204 259.366 361.204C256.969 361.204 254.98 359.266 254.98 356.75C254.98 354.234 256.969 352.296 259.366 352.296C260.879 352.296 262.086 353.027 262.8 354.166V352.5ZM259.451 360.116C261.338 360.116 262.8 358.637 262.8 356.75C262.8 354.863 261.338 353.384 259.451 353.384C257.564 353.384 256.102 354.863 256.102 356.75C256.102 358.637 257.564 360.116 259.451 360.116ZM273.408 352.5H274.53V360.66C274.53 363.244 272.456 364.604 270.263 364.604C268.308 364.604 266.897 363.856 266.234 362.53L267.22 361.969C267.645 362.836 268.427 363.516 270.263 363.516C272.235 363.516 273.408 362.394 273.408 360.66V359.334C272.694 360.473 271.487 361.204 269.974 361.204C267.577 361.204 265.588 359.266 265.588 356.75C265.588 354.234 267.577 352.296 269.974 352.296C271.487 352.296 272.694 353.027 273.408 354.166V352.5ZM270.059 360.116C271.946 360.116 273.408 358.637 273.408 356.75C273.408 354.863 271.946 353.384 270.059 353.384C268.172 353.384 266.71 354.863 266.71 356.75C266.71 358.637 268.172 360.116 270.059 360.116ZM280.633 352.296C283.234 352.296 284.849 354.455 284.849 356.784C284.849 356.954 284.832 357.141 284.815 357.311H277.352C277.59 359.045 278.933 360.116 280.735 360.116C282.078 360.116 283.013 359.487 283.472 358.671L284.458 359.249C283.744 360.405 282.435 361.204 280.718 361.204C278.032 361.204 276.196 359.317 276.196 356.75C276.196 354.251 277.998 352.296 280.633 352.296ZM280.633 353.384C278.848 353.384 277.573 354.557 277.352 356.223H283.693C283.455 354.353 282.095 353.384 280.633 353.384ZM286.518 361.17C285.991 361.17 285.583 360.762 285.583 360.235C285.583 359.708 285.991 359.3 286.518 359.3C287.045 359.3 287.453 359.708 287.453 360.235C287.453 360.762 287.045 361.17 286.518 361.17Z" fill="white"/>
<path d="M204.784 86.2108C203.434 84.8606 203.434 82.6772 204.784 81.327L206.427 79.6893C207.782 78.3445 209.973 78.3445 211.328 79.6893C212.673 81.0399 212.673 83.2182 211.328 84.5689L209.681 86.2108C208.325 87.5505 206.139 87.5505 204.784 86.2108Z" fill="#83FFA3"/>
<path opacity="0.4" d="M204.784 86.2108C203.434 84.8606 203.434 82.6772 204.784 81.327L206.427 79.6893C207.782 78.3445 209.973 78.3445 211.328 79.6893C212.673 81.0399 212.673 83.2182 211.328 84.5689L209.681 86.2108C208.325 87.5505 206.139 87.5505 204.784 86.2108Z" fill="white"/>
<path d="M207.097 83.9181C205.355 82.1774 205.355 79.3598 207.097 77.6191L210.317 74.4109C212.064 72.6746 214.891 72.6746 216.638 74.4109C218.383 76.1506 218.383 78.9701 216.638 80.7098L213.41 83.9181C211.662 85.6442 208.845 85.6442 207.097 83.9181Z" fill="#83FFA3"/>
<path d="M211.585 79.429C208.606 76.4758 203.793 76.4758 200.814 79.429L211.585 90.1666C214.547 87.1959 214.547 82.3998 211.585 79.429Z" fill="#83FFA3"/>
<path d="M215.956 100.249C215.595 100.249 215.302 99.9577 215.302 99.5982C215.302 99.2387 215.595 98.9473 215.956 98.9473C222.473 98.9473 227.756 93.6831 227.756 87.1893C227.756 80.6955 222.473 75.4313 215.956 75.4313C215.711 75.4509 215.475 75.3318 215.346 75.1229C215.218 74.9141 215.218 74.6509 215.346 74.4421C215.475 74.2332 215.711 74.114 215.956 74.1337C220.693 74.049 225.108 76.5191 227.502 80.594C229.896 84.6689 229.896 89.7139 227.502 93.7888C225.108 97.8636 220.693 100.334 215.956 100.249Z" fill="#83FFA3"/>
<path fill-rule="evenodd" clip-rule="evenodd" d="M216.933 118.079L231.843 188.627L232.581 188.606L232.442 190.63H198.399L198.567 188.149H200.864L200.835 188.606H211.122L222.682 155.239L214.94 118.621L216.933 118.079ZM229.736 188.627L222.993 156.658L211.901 188.627H229.736Z" fill="#83FFA3"/>
<path fill-rule="evenodd" clip-rule="evenodd" d="M142.707 118.1L157.6 188.627H158.338L158.199 190.651H124.16L124.324 188.17H126.625L126.592 188.627H136.891L148.451 155.26L140.714 118.642L142.707 118.1ZM155.493 188.627L148.75 156.658L137.65 188.627H155.493Z" fill="#83FFA3"/>
<path d="M223.735 153.114L221.818 158.644H147.76L149.673 153.114H223.735Z" fill="#83FFA3"/>
<path d="M220.819 157.284L221.818 158.645H147.76L146.761 157.284H220.819Z" fill="#83FFA3"/>
<path opacity="0.2" d="M220.819 157.284L221.818 158.645H147.76L146.761 157.284H220.819Z" fill="black"/>
<path d="M208.905 144.585H118.45L117.139 143.283L233.584 93.925L234.89 95.2268L208.905 144.585Z" fill="#83FFA3"/>
<path opacity="0.4" d="M208.905 144.585H118.45L117.139 143.283L233.584 93.925L234.89 95.2268L208.905 144.585Z" fill="black"/>
<path d="M129.958 115.774L132.468 111.002L132.841 111.197L130.331 115.969L129.958 115.774Z" fill="#83FFA3"/>
<path d="M127.938 119.61L129.131 117.341L129.504 117.536L128.311 119.805L127.938 119.61Z" fill="#83FFA3"/>
<path d="M207.594 143.283H117.139L143.129 93.925H233.584L207.594 143.283Z" fill="#83FFA3"/>
<path opacity="0.3" d="M198.5 135.368L134.481 135.594L153.42 100.295C168.591 101.379 191.315 101.479 216.171 100.988L198.5 135.368Z" fill="black"/>
<path d="M197.577 135.594H134.118L152.349 100.967C171.895 101.689 192.828 101.227 215.374 100.606C211.88 109.332 205.542 121.993 197.577 135.594Z" fill="white"/>
<g opacity="0.6">
<path d="M145.295 131.513C151.259 131.479 157.224 131.451 163.189 131.429L182.385 131.34L192.023 131.294C192.102 131.281 192.161 131.213 192.161 131.133C192.161 131.052 192.102 130.984 192.023 130.971L174.129 131.055L154.933 131.139L145.295 131.185C145.204 131.185 145.13 131.258 145.13 131.349C145.13 131.439 145.204 131.513 145.295 131.513Z" fill="#83FFA3"/>
<path d="M191.235 131.828C195.058 124.577 198.917 117.343 202.811 110.126C203.935 108.048 205.059 105.971 206.183 103.894C206.284 103.709 206.001 103.545 205.9 103.726C201.967 110.94 198.08 118.174 194.239 125.428C193.135 127.508 192.037 129.587 190.944 131.664C190.847 131.849 191.125 132.012 191.226 131.828H191.235Z" fill="#83FFA3"/>
<path d="M206.377 104.045C200.384 104.079 194.393 104.107 188.403 104.129L168.979 104.217L159.37 104.264C159.28 104.264 159.206 104.337 159.206 104.427C159.206 104.518 159.28 104.591 159.37 104.591C165.363 104.557 171.354 104.529 177.344 104.507L196.768 104.419L206.377 104.373C206.467 104.373 206.541 104.299 206.541 104.209C206.541 104.118 206.467 104.045 206.377 104.045Z" fill="#83FFA3"/>
<path d="M160.504 103.457C156.644 110.789 152.743 118.103 148.801 125.399C147.677 127.49 146.545 129.578 145.404 131.664C145.303 131.849 145.585 132.012 145.687 131.828C149.654 124.549 153.587 117.237 157.487 109.891C158.594 107.802 159.698 105.712 160.799 103.621C160.9 103.436 160.618 103.273 160.517 103.457H160.504Z" fill="#83FFA3"/>
<path d="M166.884 128.011L173.471 115.068L175.246 111.591C175.343 111.407 175.06 111.239 174.963 111.428L168.166 124.739L166.585 127.826C166.493 128.015 166.775 128.179 166.868 127.99L166.884 128.011Z" fill="#83FFA3"/>
<path d="M151.249 128.065L155.042 120.632C155.135 120.444 154.853 120.28 154.76 120.465L150.967 127.901C150.874 128.09 151.157 128.254 151.249 128.065Z" fill="#83FFA3"/>
<path d="M188.643 128.011C191.799 122.337 194.585 116.467 197.577 110.705C198.31 109.294 199.052 107.883 199.828 106.506C199.929 106.321 199.646 106.158 199.545 106.342C196.389 112.011 193.599 117.886 190.611 123.643C189.878 125.059 189.136 126.465 188.36 127.843C188.259 128.023 188.537 128.191 188.643 128.006V128.011Z" fill="#83FFA3"/>
<path d="M171.326 127.968C174.192 122.354 177.087 116.748 179.945 111.129L180.914 109.223L181.436 108.194L181.693 107.682C181.765 107.543 181.875 107.157 182.018 107.081C182.229 107.052 182.443 107.052 182.654 107.081H183.459H185.183C187.748 107.056 190.312 107.035 192.874 107.018C195.466 107.018 198.053 106.997 200.645 107.043C200.725 107.031 200.783 106.962 200.783 106.882C200.783 106.801 200.725 106.733 200.645 106.72C194.395 106.611 188.141 106.72 181.896 106.791C181.837 106.791 181.783 106.821 181.752 106.871C178.221 113.88 174.613 120.851 171.044 127.838C170.947 128.027 171.229 128.191 171.326 128.002V127.968Z" fill="#83FFA3"/>
<path d="M188.668 127.889C187.13 122.367 185.297 116.929 183.535 111.478C183.038 109.944 182.543 108.411 182.052 106.88C181.988 106.678 181.672 106.762 181.736 106.964C183.518 112.553 185.389 118.117 187.105 123.727C187.526 125.138 187.947 126.553 188.369 127.977C188.397 128.059 188.485 128.105 188.569 128.082C188.653 128.059 188.704 127.974 188.685 127.889H188.668Z" fill="#83FFA3"/>
<path d="M199.739 106.733C196.258 109.672 192.524 112.276 188.803 114.888C184.774 117.714 180.712 120.49 176.754 123.408C174.799 124.848 172.865 126.322 171.01 127.889C170.85 128.023 171.082 128.254 171.242 128.12C174.79 125.126 178.592 122.438 182.389 119.767C186.388 116.954 190.43 114.195 194.374 111.302C196.279 109.907 198.167 108.48 199.971 106.964C200.131 106.825 199.899 106.598 199.739 106.733Z" fill="#83FFA3"/>
<path d="M170.715 127.922C175.536 128.061 180.358 128.116 185.179 128.12C186.342 128.12 187.509 128.12 188.672 128.095C188.752 128.082 188.81 128.013 188.81 127.933C188.81 127.853 188.752 127.784 188.672 127.771C183.839 127.864 178.979 127.771 174.158 127.679C173.012 127.654 171.862 127.633 170.715 127.599C170.636 127.612 170.577 127.68 170.577 127.761C170.577 127.841 170.636 127.91 170.715 127.922Z" fill="#83FFA3"/>
<path d="M164.031 128.12C167.104 122.421 169.931 116.605 172.911 110.852C173.644 109.43 174.389 108.014 175.144 106.603C175.241 106.418 174.959 106.254 174.862 106.439C171.79 112.137 168.962 117.953 165.983 123.706C165.249 125.13 164.512 126.549 163.749 127.956C163.652 128.141 163.934 128.304 164.031 128.12Z" fill="#83FFA3"/>
<path d="M154.958 128.048C156.88 124.286 158.804 120.525 160.732 116.765C161.692 114.884 162.653 113.002 163.614 111.121C164.086 110.201 164.554 109.278 165.022 108.358C165.173 108.056 165.405 107.291 165.734 107.161C166.013 107.118 166.298 107.118 166.577 107.161H167.512C169.957 107.119 172.405 107.073 174.854 107.161C175.06 107.161 175.06 106.842 174.854 106.834C171.748 106.737 168.642 106.834 165.54 106.88C165.481 106.879 165.427 106.909 165.397 106.96C161.853 113.96 158.258 120.939 154.688 127.927C154.591 128.111 154.874 128.279 154.971 128.09L154.958 128.048Z" fill="#83FFA3"/>
<path d="M164.057 128.04C164.685 121.031 165.039 114.006 165.688 107.001C165.709 106.792 165.384 106.792 165.363 107.001C164.714 114.006 164.36 121.031 163.728 128.04C163.728 128.246 164.036 128.246 164.057 128.04Z" fill="#83FFA3"/>
<path d="M174.9 106.838C169.674 112.457 164.246 117.882 158.941 123.421C157.494 124.924 156.061 126.44 154.642 127.969C154.499 128.12 154.73 128.351 154.874 128.195C160.129 122.526 165.599 117.055 170.955 111.478C172.36 110.017 173.752 108.547 175.132 107.069C175.275 106.918 175.043 106.687 174.9 106.838Z" fill="#83FFA3"/>
<path d="M154.553 128.011C157.659 128.162 160.782 128.296 163.892 128.208C164.103 128.208 164.103 127.876 163.892 127.885C160.782 127.969 157.659 127.838 154.553 127.687C154.343 127.687 154.343 128.002 154.553 128.011Z" fill="#83FFA3"/>
<path d="M159.564 108.723C159.407 108.983 159.36 109.294 159.434 109.588C159.514 109.838 159.718 110.029 159.973 110.092C160.598 110.194 161.235 110.011 161.709 109.593C162.203 109.234 162.482 108.651 162.451 108.043C162.379 107.532 161.922 107.165 161.406 107.203C161.046 107.244 160.712 107.412 160.466 107.678C160.329 107.803 160.2 107.936 160.078 108.077C159.961 108.194 159.876 108.338 159.83 108.497C159.792 108.702 160.108 108.79 160.146 108.585C160.184 108.379 160.42 108.165 160.567 108.018C160.733 107.832 160.933 107.681 161.157 107.573C161.336 107.493 161.541 107.493 161.72 107.574C161.898 107.654 162.034 107.806 162.093 107.993C162.166 108.438 162.007 108.89 161.671 109.194C161.315 109.563 160.835 109.79 160.323 109.832C160.113 109.862 159.902 109.781 159.767 109.618C159.66 109.389 159.681 109.122 159.821 108.912C159.918 108.728 159.636 108.564 159.539 108.749L159.564 108.723Z" fill="#83FFA3"/>
</g>
<path opacity="0.2" d="M233.584 93.9249L207.607 143.283H117.139L143.129 93.9249H169.059L155.843 99.9592H155.814C149.071 102.407 143.681 106.157 140.924 110.84C134.603 121.565 144.536 133.096 163.092 136.632C181.647 140.167 201.8 134.305 208.109 123.58C209.425 121.436 210.082 118.954 209.997 116.441L211.358 93.8997L233.584 93.9249Z" fill="black"/>
<path d="M151.604 85.6308C150.509 87.5482 149.397 89.5369 148.336 91.5046C147.274 93.4724 146.222 95.4569 145.351 97.4372C145.122 97.9323 144.928 98.4232 144.725 98.914C144.704 98.9602 144.725 98.914 144.725 98.914C144.725 98.914 144.725 98.9476 144.699 98.9812C144.684 99.1066 144.684 99.2333 144.699 99.3588C144.778 99.7674 144.907 100.165 145.084 100.542C145.279 100.961 145.507 101.427 145.765 101.876C146.903 103.744 148.165 105.534 149.545 107.234L147.896 108.975C145.933 107.547 144.165 105.873 142.636 103.995C141.749 102.934 141.063 101.723 140.611 100.42C140.477 99.9937 140.394 99.5529 140.365 99.107C140.351 98.8439 140.36 98.58 140.391 98.3183C140.405 98.1773 140.428 98.0372 140.459 97.8987C140.459 97.8274 140.497 97.7519 140.513 97.6805L140.568 97.4917C140.763 96.9127 140.949 96.3254 141.16 95.7632C141.989 93.5585 142.935 91.399 143.993 89.2936C145.055 87.1958 146.158 85.1861 147.376 83.1638L151.604 85.6308Z" fill="#FFC3BD"/>
<path d="M148.932 106.68L151.181 107.41L149.291 110.573C149.291 110.573 147.634 109.831 147.304 108.325L148.932 106.68Z" fill="#FFC3BD"/>
<path d="M154.259 108.635L152.065 111.073L149.295 110.578L151.185 107.414L154.259 108.635Z" fill="#FFC3BD"/>
<path d="M164.745 70.9084C164.682 71.156 164.745 71.3909 164.927 71.4329C165.109 71.4748 165.274 71.307 165.35 71.0595C165.426 70.8119 165.35 70.5728 165.168 70.5308C164.986 70.4889 164.809 70.6567 164.745 70.9084Z" fill="#263238"/>
<path d="M164.741 71.3867C164.843 72.2221 165.061 73.0395 165.388 73.816C164.974 73.9777 164.509 73.9485 164.119 73.7362L164.741 71.3867Z" fill="#ED847E"/>
<path d="M164.187 69.2932C164.132 69.2692 164.096 69.2148 164.096 69.1547C164.096 69.0947 164.132 69.0403 164.187 69.0163C164.638 68.8272 165.154 68.8679 165.57 69.1254C165.637 69.1757 165.654 69.2691 165.608 69.3393C165.558 69.4061 165.464 69.4211 165.396 69.3729C165.063 69.1746 164.655 69.1465 164.297 69.2974C164.261 69.3105 164.222 69.309 164.187 69.2932Z" fill="#263238"/>
<path d="M156.124 71.8818C156.585 74.2104 157.046 78.4773 155.401 80.0297C155.401 80.0297 156.044 82.396 160.403 82.396C165.202 82.396 162.699 80.0297 162.699 80.0297C160.077 79.4129 160.162 77.4829 160.585 75.6746L156.124 71.8818Z" fill="#FFC3BD"/>
<path d="M154.598 81.2295C154.373 79.9709 154.124 78.5444 154.953 78.1793C155.862 77.7598 160.64 77.7346 162.183 78.7919C163.726 79.8492 163.029 82.2826 163.029 82.2826L154.598 81.2295Z" fill="#263238"/>
<path opacity="0.6" d="M154.598 81.2295C154.373 79.9709 154.124 78.5444 154.953 78.1793C155.862 77.7598 160.64 77.7346 162.183 78.7919C163.726 79.8492 163.029 82.2826 163.029 82.2826L154.598 81.2295Z" fill="#83FFA3"/>
<path fill-rule="evenodd" clip-rule="evenodd" d="M140.086 188.288C139.837 188.465 139.548 188.487 139.287 188.349C139.013 188.264 138.747 188.134 138.492 187.961C138.464 187.945 138.446 187.906 138.446 187.862C138.449 187.818 138.468 187.78 138.497 187.764C138.539 187.733 139.541 187.141 139.964 187.443C140.06 187.505 140.132 187.624 140.163 187.77C140.217 187.948 140.186 188.157 140.086 188.288ZM139.9 187.647L139.812 187.603V187.634C139.441 187.593 139.068 187.673 138.721 187.868C139.177 188.115 139.816 188.331 139.989 188.115C140.015 188.097 140.057 188.035 140.015 187.838C139.998 187.753 139.956 187.683 139.9 187.647Z" fill="#83FFA3"/>
<path fill-rule="evenodd" clip-rule="evenodd" d="M138.53 187.776H138.497C138.483 187.774 138.47 187.769 138.459 187.76C138.438 187.74 138.43 187.711 138.437 187.684C138.438 187.683 138.439 187.681 138.44 187.678C138.468 187.59 138.739 186.758 139.148 186.547C139.252 186.492 139.375 186.483 139.486 186.522C139.601 186.546 139.683 186.648 139.681 186.765C139.672 187.126 138.894 187.672 138.53 187.776ZM139.435 186.648H139.414C139.349 186.63 139.28 186.636 139.22 186.665C138.938 186.899 138.735 187.212 138.636 187.563C139.012 187.386 139.528 186.958 139.528 186.744C139.528 186.723 139.528 186.677 139.435 186.648Z" fill="#83FFA3"/>
<path fill-rule="evenodd" clip-rule="evenodd" d="M163.891 189.57C163.756 189.824 163.371 189.907 162.948 189.907C162.624 189.903 162.3 189.861 161.98 189.783C161.95 189.772 161.926 189.737 161.921 189.694C161.915 189.649 161.93 189.604 161.959 189.582C161.997 189.546 163.117 188.654 163.65 188.855C163.752 188.887 163.839 188.977 163.891 189.103C163.962 189.243 163.962 189.43 163.891 189.57ZM163.604 189.038C163.555 189.029 163.505 189.029 163.456 189.038H163.443C163.004 189.112 162.579 189.302 162.191 189.599C162.788 189.718 163.599 189.712 163.752 189.422C163.785 189.381 163.807 189.316 163.752 189.186C163.719 189.111 163.665 189.057 163.604 189.038Z" fill="#83FFA3"/>
<path fill-rule="evenodd" clip-rule="evenodd" d="M162.01 189.505H161.98C161.964 189.508 161.948 189.506 161.933 189.501C161.911 189.484 161.9 189.457 161.904 189.429C161.904 189.396 161.976 188.536 162.399 188.204C162.515 188.105 162.668 188.058 162.821 188.074C163.029 188.095 163.105 188.2 163.105 188.284C163.164 188.666 162.394 189.333 162.01 189.505ZM162.804 188.213H162.762C162.665 188.213 162.571 188.248 162.496 188.309C162.257 188.586 162.11 188.929 162.073 189.291C162.47 189.052 162.991 188.511 162.957 188.297C162.956 188.296 162.956 188.295 162.956 188.294C162.951 188.274 162.937 188.213 162.804 188.213Z" fill="#83FFA3"/>
<path d="M158.449 189.43H161.659L161.976 182.054H158.771L158.449 189.43Z" fill="#FFC3BD"/>
<path d="M134.932 186.929L138.065 187.604L141.215 180.736L138.078 180.061L134.932 186.929Z" fill="#FFC3BD"/>
<path d="M138.37 187.29L134.843 186.535C134.715 186.507 134.585 186.572 134.531 186.69L133.309 189.321C133.249 189.451 133.253 189.601 133.319 189.729C133.385 189.856 133.505 189.947 133.647 189.975C134.882 190.218 135.495 190.273 137.029 190.609C137.985 190.814 140.137 191.334 141.452 191.616C142.767 191.897 143.224 190.642 142.721 190.411C140.42 189.367 139.461 188.448 138.835 187.592C138.723 187.438 138.557 187.33 138.37 187.29Z" fill="#263238"/>
<path d="M161.638 189.06H158.132C158.001 189.06 157.888 189.151 157.862 189.278L157.228 192.106C157.195 192.245 157.229 192.391 157.319 192.501C157.409 192.612 157.545 192.675 157.688 192.673C158.957 192.652 160.779 192.58 162.369 192.58C164.225 192.58 165.828 192.681 168.009 192.681C169.324 192.681 169.701 191.359 169.138 191.238C166.631 190.692 164.58 190.634 162.411 189.308C162.181 189.157 161.913 189.071 161.638 189.06Z" fill="#263238"/>
<path d="M168.035 83.877C169.079 86.2139 170.221 88.6138 171.417 90.9088C172.013 92.0583 172.635 93.1911 173.278 94.2652C173.899 95.3268 174.585 96.3496 175.333 97.328L175.603 97.6636C175.671 97.7266 175.603 97.6972 175.709 97.7727C175.878 97.9193 176.059 98.0512 176.25 98.1671C176.758 98.4742 177.281 98.7543 177.819 99.0062C178.952 99.5475 180.157 100.068 181.379 100.559C183.819 101.545 186.33 102.489 188.825 103.433L188.216 105.749C185.509 105.317 182.827 104.743 180.182 104.028C178.855 103.651 177.527 103.265 176.187 102.77C175.482 102.511 174.793 102.211 174.123 101.872C173.726 101.667 173.346 101.432 172.986 101.167C172.757 100.996 172.542 100.806 172.343 100.601L171.95 100.181C170.985 99.0982 170.104 97.9438 169.316 96.728C168.534 95.5575 167.828 94.3617 167.151 93.1534C165.814 90.7479 164.615 88.27 163.557 85.7314L168.035 83.877Z" fill="#FFC3BD"/>
<path d="M148.665 80.7514C145.659 81.4353 140.611 96.2541 140.611 96.2541L145.524 97.8736C145.524 97.8736 150.539 90.5019 152.242 86.965C154.023 83.2268 151.744 80.0507 148.665 80.7514Z" fill="#83FFA3"/>
<path opacity="0.5" d="M148.665 80.7514C145.659 81.4353 140.611 96.2541 140.611 96.2541L145.524 97.8736C145.524 97.8736 150.539 90.5019 152.242 86.965C154.023 83.2268 151.744 80.0507 148.665 80.7514Z" fill="black"/>
<path d="M146.378 97.1475C146.378 97.1475 141.562 96.2371 140.459 95.5574C140.074 96.1112 139.613 98.1167 139.926 98.7083C140.239 99.2998 144.725 100.152 145.334 99.8033C145.942 99.4551 146.378 97.1475 146.378 97.1475Z" fill="#263238"/>
<path opacity="0.6" d="M146.378 97.1475C146.378 97.1475 141.562 96.2371 140.459 95.5574C140.074 96.1112 139.613 98.1167 139.926 98.7083C140.239 99.2998 144.725 100.152 145.334 99.8033C145.942 99.4551 146.378 97.1475 146.378 97.1475Z" fill="#83FFA3"/>
<path opacity="0.3" d="M150.615 86.0126C149.697 86.9231 148.864 89.5075 148.839 92.7927C149.9 91.1145 150.995 89.3145 151.76 87.8755C151.397 86.579 150.991 85.6518 150.615 86.0126Z" fill="black"/>
<path d="M166.644 80.915C166.644 80.915 170.06 84.7414 166.834 108.438H149.672C149.553 105.824 151.207 93.0696 148.665 80.7472C150.563 80.3835 152.482 80.1425 154.412 80.0255C156.842 79.887 159.279 79.887 161.709 80.0255C163.375 80.1942 165.025 80.4915 166.644 80.915Z" fill="#83FFA3"/>
<path opacity="0.5" d="M166.644 80.915C166.644 80.915 170.06 84.7414 166.834 108.438H149.672C149.553 105.824 151.207 93.0696 148.665 80.7472C150.563 80.3835 152.482 80.1425 154.412 80.0255C156.842 79.887 159.279 79.887 161.709 80.0255C163.375 80.1942 165.025 80.4915 166.644 80.915Z" fill="black"/>
<path opacity="0.3" d="M164.098 88.4836C164.424 91.9408 166.635 96.3294 167.929 98.3181C168.098 96.0357 168.187 94.047 168.212 92.31L164.098 88.4836Z" fill="black"/>
<path d="M162.394 83.382C160.327 87.2629 171.121 99.8832 171.121 99.8832L174.893 96.0862C174.893 96.0862 169.997 87.5902 168.847 83.8226C167.426 79.1655 163.967 80.4283 162.394 83.382Z" fill="#83FFA3"/>
<path opacity="0.5" d="M162.394 83.382C160.327 87.2629 171.121 99.8832 171.121 99.8832L174.893 96.0862C174.893 96.0862 169.997 87.5902 168.847 83.8226C167.426 79.1655 163.967 80.4283 162.394 83.382Z" fill="black"/>
<path d="M174.741 95.3352C174.741 95.3352 171.468 98.956 170.318 99.5308C170.597 100.143 172.081 101.582 172.762 101.629C173.443 101.675 176.487 98.2973 176.5 97.6008C176.512 96.9044 174.741 95.3352 174.741 95.3352Z" fill="#263238"/>
<path opacity="0.6" d="M174.741 95.3352C174.741 95.3352 171.468 98.956 170.318 99.5308C170.597 100.143 172.081 101.582 172.762 101.629C173.443 101.675 176.487 98.2973 176.5 97.6008C176.512 96.9044 174.741 95.3352 174.741 95.3352Z" fill="#83FFA3"/>
<path d="M188.085 103.475L191.193 102.145L192.161 105.501C192.161 105.501 189.789 107.041 187.89 105.694L188.085 103.475Z" fill="#FFC3BD"/>
<path d="M194.66 103.735C194.558 103.802 194.421 103.776 194.351 103.676L190.901 98.5994C190.867 98.5512 190.854 98.4915 190.866 98.4339C190.877 98.3762 190.911 98.3255 190.96 98.2931C191.009 98.2596 191.069 98.247 191.127 98.2581C191.185 98.2691 191.236 98.3029 191.269 98.3518L194.719 103.428C194.753 103.477 194.765 103.536 194.754 103.594C194.743 103.652 194.709 103.702 194.66 103.735Z" fill="#263238"/>
<path d="M194.469 102.392L195.835 104.398L192.161 105.488L191.193 102.14L194.469 102.392Z" fill="#FFC3BD"/>
<path opacity="0.2" d="M161.976 182.058L161.815 185.859H158.602L158.767 182.058H161.976Z" fill="black"/>
<path opacity="0.2" d="M138.078 180.065L141.215 180.736L139.592 184.277L136.454 183.602L138.078 180.065Z" fill="black"/>
<path d="M156.521 68.2485C155.921 71.3532 155.409 73.1406 156.559 75.1041C158.289 78.041 162.449 77.6214 163.971 74.7643C165.346 72.1882 166.086 67.5478 163.396 65.5633C162.191 64.6685 160.605 64.4567 159.204 65.0038C157.804 65.5508 156.789 66.7786 156.521 68.2485Z" fill="#FFC3BD"/>
<path d="M155.287 66.7127C157.549 65.9785 161.836 64.3968 163.35 68.0092C164.864 71.6216 158.699 75.3934 157.13 75.3976C155.87 75.4102 152.801 67.5519 155.287 66.7127Z" fill="#263238"/>
<path d="M159.997 68.2359C164.428 70.6483 168.453 67.1786 166.656 63.2557C164.859 59.3328 160.931 59.8992 162.153 61.8124C163.375 63.7256 159.997 60.8265 157.663 61.7201C156.027 62.3453 158.149 63.3648 158.348 64.1032C158.547 64.8416 154.065 64.8626 153.469 65.9702C152.872 67.0779 155.025 69.3854 156.128 69.0246C157.232 68.6638 159.215 67.8037 159.997 68.2359Z" fill="#263238"/>
<path d="M161.278 70.0945C161.132 70.8664 161.248 71.6647 161.608 72.3643C162.086 73.2789 162.914 73.0062 163.274 72.1377C163.599 71.3531 163.739 69.935 163.02 69.3099C162.301 68.6847 161.464 69.1672 161.278 70.0945Z" fill="#FFC3BD"/>
<path d="M160.745 108.438C160.745 108.438 157.105 132.772 155.105 141.885C152.915 151.871 141.211 183.87 141.211 183.87L135.465 182.637C135.465 182.637 144.23 152.676 145.477 142.779C146.835 132.051 149.672 108.425 149.672 108.425L160.745 108.438Z" fill="#263238"/>
<path d="M142.585 181.97C142.611 181.97 141.516 184.03 141.516 184.03L135.051 182.641L135.596 180.715L142.585 181.97Z" fill="#83FFA3"/>
<path opacity="0.3" d="M158.445 117.106C154.217 117.924 154.678 133.507 155.185 141.52C156.399 135.856 158.179 124.956 159.392 117.219C159.098 117.077 158.765 117.037 158.445 117.106Z" fill="black"/>
<path d="M166.826 108.438C166.826 108.438 167.248 132.244 166.919 141.952C166.563 152.051 163.02 185.121 163.02 185.121H157.574C157.574 185.121 157.371 152.643 157.13 142.724C156.868 131.912 155.553 108.438 155.553 108.438L166.826 108.438Z" fill="#263238"/>
<path d="M164.056 182.972C164.081 182.972 163.747 185.213 163.747 185.213H157.134L156.957 183.216L164.056 182.972Z" fill="#83FFA3"/>
</g>
<defs>
<filter id="filter0_d_1_673" x="0" y="0" width="358" height="491" filterUnits="userSpaceOnUse" color-interpolation-filters="sRGB">
<feFlood flood-opacity="0" result="BackgroundImageFix"/>
<feColorMatrix in="SourceAlpha" type="matrix" values="0 0 0 0 0 0 0 0 0 0 0 0 0 0 0 0 0 0 127 0" result="hardAlpha"/>
<feOffset dy="4"/>
<feGaussianBlur stdDeviation="2"/>
<feComposite in2="hardAlpha" operator="out"/>
<feColorMatrix type="matrix" values="0 0 0 0 0 0 0 0 0 0 0 0 0 0 0 0 0 0 0.25 0"/>
<feBlend mode="normal" in2="BackgroundImageFix" result="effect1_dropShadow_1_673"/>
<feBlend mode="normal" in="SourceGraphic" in2="effect1_dropShadow_1_673" result="shape"/>
</filter>
<clipPath id="clip0_1_673">
<rect width="350" height="483" fill="white" transform="translate(4)"/>
</clipPath>
<clipPath id="clip1_1_673">
<rect width="123" height="32" fill="white" transform="translate(117 413)"/>
</clipPath>
</defs>
</svg>
