<svg width="350" height="483" viewBox="0 0 350 483" fill="none" xmlns="http://www.w3.org/2000/svg">
<g clip-path="url(#clip0_1_552)">
<g filter="url(#filter0_d_1_552)">
<rect width="350" height="483" rx="10" fill="#473BF0"/>
</g>
<mask id="mask0_1_552" style="mask-type:luminance" maskUnits="userSpaceOnUse" x="0" y="0" width="350" height="483">
<rect width="350" height="483" rx="10" fill="white"/>
</mask>
<g mask="url(#mask0_1_552)">
</g>
<g filter="url(#filter1_d_1_552)">
<g clip-path="url(#clip1_1_552)">
<path d="M116.451 432.756H120.99V435H114.105V423.1H116.451V432.756ZM123.308 431.651C123.614 432.773 124.549 433.249 125.705 433.249C126.555 433.249 127.235 432.892 127.609 432.399L129.377 433.419C128.578 434.575 127.303 435.238 125.671 435.238C122.815 435.238 121.013 433.283 121.013 430.75C121.013 428.217 122.832 426.262 125.501 426.262C128.017 426.262 129.802 428.251 129.802 430.75C129.802 431.073 129.768 431.362 129.717 431.651H123.308ZM123.274 429.951H127.609C127.337 428.727 126.419 428.234 125.501 428.234C124.328 428.234 123.529 428.863 123.274 429.951ZM137.126 426.5H139.319V435H137.126V433.997C136.514 434.762 135.596 435.238 134.355 435.238C132.094 435.238 130.224 433.283 130.224 430.75C130.224 428.217 132.094 426.262 134.355 426.262C135.596 426.262 136.514 426.738 137.126 427.503V426.5ZM134.763 433.147C136.123 433.147 137.126 432.178 137.126 430.75C137.126 429.322 136.123 428.353 134.763 428.353C133.42 428.353 132.417 429.322 132.417 430.75C132.417 432.178 133.42 433.147 134.763 433.147ZM142.901 427.962C143.343 426.806 144.414 426.33 145.485 426.33V428.778C144.346 428.642 142.901 429.152 142.901 430.937V435H140.708V426.5H142.901V427.962ZM150.893 426.262C152.695 426.262 154.106 427.52 154.106 429.781V435H151.913V430.053C151.913 428.897 151.216 428.302 150.23 428.302C149.159 428.302 148.36 428.931 148.36 430.41V435H146.167V426.5H148.36V427.452C148.87 426.687 149.754 426.262 150.893 426.262ZM168.43 426.262C170.368 426.262 171.643 427.639 171.643 429.764V435H169.45V429.917C169.45 428.914 168.94 428.302 168.022 428.302C167.053 428.302 166.441 428.948 166.441 430.223V435H164.248V429.917C164.248 428.914 163.738 428.302 162.82 428.302C161.885 428.302 161.222 428.948 161.222 430.223V435H159.029V426.5H161.222V427.401C161.698 426.687 162.497 426.262 163.585 426.262C164.639 426.262 165.421 426.704 165.897 427.486C166.424 426.721 167.274 426.262 168.43 426.262ZM176.952 435.238C174.453 435.238 172.464 433.283 172.464 430.75C172.464 428.217 174.453 426.262 176.952 426.262C179.451 426.262 181.457 428.217 181.457 430.75C181.457 433.283 179.451 435.238 176.952 435.238ZM176.952 433.096C178.261 433.096 179.264 432.127 179.264 430.75C179.264 429.373 178.261 428.404 176.952 428.404C175.66 428.404 174.657 429.373 174.657 430.75C174.657 432.127 175.66 433.096 176.952 433.096ZM184.592 427.962C185.034 426.806 186.105 426.33 187.176 426.33V428.778C186.037 428.642 184.592 429.152 184.592 430.937V435H182.399V426.5H184.592V427.962ZM189.396 431.651C189.702 432.773 190.637 433.249 191.793 433.249C192.643 433.249 193.323 432.892 193.697 432.399L195.465 433.419C194.666 434.575 193.391 435.238 191.759 435.238C188.903 435.238 187.101 433.283 187.101 430.75C187.101 428.217 188.92 426.262 191.589 426.262C194.105 426.262 195.89 428.251 195.89 430.75C195.89 431.073 195.856 431.362 195.805 431.651H189.396ZM189.362 429.951H193.697C193.425 428.727 192.507 428.234 191.589 428.234C190.416 428.234 189.617 428.863 189.362 429.951Z" fill="white"/>
<path d="M230.4 424L236 429.2L230.4 434.4" stroke="white" stroke-width="2" stroke-linecap="square" stroke-linejoin="bevel"/>
<path d="M224 428.986H235.2" stroke="white" stroke-width="2" stroke-linecap="square" stroke-linejoin="bevel"/>
</g>
</g>
<rect x="102.218" y="114.819" width="145.465" height="5.2299" fill="#407BFF"/>
<rect opacity="0.3" x="102.218" y="114.819" width="38.9319" height="5.2299" fill="white"/>
<path d="M141.771 120.049H138.384L140.157 185.597H141.771H143.385L145.162 120.049H141.771Z" fill="#407BFF"/>
<path opacity="0.3" d="M140.157 185.597H141.771V121.456L138.44 122.066L140.157 185.597Z" fill="white"/>
<path d="M109.672 120.049H106.286L108.058 185.597H109.672H111.287L113.059 120.049H109.672Z" fill="#407BFF"/>
<path opacity="0.3" d="M108.058 185.597H109.672V121.456L106.337 122.066L108.058 185.597Z" fill="white"/>
<path d="M240.229 120.049H236.842L238.615 185.597H240.229H241.843L243.62 120.049H240.229Z" fill="#407BFF"/>
<path opacity="0.3" d="M238.615 185.597H240.229V121.456L236.898 122.066L238.615 185.597Z" fill="white"/>
<path d="M208.13 120.049H204.744L206.516 185.597H208.13H209.745L211.517 120.049H208.13Z" fill="#407BFF"/>
<path opacity="0.3" d="M206.516 185.597H208.13V121.456L204.799 122.066L206.516 185.597Z" fill="white"/>
<path d="M171.267 86.8205H136.68C136.111 86.7979 135.565 87.0496 135.212 87.4977C134.859 87.9457 134.741 88.536 134.895 89.0858L139.502 111.117C139.807 112.397 140.921 113.32 142.233 113.378H176.845C177.414 113.4 177.958 113.149 178.311 112.702C178.664 112.255 178.783 111.666 178.631 111.117L174.02 89.0858C173.714 87.7964 172.588 86.8696 171.267 86.8205Z" fill="#263238"/>
<path d="M142.533 112.12C141.648 112.061 140.902 111.437 140.684 110.576L136.077 88.5451C135.997 88.2498 136.055 87.9342 136.235 87.6871C136.422 87.4755 136.694 87.3603 136.976 87.3739H171.588C172.473 87.4337 173.219 88.0569 173.437 88.9184L178.044 110.949C178.124 111.244 178.066 111.56 177.886 111.807C177.7 112.02 177.427 112.136 177.145 112.12H142.533Z" fill="white"/>
<path opacity="0.4" d="M168.646 110.357L164.279 89.4675C164.229 89.2171 164.294 88.9576 164.454 88.7594C164.615 88.5612 164.855 88.4449 165.11 88.4421H170.727C171.128 88.4452 171.473 88.727 171.558 89.12L175.925 109.992C175.975 110.243 175.91 110.502 175.75 110.701C175.589 110.899 175.349 111.015 175.094 111.018H169.477C169.081 111.017 168.737 110.743 168.646 110.357Z" fill="#407BFF"/>
<path d="M138.958 90.27L138.77 89.3647H145.706L145.894 90.27H138.958Z" fill="#407BFF"/>
<path d="M142.161 92.5181L141.972 91.6128H154.128L154.32 92.5181H142.161Z" fill="#EBEBEB"/>
<path d="M142.803 94.7619L142.61 93.8567H156.238L156.427 94.7619H142.803Z" fill="#EBEBEB"/>
<path d="M143.441 97.01L143.252 96.1047H154.222L154.414 97.01H143.441Z" fill="#EBEBEB"/>
<path d="M141.069 100.653L140.876 99.7473H145.265L145.453 100.653H141.069Z" fill="#407BFF"/>
<path d="M144.267 102.896L144.079 101.991H149.422L149.615 102.896H144.267Z" fill="#EBEBEB"/>
<path d="M150.895 102.896L150.702 101.991H156.05L156.238 102.896H150.895Z" fill="#EBEBEB"/>
<path d="M144.909 105.145L144.721 104.239H162.789L162.977 105.145H144.909Z" fill="#EBEBEB"/>
<path d="M145.547 107.388L145.359 106.483H159.137L159.325 107.388H145.547Z" fill="#EBEBEB"/>
<path d="M187.425 113.245H141.887C140.645 113.245 139.84 113.953 140.101 114.819H190.157C189.9 113.953 188.667 113.245 187.425 113.245Z" fill="#263238"/>
<path opacity="0.1" d="M126.923 81.2516L122.551 60.3749C122.503 60.1251 122.568 59.8668 122.728 59.6696C122.889 59.4725 123.128 59.3568 123.382 59.3538H158.747C159.147 59.3564 159.492 59.636 159.578 60.0273L163.949 80.8869C163.999 81.1373 163.935 81.3968 163.774 81.595C163.614 81.7932 163.374 81.9095 163.119 81.9123H127.753C127.357 81.911 127.014 81.6378 126.923 81.2516Z" fill="#407BFF"/>
<path d="M139.493 60.0403H132.069L131.902 59.238H139.326L139.493 60.0403Z" fill="#407BFF"/>
<path opacity="0.4" d="M138.286 61.3189H135.306L135.139 60.5166H138.119L138.286 61.3189Z" fill="#407BFF"/>
<path opacity="0.4" d="M143.244 61.3189H138.654L138.487 60.5166H143.077L143.244 61.3189Z" fill="#407BFF"/>
<path opacity="0.4" d="M145.243 62.5931H135.571L135.404 61.7908H145.081L145.243 62.5931Z" fill="#407BFF"/>
<path opacity="0.4" d="M144.015 63.8716H135.837L135.67 63.0693H143.848L144.015 63.8716Z" fill="#407BFF"/>
<path opacity="0.4" d="M149.439 77.4333H144.233L144.4 78.2313H149.606L149.439 77.4333Z" fill="#407BFF"/>
<path d="M142.949 75.6829H135.323L135.156 74.8806H142.782L142.949 75.6829Z" fill="#407BFF"/>
<path opacity="0.4" d="M146.014 78.7075H138.924L139.091 79.5098H146.181L146.014 78.7075Z" fill="#407BFF"/>
<path opacity="0.4" d="M143.865 77.4333H138.658L138.825 78.2313H144.032L143.865 77.4333Z" fill="#407BFF"/>
<path opacity="0.4" d="M148.806 76.1548H138.393L138.56 76.9571H148.973L148.806 76.1548Z" fill="#407BFF"/>
<path d="M139.232 54.0854H130.832L130.665 53.2874H139.065L139.232 54.0854Z" fill="#407BFF"/>
<path opacity="0.4" d="M143.381 57.1143H134.116L134.283 57.9165H143.544L143.381 57.1143Z" fill="#407BFF"/>
<path opacity="0.4" d="M141.527 55.8401H133.85L134.017 56.6381H141.694L141.527 55.8401Z" fill="#407BFF"/>
<path opacity="0.4" d="M142.037 54.5615H133.585L133.752 55.3638H142.204L142.037 54.5615Z" fill="#407BFF"/>
<path d="M139.138 65.948H133.298L133.131 65.1458H138.971L139.138 65.948Z" fill="#407BFF"/>
<path opacity="0.4" d="M148.309 68.9727H136.899L137.066 69.7749H148.472L148.309 68.9727Z" fill="#407BFF"/>
<path opacity="0.4" d="M141.36 67.6985H136.633L136.8 68.5008H141.527L141.36 67.6985Z" fill="#407BFF"/>
<path opacity="0.4" d="M146.489 67.6985H141.763L141.93 68.5008H146.656L146.489 67.6985Z" fill="#407BFF"/>
<path opacity="0.4" d="M146.78 66.4199H136.368L136.535 67.2222H146.943L146.78 66.4199Z" fill="#407BFF"/>
<path opacity="0.4" d="M146.759 72.804H137.695L137.862 73.602H146.926L146.759 72.804Z" fill="#407BFF"/>
<path opacity="0.4" d="M140.067 71.5256H137.43L137.597 72.3279H140.23L140.067 71.5256Z" fill="#407BFF"/>
<path opacity="0.4" d="M144.19 71.5256H140.427L140.594 72.3279H144.357L144.19 71.5256Z" fill="#407BFF"/>
<path opacity="0.4" d="M147.577 70.2512H137.164L137.331 71.0492H147.744L147.577 70.2512Z" fill="#407BFF"/>
<path opacity="0.4" d="M155.776 70.0367H152.047L151.88 69.2344H155.613L155.776 70.0367Z" fill="#407BFF"/>
<path opacity="0.4" d="M161.984 70.0367H156.238L156.071 69.2344H161.817L161.984 70.0367Z" fill="#407BFF"/>
<path opacity="0.4" d="M164.425 71.3152H152.312L152.145 70.5129H164.258L164.425 71.3152Z" fill="#407BFF"/>
<path opacity="0.4" d="M162.815 72.5894H152.578L152.411 71.7871H162.648L162.815 72.5894Z" fill="#407BFF"/>
<path opacity="0.4" d="M167.4 64.9614H155.802L155.969 65.7594H167.567L167.4 64.9614Z" fill="#407BFF"/>
<path opacity="0.4" d="M165.148 63.6829H155.536L155.703 64.4852H165.311L165.148 63.6829Z" fill="#407BFF"/>
<path d="M163.41 62.4087H152.826L152.993 63.2067H163.577L163.41 62.4087Z" fill="#407BFF"/>
<path opacity="0.4" d="M167.923 77.6951H153.639L153.806 78.4974H168.09L167.923 77.6951Z" fill="#407BFF"/>
<path opacity="0.4" d="M159.291 76.4207H153.374L153.541 77.2187H159.458L159.291 76.4207Z" fill="#407BFF"/>
<path opacity="0.4" d="M165.713 76.4207H159.796L159.963 77.2187H165.88L165.713 76.4207Z" fill="#407BFF"/>
<path opacity="0.4" d="M166.142 75.1423H153.109L153.276 75.9446H166.309L166.142 75.1423Z" fill="#407BFF"/>
<path opacity="0.4" d="M165.782 81.522H154.436L154.603 82.3243H165.949L165.782 81.522Z" fill="#407BFF"/>
<path opacity="0.4" d="M157.471 80.2478H154.17L154.337 81.0501H157.638L157.471 80.2478Z" fill="#407BFF"/>
<path opacity="0.4" d="M162.635 80.2478H157.925L158.092 81.0501H162.802L162.635 80.2478Z" fill="#407BFF"/>
<path opacity="0.4" d="M166.942 78.9692H153.905L154.072 79.7715H167.105L166.942 78.9692Z" fill="#407BFF"/>
<path opacity="0.4" d="M132.228 82.5129H123.348L123.515 83.3152H132.395L132.228 82.5129Z" fill="#407BFF"/>
<path opacity="0.4" d="M129.603 81.2388H123.082L123.249 82.0368H129.766L129.603 81.2388Z" fill="#407BFF"/>
<path opacity="0.4" d="M136.578 81.2388H130.061L130.228 82.0368H136.749L136.578 81.2388Z" fill="#407BFF"/>
<path opacity="0.4" d="M135.854 79.9602H122.817L122.984 80.7625H136.017L135.854 79.9602Z" fill="#407BFF"/>
<path d="M235.562 106.483H230.065L230.707 114.819H234.92L235.562 106.483Z" fill="#407BFF"/>
<path opacity="0.4" d="M235.562 106.483H230.065L230.707 114.819H234.92L235.562 106.483Z" fill="white"/>
<path d="M115.757 100.695H123.66L120.963 114.819H113.059L115.757 100.695Z" fill="#263238"/>
<path d="M125.822 96.9114H114.66L117.786 114.819H128.948L125.822 96.9114Z" fill="#407BFF"/>
<path d="M114.001 96.9114H114.66L117.786 114.819H117.127L114.001 96.9114Z" fill="#407BFF"/>
<path opacity="0.3" d="M114.001 96.9114H114.66L117.786 114.819H117.127L114.001 96.9114Z" fill="black"/>
<path d="M119.392 112.901L116.934 98.825H124.221L126.674 112.901H119.392Z" fill="white"/>
<path opacity="0.6" d="M126.328 112.901L123.874 98.825H124.221L126.674 112.901H126.328Z" fill="#407BFF"/>
<path d="M181.473 74.3457C181.631 74.6901 181.58 75.056 181.353 75.1593C181.126 75.2626 180.817 75.0689 180.659 74.7288C180.5 74.3887 180.556 74.0185 180.779 73.9152C181.001 73.8118 181.314 73.984 181.473 74.3457Z" fill="#263238"/>
<path d="M181.61 75.0259C181.61 75.0259 181.747 77.3765 181.327 78.7369C182.184 79.0253 183.11 78.3064 183.11 78.3064L181.61 75.0259Z" fill="#FF5652"/>
<path d="M181.516 71.5002C181.479 71.5304 181.434 71.5485 181.387 71.5518C180.821 71.5669 180.297 71.8534 179.977 72.3224C179.939 72.3946 179.864 72.4399 179.783 72.4408C179.702 72.4417 179.626 72.3979 179.586 72.3267C179.546 72.2554 179.548 72.168 179.591 72.0986C179.985 71.4978 180.646 71.1268 181.361 71.1041C181.458 71.0988 181.546 71.156 181.581 71.2461C181.616 71.3361 181.59 71.4386 181.516 71.5002Z" fill="#263238"/>
<path d="M194.094 73.812C195.419 78.4185 196.897 81.9917 198.701 84.0323C198.701 84.0323 198.736 87.6529 192.594 89.3749C185.84 91.2691 188.429 86.9124 188.429 86.9124C191.857 84.9966 191.531 82.1036 188.951 81.0015L194.094 73.812Z" fill="#FF8B7B"/>
<path d="M200.133 83.1496C200.013 81.4663 199.854 79.5462 198.821 79.4946C197.681 79.4429 191.081 82.4048 189.671 84.4928C188.261 86.5807 191.017 88.6256 191.017 88.6256L200.133 83.1496Z" fill="#263238"/>
<path d="M186.624 109.217L180.924 109.028L181.027 113.823C181.027 113.823 185.999 113.307 186.217 111.994L186.624 109.217Z" fill="#FF8B7B"/>
<path d="M177.911 111.382L177.311 113.836L181.027 113.828L180.924 109.032L177.911 111.382Z" fill="#FF8B7B"/>
<path d="M209.501 89.2887L209.381 90.52C209.343 90.9161 209.291 91.3035 209.24 91.6953C209.141 92.4745 209.017 93.2537 208.884 94.0286C208.627 95.5828 208.293 97.1283 207.907 98.6824C207.515 100.266 207.04 101.828 206.484 103.362C206.189 104.15 205.88 104.938 205.511 105.738C205.14 106.578 204.71 107.391 204.226 108.171C204.11 108.373 203.964 108.601 203.823 108.791C203.681 108.98 203.544 109.221 203.394 109.419C203.244 109.617 203.086 109.85 202.889 110.052L202.61 110.371C202.51 110.488 202.404 110.6 202.293 110.707C201.434 111.552 200.427 112.23 199.323 112.708C197.629 113.438 195.831 113.896 193.996 114.065C193.16 114.164 192.333 114.202 191.523 114.224C190.713 114.245 189.903 114.224 189.106 114.181C188.309 114.138 187.52 114.069 186.736 113.974C185.951 113.879 185.189 113.755 184.357 113.587L184.494 109.088C187.231 108.607 189.936 107.96 192.594 107.151C193.186 106.957 193.766 106.733 194.334 106.479C194.818 106.274 195.28 106.022 195.714 105.726C195.967 105.573 196.181 105.364 196.34 105.114L196.464 104.916C196.522 104.832 196.575 104.744 196.623 104.654C196.684 104.555 196.74 104.453 196.79 104.348C196.846 104.236 196.906 104.133 196.961 104.008C197.465 102.904 197.879 101.761 198.2 100.59C198.551 99.3239 198.881 98.0065 199.147 96.6418C199.413 95.2771 199.67 93.8995 199.906 92.5089L200.231 90.4167L200.527 88.3804L209.501 89.2887Z" fill="#407BFF"/>
<path opacity="0.2" d="M209.501 89.2887L209.381 90.52C209.343 90.9161 209.291 91.3035 209.24 91.6953C209.141 92.4745 209.017 93.2537 208.884 94.0286C208.627 95.5828 208.293 97.1283 207.907 98.6824C207.515 100.266 207.04 101.828 206.484 103.362C206.189 104.15 205.88 104.938 205.511 105.738C205.14 106.578 204.71 107.391 204.226 108.171C204.11 108.373 203.964 108.601 203.823 108.791C203.681 108.98 203.544 109.221 203.394 109.419C203.244 109.617 203.086 109.85 202.889 110.052L202.61 110.371C202.51 110.488 202.404 110.6 202.293 110.707C201.434 111.552 200.427 112.23 199.323 112.708C197.629 113.438 195.831 113.896 193.996 114.065C193.16 114.164 192.333 114.202 191.523 114.224C190.713 114.245 189.903 114.224 189.106 114.181C188.309 114.138 187.52 114.069 186.736 113.974C185.951 113.879 185.189 113.755 184.357 113.587L184.494 109.088C187.231 108.607 189.936 107.96 192.594 107.151C193.186 106.957 193.766 106.733 194.334 106.479C194.818 106.274 195.28 106.022 195.714 105.726C195.967 105.573 196.181 105.364 196.34 105.114L196.464 104.916C196.522 104.832 196.575 104.744 196.623 104.654C196.684 104.555 196.74 104.453 196.79 104.348C196.846 104.236 196.906 104.133 196.961 104.008C197.465 102.904 197.879 101.761 198.2 100.59C198.551 99.3239 198.881 98.0065 199.147 96.6418C199.413 95.2771 199.67 93.8995 199.906 92.5089L200.231 90.4167L200.527 88.3804L209.501 89.2887Z" fill="black"/>
<path d="M184.194 95.0101C186.319 104.214 187.515 113.609 187.764 123.053H212.857C212.994 119.941 212.471 102.389 209.947 89.7105C209.494 87.3906 208.13 85.352 206.162 84.0556C204.194 82.7593 201.789 82.3147 199.49 82.8224L199.37 82.8525C196.237 83.5672 191.741 84.7209 189.084 85.7326L188.977 85.7757C185.301 87.2113 183.255 91.1623 184.194 95.0101Z" fill="#407BFF"/>
<path opacity="0.2" d="M185.827 103.061C186.024 104.271 186.226 105.553 186.41 106.897C188.463 104.744 189.114 98.1487 189.114 98.1487L185.827 103.061Z" fill="black"/>
<path d="M164.981 109.531L159.286 108.997L159.097 113.789C161.016 114.321 163.07 113.739 164.429 112.278L164.981 109.531Z" fill="#FF8B7B"/>
<path d="M156.577 110.409L154.751 113.703L159.114 113.789L159.303 108.997L156.577 110.409Z" fill="#FF8B7B"/>
<path d="M193.61 92.8017C193.216 93.5551 192.864 94.2223 192.47 94.9112C192.076 95.6 191.699 96.2716 191.291 96.9389C190.486 98.282 189.65 99.5994 188.767 100.904C186.995 103.575 185.031 106.113 182.891 108.498C181.746 109.782 180.5 110.972 179.167 112.058C179 112.2 178.803 112.338 178.619 112.489C178.434 112.639 178.271 112.76 177.997 112.919C177.723 113.079 177.491 113.238 177.243 113.376C176.994 113.513 176.737 113.638 176.484 113.75C175.539 114.162 174.55 114.464 173.536 114.65C171.762 114.95 169.955 114.991 168.17 114.771C167.334 114.674 166.504 114.531 165.684 114.34C165.276 114.245 164.873 114.138 164.476 114.017C164.047 113.897 163.7 113.763 163.241 113.587L163.949 109.144C166.64 108.778 169.55 108.309 171.556 107.396C172.001 107.212 172.42 106.97 172.803 106.677C172.957 106.57 173.1 106.449 173.231 106.315C173.261 106.277 173.394 106.16 173.493 106.066C173.591 105.971 173.707 105.881 173.814 105.769C174.732 104.855 175.591 103.885 176.386 102.863C178.111 100.627 179.723 98.3047 181.216 95.9056C181.987 94.6873 182.737 93.4474 183.487 92.2033L184.593 90.3349L185.66 88.4966L193.61 92.8017Z" fill="#407BFF"/>
<path d="M186.723 182.662H182.034L179.673 171.748H184.366L186.723 182.662Z" fill="#FF8B7B"/>
<path d="M181.773 181.654H187.044C187.232 181.661 187.394 181.79 187.443 181.973L188.369 186.166C188.413 186.372 188.361 186.588 188.228 186.751C188.094 186.914 187.893 187.006 187.683 187.001C185.844 186.971 184.949 186.863 182.63 186.863C181.203 186.863 179.373 187.01 177.406 187.01C175.439 187.01 175.177 185.055 175.983 184.879C179.6 184.082 179.84 182.989 181.01 181.943C181.22 181.755 181.492 181.652 181.773 181.654Z" fill="#263238"/>
<g opacity="0.2">
<path d="M184.37 171.753H179.673L180.984 177.797L185.587 177.379L184.37 171.753Z" fill="black"/>
</g>
<path d="M192.59 68.2756C194.304 72.6323 195.496 75.0992 194.364 78.2634C192.65 83.0205 186.569 83.5027 183.611 79.74C180.954 76.3519 178.631 69.7953 181.987 66.1919C183.481 64.5677 185.707 63.8372 187.867 64.2618C190.028 64.6864 191.815 66.2054 192.59 68.2756Z" fill="#FF8B7B"/>
<path d="M184.353 74.8021C183.65 75.7492 183.11 76.4682 183.11 76.4682C183.11 76.4682 181.666 72.8648 182.219 71.2116C181.516 69.8125 180.097 71.8746 179.561 69.1495C179.026 66.4244 181.344 63.4969 182.219 62.8899C182.309 63.2075 182.349 63.5371 182.339 63.8672C184.701 61.9413 187.704 60.9888 190.739 61.2023C190.485 61.5813 190.323 62.0148 190.267 62.468C190.267 62.468 195.354 63.329 196.511 66.2221C196.102 66.0258 195.67 65.8812 195.226 65.7915C196.158 67.1347 196.528 68.7923 196.254 70.4066C195.885 72.7608 195.693 75.1397 195.68 77.5229C195.727 78.7455 192.389 81.0832 190.353 78.5863C188.317 76.0893 184.353 74.8021 184.353 74.8021Z" fill="#263238"/>
<path d="M186.474 73.8636C186.74 74.8784 186.664 75.9528 186.26 76.9202C185.716 78.2117 184.597 77.9017 184.044 76.7738C183.543 75.7621 183.221 73.8851 184.109 72.9853C184.996 72.0856 186.14 72.6452 186.474 73.8636Z" fill="#FF8B7B"/>
<path d="M195.286 123.036C195.286 123.036 173.497 130.975 172.859 141.475C171.676 160.818 179.549 176.131 179.549 176.131L186.766 175.356C186.766 175.356 185.48 169.131 184.524 151.609C183.32 129.589 220.524 152.126 212.861 123.036H195.286Z" fill="#407BFF"/>
<path opacity="0.5" d="M195.286 123.036C195.286 123.036 173.497 130.975 172.859 141.475C171.676 160.818 179.549 176.131 179.549 176.131L186.766 175.356C186.766 175.356 185.48 169.131 184.524 151.609C183.32 129.589 220.524 152.126 212.861 123.036H195.286Z" fill="white"/>
<path d="M177.551 173.462C177.517 173.462 178.7 176.682 178.7 176.682L187.7 175.795L187.25 172.868L177.551 173.462Z" fill="#407BFF"/>
<path d="M166.456 183.2H161.763L160.391 172.282H165.084L166.456 183.2Z" fill="#FF8B7B"/>
<path d="M161.729 181.65H166.871C167.063 181.648 167.229 181.781 167.27 181.969L168.204 186.157C168.26 186.365 168.214 186.587 168.082 186.757C167.95 186.926 167.746 187.023 167.531 187.018C165.684 186.988 163.01 186.885 160.674 186.889C157.957 186.889 157.439 187.04 154.246 187.044C152.317 187.044 151.781 185.094 152.587 184.892C156.256 184.082 157.43 183.992 160.597 182.024C160.931 181.795 161.324 181.665 161.729 181.65Z" fill="#263238"/>
<path opacity="0.2" d="M160.396 172.286L161.141 178.232L165.796 177.913L165.089 172.286H160.396Z" fill="black"/>
<path d="M187.764 123.036C187.764 123.036 152.064 126.218 152.45 144.23C152.849 162.966 159.817 175.601 159.817 175.601H166.786C166.786 175.601 165.466 165.881 165.701 147.438C165.77 141.914 176.887 140.089 187.739 139.443C197.116 138.883 205.893 133.515 209.536 124.806L210.286 123.036H187.764Z" fill="#407BFF"/>
<path opacity="0.5" d="M187.764 123.036C187.764 123.036 152.064 126.218 152.45 144.23C152.849 162.966 159.817 175.601 159.817 175.601H166.786C166.786 175.601 165.466 165.881 165.701 147.438C165.77 141.914 176.887 140.089 187.739 139.443C197.116 138.883 205.893 133.515 209.536 124.806L210.286 123.036H187.764Z" fill="white"/>
<path d="M158.184 173.72C158.154 173.72 159.38 176.957 159.38 176.957L167.797 176.35L167.304 173.423L158.184 173.72Z" fill="#407BFF"/>
<path d="M197.137 102.794L192.607 120.328C191.449 124.821 190.864 129.443 190.867 134.083V142.233C190.867 144.29 192.376 145.961 194.24 145.961H217.46C219.324 145.961 220.833 144.29 220.833 142.233V134.083C220.831 129.442 221.417 124.82 222.577 120.328L226.576 104.83C227.193 102.449 225.573 100.094 223.331 100.094H200.377C198.81 100.144 197.475 101.256 197.137 102.794Z" fill="#263238"/>
<path d="M168.256 137.471L169.014 141.819C169.417 144.105 171.419 145.961 173.489 145.961H199.301C201.371 145.961 202.73 144.105 202.327 141.819L201.569 137.471C201.11 134.867 198.834 132.757 196.477 132.757H171.714C169.34 132.757 167.801 134.867 168.256 137.471Z" fill="#263238"/>
<path d="M201.787 150.326H188.266L186.946 145.961H203.107L201.787 150.326Z" fill="#407BFF"/>
<rect x="192.611" y="150.326" width="4.83" height="32.4646" fill="#407BFF"/>
<path opacity="0.7" d="M197.441 182.791H192.611V151.105L197.441 151.601V182.791Z" fill="white"/>
<path opacity="0.7" d="M196.263 182.791H195.11V151.359L196.263 151.48V182.791Z" fill="white"/>
<path d="M206.133 187.811H183.916C183.65 187.808 183.416 187.635 183.334 187.381C183.252 187.127 183.342 186.849 183.556 186.691L187.079 184.108C188.772 182.862 190.816 182.19 192.916 182.188H197.137C199.235 182.19 201.278 182.863 202.97 184.108L206.497 186.691C206.712 186.85 206.801 187.129 206.718 187.383C206.635 187.638 206.399 187.81 206.133 187.811Z" fill="#407BFF"/>
<path d="M80.5406 259L75.8366 242.2H79.3166L82.5326 254.656L86.0366 242.2H88.8686L92.3966 254.656L95.6126 242.2H99.0926L94.3886 259H90.6206L87.4526 247.912L84.3086 259H80.5406ZM101.555 254.272C101.987 255.856 103.307 256.528 104.939 256.528C106.139 256.528 107.099 256.024 107.627 255.328L110.123 256.768C108.995 258.4 107.195 259.336 104.891 259.336C100.859 259.336 98.3154 256.576 98.3154 253C98.3154 249.424 100.883 246.664 104.651 246.664C108.203 246.664 110.723 249.472 110.723 253C110.723 253.456 110.675 253.864 110.603 254.272H101.555ZM101.507 251.872H107.627C107.243 250.144 105.947 249.448 104.651 249.448C102.995 249.448 101.867 250.336 101.507 251.872ZM119.369 246.664C122.585 246.664 125.225 249.424 125.225 253C125.225 256.576 122.585 259.336 119.369 259.336C117.617 259.336 116.345 258.688 115.481 257.584V259H112.385V242.2H115.481V248.416C116.345 247.312 117.617 246.664 119.369 246.664ZM118.793 256.384C120.713 256.384 122.129 255.016 122.129 253C122.129 250.984 120.713 249.616 118.793 249.616C116.897 249.616 115.481 250.984 115.481 253C115.481 255.016 116.897 256.384 118.793 256.384ZM139.224 242.2C143.856 242.2 147.312 245.872 147.312 250.6C147.312 255.328 143.856 259 139.224 259H132.552V242.2H139.224ZM139.224 255.832C142.128 255.832 144.144 253.696 144.144 250.6C144.144 247.504 142.128 245.368 139.224 245.368H135.864V255.832H139.224ZM151.634 254.272C152.066 255.856 153.386 256.528 155.018 256.528C156.218 256.528 157.178 256.024 157.706 255.328L160.202 256.768C159.074 258.4 157.274 259.336 154.97 259.336C150.938 259.336 148.394 256.576 148.394 253C148.394 249.424 150.962 246.664 154.73 246.664C158.282 246.664 160.802 249.472 160.802 253C160.802 253.456 160.754 253.864 160.682 254.272H151.634ZM151.586 251.872H157.706C157.322 250.144 156.026 249.448 154.73 249.448C153.074 249.448 151.946 250.336 151.586 251.872ZM169.89 247H173.298L168.738 259H165.21L160.65 247H164.058L166.962 255.4L169.89 247ZM176.438 254.272C176.87 255.856 178.19 256.528 179.822 256.528C181.022 256.528 181.982 256.024 182.51 255.328L185.006 256.768C183.878 258.4 182.078 259.336 179.774 259.336C175.742 259.336 173.198 256.576 173.198 253C173.198 249.424 175.766 246.664 179.534 246.664C183.086 246.664 185.606 249.472 185.606 253C185.606 253.456 185.558 253.864 185.486 254.272H176.438ZM176.39 251.872H182.51C182.126 250.144 180.83 249.448 179.534 249.448C177.878 249.448 176.75 250.336 176.39 251.872ZM187.268 259V241.48H190.364V259H187.268ZM198.409 259.336C194.881 259.336 192.073 256.576 192.073 253C192.073 249.424 194.881 246.664 198.409 246.664C201.937 246.664 204.769 249.424 204.769 253C204.769 256.576 201.937 259.336 198.409 259.336ZM198.409 256.312C200.257 256.312 201.673 254.944 201.673 253C201.673 251.056 200.257 249.688 198.409 249.688C196.585 249.688 195.169 251.056 195.169 253C195.169 254.944 196.585 256.312 198.409 256.312ZM213.431 246.664C216.647 246.664 219.287 249.424 219.287 253C219.287 256.576 216.647 259.336 213.431 259.336C211.679 259.336 210.407 258.688 209.543 257.584V263.8H206.447V247H209.543V248.416C210.407 247.312 211.679 246.664 213.431 246.664ZM212.855 256.384C214.775 256.384 216.191 255.016 216.191 253C216.191 250.984 214.775 249.616 212.855 249.616C210.959 249.616 209.543 250.984 209.543 253C209.543 255.016 210.959 256.384 212.855 256.384ZM234.243 246.664C236.979 246.664 238.779 248.608 238.779 251.608V259H235.683V251.824C235.683 250.408 234.963 249.544 233.667 249.544C232.299 249.544 231.435 250.456 231.435 252.256V259H228.339V251.824C228.339 250.408 227.619 249.544 226.323 249.544C225.003 249.544 224.067 250.456 224.067 252.256V259H220.971V247H224.067V248.272C224.739 247.264 225.867 246.664 227.403 246.664C228.891 246.664 229.995 247.288 230.667 248.392C231.411 247.312 232.611 246.664 234.243 246.664ZM243.524 254.272C243.956 255.856 245.276 256.528 246.908 256.528C248.108 256.528 249.068 256.024 249.596 255.328L252.092 256.768C250.964 258.4 249.164 259.336 246.86 259.336C242.828 259.336 240.284 256.576 240.284 253C240.284 249.424 242.852 246.664 246.62 246.664C250.172 246.664 252.692 249.472 252.692 253C252.692 253.456 252.644 253.864 252.572 254.272H243.524ZM243.476 251.872H249.596C249.212 250.144 247.916 249.448 246.62 249.448C244.964 249.448 243.836 250.336 243.476 251.872ZM261.026 246.664C263.57 246.664 265.562 248.44 265.562 251.632V259H262.466V252.016C262.466 250.384 261.482 249.544 260.09 249.544C258.578 249.544 257.45 250.432 257.45 252.52V259H254.354V247H257.45V248.344C258.17 247.264 259.418 246.664 261.026 246.664ZM274.569 249.976H271.857V254.968C271.857 256.264 272.793 256.288 274.569 256.192V259C270.225 259.48 268.761 258.208 268.761 254.968V249.976H266.673V247H268.761V244.576L271.857 243.64V247H274.569V249.976Z" fill="white"/>
<path opacity="0.65" d="M47.503 303L44.052 291.1H45.31L48.251 301.385L51.345 291.1H52.739L55.833 301.385L58.774 291.1H60.032L56.581 303H55.153L52.042 292.664L48.931 303H47.503ZM61.761 292.698C61.302 292.698 60.945 292.324 60.945 291.882C60.945 291.44 61.302 291.066 61.761 291.066C62.22 291.066 62.577 291.44 62.577 291.882C62.577 292.324 62.22 292.698 61.761 292.698ZM61.2 303V294.5H62.322V303H61.2ZM69.0079 295.588H66.5599V300.739C66.5599 302.201 67.3589 302.082 69.0079 302.014V303C66.7129 303.34 65.4379 302.779 65.4379 300.739V295.588H63.6529V294.5H65.4379V292.46L66.5599 292.12V294.5H69.0079V295.588ZM74.6559 294.296C76.7299 294.296 77.9879 295.656 77.9879 297.781V303H76.8659V297.781C76.8659 296.268 76.0329 295.384 74.5539 295.384C73.0579 295.384 71.7999 296.268 71.7999 298.546V303H70.6779V291.1H71.7999V295.826C72.4629 294.755 73.4489 294.296 74.6559 294.296ZM84.0074 303V290.59H85.1294V303H84.0074ZM91.2713 303.204C88.7893 303.204 86.8003 301.266 86.8003 298.75C86.8003 296.234 88.7893 294.296 91.2713 294.296C93.7533 294.296 95.7423 296.234 95.7423 298.75C95.7423 301.266 93.7533 303.204 91.2713 303.204ZM91.2713 302.116C93.1583 302.116 94.6203 300.637 94.6203 298.75C94.6203 296.863 93.1583 295.384 91.2713 295.384C89.3843 295.384 87.9223 296.863 87.9223 298.75C87.9223 300.637 89.3843 302.116 91.2713 302.116ZM101.759 295.588H99.3109V300.739C99.3109 302.201 100.11 302.082 101.759 302.014V303C99.4639 303.34 98.1889 302.779 98.1889 300.739V295.588H96.4039V294.5H98.1889V292.46L99.3109 292.12V294.5H101.759V295.588ZM103.798 296.727C103.798 298.835 108.762 297.628 108.762 300.756C108.762 302.201 107.504 303.204 105.685 303.204C103.985 303.204 102.829 302.337 102.404 301.249L103.356 300.688C103.662 301.555 104.546 302.116 105.685 302.116C106.688 302.116 107.64 301.759 107.64 300.756C107.64 298.648 102.676 299.855 102.676 296.727C102.676 295.367 103.883 294.296 105.583 294.296C106.977 294.296 108.065 294.976 108.558 296.03L107.623 296.574C107.266 295.707 106.399 295.384 105.583 295.384C104.699 295.384 103.798 295.809 103.798 296.727ZM118.445 303.204C115.963 303.204 113.974 301.266 113.974 298.75C113.974 296.234 115.963 294.296 118.445 294.296C120.927 294.296 122.916 296.234 122.916 298.75C122.916 301.266 120.927 303.204 118.445 303.204ZM118.445 302.116C120.332 302.116 121.794 300.637 121.794 298.75C121.794 296.863 120.332 295.384 118.445 295.384C116.558 295.384 115.096 296.863 115.096 298.75C115.096 300.637 116.558 302.116 118.445 302.116ZM128.511 291.984C126.862 291.848 126.063 292.528 126.063 294.16V294.5H128.511V295.588H126.063V303H124.941V295.588H123.496V294.5H124.941V294.16C124.941 291.95 126.216 290.726 128.511 290.896V291.984ZM139.541 294.5H140.663V303H139.541V301.674C138.878 302.745 137.892 303.204 136.685 303.204C134.611 303.204 133.353 301.844 133.353 299.719V294.5H134.475V299.719C134.475 301.232 135.308 302.116 136.787 302.116C138.283 302.116 139.541 301.232 139.541 298.954V294.5ZM146.814 294.296C148.888 294.296 150.146 295.656 150.146 297.781V303H149.024V297.781C149.024 296.268 148.191 295.384 146.712 295.384C145.216 295.384 143.958 296.268 143.958 298.546V303H142.836V294.5H143.958V295.826C144.621 294.755 145.607 294.296 146.814 294.296ZM152.677 292.698C152.218 292.698 151.861 292.324 151.861 291.882C151.861 291.44 152.218 291.066 152.677 291.066C153.136 291.066 153.493 291.44 153.493 291.882C153.493 292.324 153.136 292.698 152.677 292.698ZM152.116 303V294.5H153.238V303H152.116ZM162.729 294.5H163.851V306.4H162.729V301.334C162.015 302.473 160.808 303.204 159.295 303.204C156.898 303.204 154.909 301.266 154.909 298.75C154.909 296.234 156.898 294.296 159.295 294.296C160.808 294.296 162.015 295.027 162.729 296.166V294.5ZM159.38 302.116C161.267 302.116 162.729 300.637 162.729 298.75C162.729 296.863 161.267 295.384 159.38 295.384C157.493 295.384 156.031 296.863 156.031 298.75C156.031 300.637 157.493 302.116 159.38 302.116ZM172.01 294.5H173.132V303H172.01V301.674C171.347 302.745 170.361 303.204 169.154 303.204C167.08 303.204 165.822 301.844 165.822 299.719V294.5H166.944V299.719C166.944 301.232 167.777 302.116 169.256 302.116C170.752 302.116 172.01 301.232 172.01 298.954V294.5ZM179.233 294.296C181.834 294.296 183.449 296.455 183.449 298.784C183.449 298.954 183.432 299.141 183.415 299.311H175.952C176.19 301.045 177.533 302.116 179.335 302.116C180.678 302.116 181.613 301.487 182.072 300.671L183.058 301.249C182.344 302.405 181.035 303.204 179.318 303.204C176.632 303.204 174.796 301.317 174.796 298.75C174.796 296.251 176.598 294.296 179.233 294.296ZM179.233 295.384C177.448 295.384 176.173 296.557 175.952 298.223H182.293C182.055 296.353 180.695 295.384 179.233 295.384ZM193.64 294.296C196.037 294.296 198.026 296.234 198.026 298.75C198.026 301.266 196.037 303.204 193.64 303.204C192.127 303.204 190.92 302.473 190.206 301.334V303H189.084V291.1H190.206V296.166C190.92 295.027 192.127 294.296 193.64 294.296ZM193.555 302.116C195.442 302.116 196.904 300.637 196.904 298.75C196.904 296.863 195.442 295.384 193.555 295.384C191.668 295.384 190.206 296.863 190.206 298.75C190.206 300.637 191.668 302.116 193.555 302.116ZM199.691 303V290.59H200.813V303H199.691ZM206.955 303.204C204.473 303.204 202.484 301.266 202.484 298.75C202.484 296.234 204.473 294.296 206.955 294.296C209.437 294.296 211.426 296.234 211.426 298.75C211.426 301.266 209.437 303.204 206.955 303.204ZM206.955 302.116C208.842 302.116 210.304 300.637 210.304 298.75C210.304 296.863 208.842 295.384 206.955 295.384C205.068 295.384 203.606 296.863 203.606 298.75C203.606 300.637 205.068 302.116 206.955 302.116ZM217.065 303.204C214.498 303.204 212.594 301.266 212.594 298.75C212.594 296.234 214.498 294.296 217.065 294.296C218.748 294.296 220.176 295.18 220.788 296.523L219.87 297.05C219.411 296.047 218.34 295.384 217.065 295.384C215.178 295.384 213.716 296.863 213.716 298.75C213.716 300.637 215.178 302.116 217.065 302.116C218.357 302.116 219.394 301.436 219.938 300.45L220.873 300.994C220.176 302.337 218.731 303.204 217.065 303.204ZM229.152 303H227.656L223.406 298.903V303H222.284V291.1H223.406V298.257L227.452 294.5H228.982L224.596 298.58L229.152 303ZM230.687 296.727C230.687 298.835 235.651 297.628 235.651 300.756C235.651 302.201 234.393 303.204 232.574 303.204C230.874 303.204 229.718 302.337 229.293 301.249L230.245 300.688C230.551 301.555 231.435 302.116 232.574 302.116C233.577 302.116 234.529 301.759 234.529 300.756C234.529 298.648 229.565 299.855 229.565 296.727C229.565 295.367 230.772 294.296 232.472 294.296C233.866 294.296 234.954 294.976 235.447 296.03L234.512 296.574C234.155 295.707 233.288 295.384 232.472 295.384C231.588 295.384 230.687 295.809 230.687 296.727ZM239.027 301.555L238.007 305.38H236.987L237.667 301.555H239.027ZM251.211 294.5H252.401L248.763 303.782C248.117 305.414 246.859 306.519 245.329 306.4V305.346C246.434 305.465 247.199 304.683 247.658 303.578L247.879 303.051L244.071 294.5H245.261L248.457 301.623L251.211 294.5ZM257.186 303.204C254.704 303.204 252.715 301.266 252.715 298.75C252.715 296.234 254.704 294.296 257.186 294.296C259.668 294.296 261.657 296.234 261.657 298.75C261.657 301.266 259.668 303.204 257.186 303.204ZM257.186 302.116C259.073 302.116 260.535 300.637 260.535 298.75C260.535 296.863 259.073 295.384 257.186 295.384C255.299 295.384 253.837 296.863 253.837 298.75C253.837 300.637 255.299 302.116 257.186 302.116ZM269.319 294.5H270.441V303H269.319V301.674C268.656 302.745 267.67 303.204 266.463 303.204C264.389 303.204 263.131 301.844 263.131 299.719V294.5H264.253V299.719C264.253 301.232 265.086 302.116 266.565 302.116C268.061 302.116 269.319 301.232 269.319 298.954V294.5ZM280.625 303.204C278.058 303.204 276.154 301.266 276.154 298.75C276.154 296.234 278.058 294.296 280.625 294.296C282.308 294.296 283.736 295.18 284.348 296.523L283.43 297.05C282.971 296.047 281.9 295.384 280.625 295.384C278.738 295.384 277.276 296.863 277.276 298.75C277.276 300.637 278.738 302.116 280.625 302.116C281.917 302.116 282.954 301.436 283.498 300.45L284.433 300.994C283.736 302.337 282.291 303.204 280.625 303.204ZM293.071 294.5H294.193V303H293.071V301.334C292.357 302.473 291.15 303.204 289.637 303.204C287.24 303.204 285.251 301.266 285.251 298.75C285.251 296.234 287.24 294.296 289.637 294.296C291.15 294.296 292.357 295.027 293.071 296.166V294.5ZM289.722 302.116C291.609 302.116 293.071 300.637 293.071 298.75C293.071 296.863 291.609 295.384 289.722 295.384C287.835 295.384 286.373 296.863 286.373 298.75C286.373 300.637 287.835 302.116 289.722 302.116ZM300.347 294.296C302.421 294.296 303.679 295.656 303.679 297.781V303H302.557V297.781C302.557 296.268 301.724 295.384 300.245 295.384C298.749 295.384 297.491 296.268 297.491 298.546V303H296.369V294.5H297.491V295.826C298.154 294.755 299.14 294.296 300.347 294.296ZM45.9778 323.296C48.5788 323.296 50.1938 325.455 50.1938 327.784C50.1938 327.954 50.1768 328.141 50.1598 328.311H42.6968C42.9348 330.045 44.2778 331.116 46.0798 331.116C47.4228 331.116 48.3578 330.487 48.8168 329.671L49.8028 330.249C49.0888 331.405 47.7798 332.204 46.0628 332.204C43.3768 332.204 41.5408 330.317 41.5408 327.75C41.5408 325.251 43.3428 323.296 45.9778 323.296ZM45.9778 324.384C44.1928 324.384 42.9178 325.557 42.6968 327.223H49.0378C48.7998 325.353 47.4398 324.384 45.9778 324.384ZM59.0886 323.5H60.2106V332H59.0886V330.334C58.3746 331.473 57.1676 332.204 55.6546 332.204C53.2576 332.204 51.2686 330.266 51.2686 327.75C51.2686 325.234 53.2576 323.296 55.6546 323.296C57.1676 323.296 58.3746 324.027 59.0886 325.166V323.5ZM55.7396 331.116C57.6266 331.116 59.0886 329.637 59.0886 327.75C59.0886 325.863 57.6266 324.384 55.7396 324.384C53.8526 324.384 52.3906 325.863 52.3906 327.75C52.3906 329.637 53.8526 331.116 55.7396 331.116ZM63.2702 325.727C63.2702 327.835 68.2342 326.628 68.2342 329.756C68.2342 331.201 66.9762 332.204 65.1572 332.204C63.4572 332.204 62.3012 331.337 61.8762 330.249L62.8282 329.688C63.1342 330.555 64.0182 331.116 65.1572 331.116C66.1602 331.116 67.1122 330.759 67.1122 329.756C67.1122 327.648 62.1482 328.855 62.1482 325.727C62.1482 324.367 63.3552 323.296 65.0552 323.296C66.4492 323.296 67.5372 323.976 68.0302 325.03L67.0952 325.574C66.7382 324.707 65.8712 324.384 65.0552 324.384C64.1712 324.384 63.2702 324.809 63.2702 325.727ZM70.3839 321.698C69.9249 321.698 69.5679 321.324 69.5679 320.882C69.5679 320.44 69.9249 320.066 70.3839 320.066C70.8429 320.066 71.1999 320.44 71.1999 320.882C71.1999 321.324 70.8429 321.698 70.3839 321.698ZM69.8229 332V323.5H70.9449V332H69.8229ZM73.1258 332V319.59H74.2478V332H73.1258ZM82.5488 323.5H83.7388L80.1008 332.782C79.4548 334.414 78.1968 335.519 76.6668 335.4V334.346C77.7718 334.465 78.5368 333.683 78.9958 332.578L79.2168 332.051L75.4088 323.5H76.5988L79.7948 330.623L82.5488 323.5ZM93.5008 323.296C95.8978 323.296 97.8868 325.234 97.8868 327.75C97.8868 330.266 95.8978 332.204 93.5008 332.204C91.9878 332.204 90.7808 331.473 90.0668 330.334V332H88.9448V320.1H90.0668V325.166C90.7808 324.027 91.9878 323.296 93.5008 323.296ZM93.4158 331.116C95.3028 331.116 96.7648 329.637 96.7648 327.75C96.7648 325.863 95.3028 324.384 93.4158 324.384C91.5288 324.384 90.0668 325.863 90.0668 327.75C90.0668 329.637 91.5288 331.116 93.4158 331.116ZM105.536 323.5H106.658V332H105.536V330.674C104.873 331.745 103.887 332.204 102.68 332.204C100.606 332.204 99.3484 330.844 99.3484 328.719V323.5H100.47V328.719C100.47 330.232 101.303 331.116 102.782 331.116C104.278 331.116 105.536 330.232 105.536 327.954V323.5ZM109.393 321.698C108.934 321.698 108.577 321.324 108.577 320.882C108.577 320.44 108.934 320.066 109.393 320.066C109.852 320.066 110.209 320.44 110.209 320.882C110.209 321.324 109.852 321.698 109.393 321.698ZM108.832 332V323.5H109.954V332H108.832ZM112.135 332V319.59H113.257V332H112.135ZM122.748 320.1H123.87V332H122.748V330.334C122.034 331.473 120.827 332.204 119.314 332.204C116.917 332.204 114.928 330.266 114.928 327.75C114.928 325.234 116.917 323.296 119.314 323.296C120.827 323.296 122.034 324.027 122.748 325.166V320.1ZM119.399 331.116C121.286 331.116 122.748 329.637 122.748 327.75C122.748 325.863 121.286 324.384 119.399 324.384C117.512 324.384 116.05 325.863 116.05 327.75C116.05 329.637 117.512 331.116 119.399 331.116ZM137.405 323.5H138.527V332H137.405V330.334C136.691 331.473 135.484 332.204 133.971 332.204C131.574 332.204 129.585 330.266 129.585 327.75C129.585 325.234 131.574 323.296 133.971 323.296C135.484 323.296 136.691 324.027 137.405 325.166V323.5ZM134.056 331.116C135.943 331.116 137.405 329.637 137.405 327.75C137.405 325.863 135.943 324.384 134.056 324.384C132.169 324.384 130.707 325.863 130.707 327.75C130.707 329.637 132.169 331.116 134.056 331.116ZM149.309 323.296C151.706 323.296 153.695 325.234 153.695 327.75C153.695 330.266 151.706 332.204 149.309 332.204C147.796 332.204 146.589 331.473 145.875 330.334V335.4H144.753V323.5H145.875V325.166C146.589 324.027 147.796 323.296 149.309 323.296ZM149.224 331.116C151.111 331.116 152.573 329.637 152.573 327.75C152.573 325.863 151.111 324.384 149.224 324.384C147.337 324.384 145.875 325.863 145.875 327.75C145.875 329.637 147.337 331.116 149.224 331.116ZM162.671 323.5H163.793V332H162.671V330.334C161.957 331.473 160.75 332.204 159.237 332.204C156.84 332.204 154.851 330.266 154.851 327.75C154.851 325.234 156.84 323.296 159.237 323.296C160.75 323.296 161.957 324.027 162.671 325.166V323.5ZM159.322 331.116C161.209 331.116 162.671 329.637 162.671 327.75C162.671 325.863 161.209 324.384 159.322 324.384C157.435 324.384 155.973 325.863 155.973 327.75C155.973 329.637 157.435 331.116 159.322 331.116ZM173.278 323.5H174.4V331.66C174.4 334.244 172.326 335.604 170.133 335.604C168.178 335.604 166.767 334.856 166.104 333.53L167.09 332.969C167.515 333.836 168.297 334.516 170.133 334.516C172.105 334.516 173.278 333.394 173.278 331.66V330.334C172.564 331.473 171.357 332.204 169.844 332.204C167.447 332.204 165.458 330.266 165.458 327.75C165.458 325.234 167.447 323.296 169.844 323.296C171.357 323.296 172.564 324.027 173.278 325.166V323.5ZM169.929 331.116C171.816 331.116 173.278 329.637 173.278 327.75C173.278 325.863 171.816 324.384 169.929 324.384C168.042 324.384 166.58 325.863 166.58 327.75C166.58 329.637 168.042 331.116 169.929 331.116ZM180.503 323.296C183.104 323.296 184.719 325.455 184.719 327.784C184.719 327.954 184.702 328.141 184.685 328.311H177.222C177.46 330.045 178.803 331.116 180.605 331.116C181.948 331.116 182.883 330.487 183.342 329.671L184.328 330.249C183.614 331.405 182.305 332.204 180.588 332.204C177.902 332.204 176.066 330.317 176.066 327.75C176.066 325.251 177.868 323.296 180.503 323.296ZM180.503 324.384C178.718 324.384 177.443 325.557 177.222 327.223H183.563C183.325 325.353 181.965 324.384 180.503 324.384ZM200.588 323.5H201.744L199.126 332H197.902L195.709 325.149L193.516 332H192.292L189.674 323.5H190.83L192.921 330.555L195.148 323.5H196.27L198.497 330.555L200.588 323.5ZM203.797 321.698C203.338 321.698 202.981 321.324 202.981 320.882C202.981 320.44 203.338 320.066 203.797 320.066C204.256 320.066 204.613 320.44 204.613 320.882C204.613 321.324 204.256 321.698 203.797 321.698ZM203.236 332V323.5H204.358V332H203.236ZM211.044 324.588H208.596V329.739C208.596 331.201 209.395 331.082 211.044 331.014V332C208.749 332.34 207.474 331.779 207.474 329.739V324.588H205.689V323.5H207.474V321.46L208.596 321.12V323.5H211.044V324.588ZM216.692 323.296C218.766 323.296 220.024 324.656 220.024 326.781V332H218.902V326.781C218.902 325.268 218.069 324.384 216.59 324.384C215.094 324.384 213.836 325.268 213.836 327.546V332H212.714V320.1H213.836V324.826C214.499 323.755 215.485 323.296 216.692 323.296ZM225.954 332.204C223.472 332.204 221.483 330.266 221.483 327.75C221.483 325.234 223.472 323.296 225.954 323.296C228.436 323.296 230.425 325.234 230.425 327.75C230.425 330.266 228.436 332.204 225.954 332.204ZM225.954 331.116C227.841 331.116 229.303 329.637 229.303 327.75C229.303 325.863 227.841 324.384 225.954 324.384C224.067 324.384 222.605 325.863 222.605 327.75C222.605 329.637 224.067 331.116 225.954 331.116ZM238.087 323.5H239.209V332H238.087V330.674C237.424 331.745 236.438 332.204 235.231 332.204C233.157 332.204 231.899 330.844 231.899 328.719V323.5H233.021V328.719C233.021 330.232 233.854 331.116 235.333 331.116C236.829 331.116 238.087 330.232 238.087 327.954V323.5ZM245.887 324.588H243.439V329.739C243.439 331.201 244.238 331.082 245.887 331.014V332C243.592 332.34 242.317 331.779 242.317 329.739V324.588H240.532V323.5H242.317V321.46L243.439 321.12V323.5H245.887V324.588ZM255.568 332.204C253.001 332.204 251.097 330.266 251.097 327.75C251.097 325.234 253.001 323.296 255.568 323.296C257.251 323.296 258.679 324.18 259.291 325.523L258.373 326.05C257.914 325.047 256.843 324.384 255.568 324.384C253.681 324.384 252.219 325.863 252.219 327.75C252.219 329.637 253.681 331.116 255.568 331.116C256.86 331.116 257.897 330.436 258.441 329.45L259.376 329.994C258.679 331.337 257.234 332.204 255.568 332.204ZM264.665 332.204C262.183 332.204 260.194 330.266 260.194 327.75C260.194 325.234 262.183 323.296 264.665 323.296C267.147 323.296 269.136 325.234 269.136 327.75C269.136 330.266 267.147 332.204 264.665 332.204ZM264.665 331.116C266.552 331.116 268.014 329.637 268.014 327.75C268.014 325.863 266.552 324.384 264.665 324.384C262.778 324.384 261.316 325.863 261.316 327.75C261.316 329.637 262.778 331.116 264.665 331.116ZM278.124 320.1H279.246V332H278.124V330.334C277.41 331.473 276.203 332.204 274.69 332.204C272.293 332.204 270.304 330.266 270.304 327.75C270.304 325.234 272.293 323.296 274.69 323.296C276.203 323.296 277.41 324.027 278.124 325.166V320.1ZM274.775 331.116C276.662 331.116 278.124 329.637 278.124 327.75C278.124 325.863 276.662 324.384 274.775 324.384C272.888 324.384 271.426 325.863 271.426 327.75C271.426 329.637 272.888 331.116 274.775 331.116ZM281.982 321.698C281.523 321.698 281.166 321.324 281.166 320.882C281.166 320.44 281.523 320.066 281.982 320.066C282.441 320.066 282.798 320.44 282.798 320.882C282.798 321.324 282.441 321.698 281.982 321.698ZM281.421 332V323.5H282.543V332H281.421ZM288.702 323.296C290.776 323.296 292.034 324.656 292.034 326.781V332H290.912V326.781C290.912 325.268 290.079 324.384 288.6 324.384C287.104 324.384 285.846 325.268 285.846 327.546V332H284.724V323.5H285.846V324.826C286.509 323.755 287.495 323.296 288.702 323.296ZM301.314 323.5H302.436V331.66C302.436 334.244 300.362 335.604 298.169 335.604C296.214 335.604 294.803 334.856 294.14 333.53L295.126 332.969C295.551 333.836 296.333 334.516 298.169 334.516C300.141 334.516 301.314 333.394 301.314 331.66V330.334C300.6 331.473 299.393 332.204 297.88 332.204C295.483 332.204 293.494 330.266 293.494 327.75C293.494 325.234 295.483 323.296 297.88 323.296C299.393 323.296 300.6 324.027 301.314 325.166V323.5ZM297.965 331.116C299.852 331.116 301.314 329.637 301.314 327.75C301.314 325.863 299.852 324.384 297.965 324.384C296.078 324.384 294.616 325.863 294.616 327.75C294.616 329.637 296.078 331.116 297.965 331.116ZM305.376 332.17C304.849 332.17 304.441 331.762 304.441 331.235C304.441 330.708 304.849 330.3 305.376 330.3C305.903 330.3 306.311 330.708 306.311 331.235C306.311 331.762 305.903 332.17 305.376 332.17ZM71.4752 354.829C72.5972 355.305 73.3792 356.359 73.3792 357.685C73.3792 359.521 71.9002 361 70.0642 361H64.8792V349.1H69.6732C71.4412 349.1 72.8692 350.545 72.8692 352.296C72.8692 353.401 72.3252 354.302 71.4752 354.829ZM69.6732 350.222H66.0692V354.37H69.6732C70.7782 354.37 71.6792 353.452 71.6792 352.296C71.6792 351.157 70.7782 350.222 69.6732 350.222ZM70.0642 359.878C71.2372 359.878 72.1892 358.909 72.1892 357.685C72.1892 356.478 71.2372 355.492 70.0642 355.492H66.0692V359.878H70.0642ZM81.2012 352.5H82.3232V361H81.2012V359.674C80.5382 360.745 79.5522 361.204 78.3452 361.204C76.2712 361.204 75.0132 359.844 75.0132 357.719V352.5H76.1352V357.719C76.1352 359.232 76.9682 360.116 78.4472 360.116C79.9432 360.116 81.2012 359.232 81.2012 356.954V352.5ZM85.0577 350.698C84.5987 350.698 84.2417 350.324 84.2417 349.882C84.2417 349.44 84.5987 349.066 85.0577 349.066C85.5167 349.066 85.8737 349.44 85.8737 349.882C85.8737 350.324 85.5167 350.698 85.0577 350.698ZM84.4967 361V352.5H85.6187V361H84.4967ZM87.7997 361V348.59H88.9217V361H87.7997ZM98.4126 349.1H99.5346V361H98.4126V359.334C97.6986 360.473 96.4916 361.204 94.9786 361.204C92.5816 361.204 90.5926 359.266 90.5926 356.75C90.5926 354.234 92.5816 352.296 94.9786 352.296C96.4916 352.296 97.6986 353.027 98.4126 354.166V349.1ZM95.0636 360.116C96.9506 360.116 98.4126 358.637 98.4126 356.75C98.4126 354.863 96.9506 353.384 95.0636 353.384C93.1766 353.384 91.7146 354.863 91.7146 356.75C91.7146 358.637 93.1766 360.116 95.0636 360.116ZM111.88 352.5H113.07L109.432 361.782C108.786 363.414 107.528 364.519 105.998 364.4V363.346C107.103 363.465 107.868 362.683 108.327 361.578L108.548 361.051L104.74 352.5H105.93L109.126 359.623L111.88 352.5ZM117.855 361.204C115.373 361.204 113.384 359.266 113.384 356.75C113.384 354.234 115.373 352.296 117.855 352.296C120.337 352.296 122.326 354.234 122.326 356.75C122.326 359.266 120.337 361.204 117.855 361.204ZM117.855 360.116C119.742 360.116 121.204 358.637 121.204 356.75C121.204 354.863 119.742 353.384 117.855 353.384C115.968 353.384 114.506 354.863 114.506 356.75C114.506 358.637 115.968 360.116 117.855 360.116ZM129.988 352.5H131.11V361H129.988V359.674C129.325 360.745 128.339 361.204 127.132 361.204C125.058 361.204 123.8 359.844 123.8 357.719V352.5H124.922V357.719C124.922 359.232 125.755 360.116 127.234 360.116C128.73 360.116 129.988 359.232 129.988 356.954V352.5ZM134.405 353.911C135 352.721 136.003 352.364 137.091 352.364V353.452C135.731 353.452 134.405 354.166 134.405 356.274V361H133.283V352.5H134.405V353.911ZM146.457 352.296C148.531 352.296 149.789 353.656 149.789 355.781V361H148.667V355.781C148.667 354.268 147.834 353.384 146.355 353.384C144.859 353.384 143.601 354.268 143.601 356.546V361H142.479V352.5H143.601V353.826C144.264 352.755 145.25 352.296 146.457 352.296ZM155.685 352.296C158.286 352.296 159.901 354.455 159.901 356.784C159.901 356.954 159.884 357.141 159.867 357.311H152.404C152.642 359.045 153.985 360.116 155.787 360.116C157.13 360.116 158.065 359.487 158.524 358.671L159.51 359.249C158.796 360.405 157.487 361.204 155.77 361.204C153.084 361.204 151.248 359.317 151.248 356.75C151.248 354.251 153.05 352.296 155.685 352.296ZM155.685 353.384C153.9 353.384 152.625 354.557 152.404 356.223H158.745C158.507 354.353 157.147 353.384 155.685 353.384ZM168.294 361H166.951L164.299 357.498L161.647 361H160.304L163.636 356.597L160.525 352.5H161.868L164.299 355.713L166.73 352.5H168.073L164.979 356.597L168.294 361ZM174.125 353.588H171.677V358.739C171.677 360.201 172.476 360.082 174.125 360.014V361C171.83 361.34 170.555 360.779 170.555 358.739V353.588H168.77V352.5H170.555V350.46L171.677 350.12V352.5H174.125V353.588ZM179.845 361V348.59H180.967V361H179.845ZM190.458 352.5H191.58V361H190.458V359.334C189.744 360.473 188.537 361.204 187.024 361.204C184.627 361.204 182.638 359.266 182.638 356.75C182.638 354.234 184.627 352.296 187.024 352.296C188.537 352.296 189.744 353.027 190.458 354.166V352.5ZM187.109 360.116C188.996 360.116 190.458 358.637 190.458 356.75C190.458 354.863 188.996 353.384 187.109 353.384C185.222 353.384 183.76 354.863 183.76 356.75C183.76 358.637 185.222 360.116 187.109 360.116ZM197.734 352.296C199.808 352.296 201.066 353.656 201.066 355.781V361H199.944V355.781C199.944 354.268 199.111 353.384 197.632 353.384C196.136 353.384 194.878 354.268 194.878 356.546V361H193.756V352.5H194.878V353.826C195.541 352.755 196.527 352.296 197.734 352.296ZM210.345 349.1H211.467V361H210.345V359.334C209.631 360.473 208.424 361.204 206.911 361.204C204.514 361.204 202.525 359.266 202.525 356.75C202.525 354.234 204.514 352.296 206.911 352.296C208.424 352.296 209.631 353.027 210.345 354.166V349.1ZM206.996 360.116C208.883 360.116 210.345 358.637 210.345 356.75C210.345 354.863 208.883 353.384 206.996 353.384C205.109 353.384 203.647 354.863 203.647 356.75C203.647 358.637 205.109 360.116 206.996 360.116ZM214.204 350.698C213.745 350.698 213.388 350.324 213.388 349.882C213.388 349.44 213.745 349.066 214.204 349.066C214.663 349.066 215.02 349.44 215.02 349.882C215.02 350.324 214.663 350.698 214.204 350.698ZM213.643 361V352.5H214.765V361H213.643ZM220.924 352.296C222.998 352.296 224.256 353.656 224.256 355.781V361H223.134V355.781C223.134 354.268 222.301 353.384 220.822 353.384C219.326 353.384 218.068 354.268 218.068 356.546V361H216.946V352.5H218.068V353.826C218.731 352.755 219.717 352.296 220.924 352.296ZM233.535 352.5H234.657V360.66C234.657 363.244 232.583 364.604 230.39 364.604C228.435 364.604 227.024 363.856 226.361 362.53L227.347 361.969C227.772 362.836 228.554 363.516 230.39 363.516C232.362 363.516 233.535 362.394 233.535 360.66V359.334C232.821 360.473 231.614 361.204 230.101 361.204C227.704 361.204 225.715 359.266 225.715 356.75C225.715 354.234 227.704 352.296 230.101 352.296C231.614 352.296 232.821 353.027 233.535 354.166V352.5ZM230.186 360.116C232.073 360.116 233.535 358.637 233.535 356.75C233.535 354.863 232.073 353.384 230.186 353.384C228.299 353.384 226.837 354.863 226.837 356.75C226.837 358.637 228.299 360.116 230.186 360.116ZM245.439 352.296C247.836 352.296 249.825 354.234 249.825 356.75C249.825 359.266 247.836 361.204 245.439 361.204C243.926 361.204 242.719 360.473 242.005 359.334V364.4H240.883V352.5H242.005V354.166C242.719 353.027 243.926 352.296 245.439 352.296ZM245.354 360.116C247.241 360.116 248.703 358.637 248.703 356.75C248.703 354.863 247.241 353.384 245.354 353.384C243.467 353.384 242.005 354.863 242.005 356.75C242.005 358.637 243.467 360.116 245.354 360.116ZM258.8 352.5H259.922V361H258.8V359.334C258.086 360.473 256.879 361.204 255.366 361.204C252.969 361.204 250.98 359.266 250.98 356.75C250.98 354.234 252.969 352.296 255.366 352.296C256.879 352.296 258.086 353.027 258.8 354.166V352.5ZM255.451 360.116C257.338 360.116 258.8 358.637 258.8 356.75C258.8 354.863 257.338 353.384 255.451 353.384C253.564 353.384 252.102 354.863 252.102 356.75C252.102 358.637 253.564 360.116 255.451 360.116ZM269.408 352.5H270.53V360.66C270.53 363.244 268.456 364.604 266.263 364.604C264.308 364.604 262.897 363.856 262.234 362.53L263.22 361.969C263.645 362.836 264.427 363.516 266.263 363.516C268.235 363.516 269.408 362.394 269.408 360.66V359.334C268.694 360.473 267.487 361.204 265.974 361.204C263.577 361.204 261.588 359.266 261.588 356.75C261.588 354.234 263.577 352.296 265.974 352.296C267.487 352.296 268.694 353.027 269.408 354.166V352.5ZM266.059 360.116C267.946 360.116 269.408 358.637 269.408 356.75C269.408 354.863 267.946 353.384 266.059 353.384C264.172 353.384 262.71 354.863 262.71 356.75C262.71 358.637 264.172 360.116 266.059 360.116ZM276.633 352.296C279.234 352.296 280.849 354.455 280.849 356.784C280.849 356.954 280.832 357.141 280.815 357.311H273.352C273.59 359.045 274.933 360.116 276.735 360.116C278.078 360.116 279.013 359.487 279.472 358.671L280.458 359.249C279.744 360.405 278.435 361.204 276.718 361.204C274.032 361.204 272.196 359.317 272.196 356.75C272.196 354.251 273.998 352.296 276.633 352.296ZM276.633 353.384C274.848 353.384 273.573 354.557 273.352 356.223H279.693C279.455 354.353 278.095 353.384 276.633 353.384ZM282.518 361.17C281.991 361.17 281.583 360.762 281.583 360.235C281.583 359.708 281.991 359.3 282.518 359.3C283.045 359.3 283.453 359.708 283.453 360.235C283.453 360.762 283.045 361.17 282.518 361.17Z" fill="white"/>
</g>
<defs>
<filter id="filter0_d_1_552" x="-54" y="-22" width="458" height="591" filterUnits="userSpaceOnUse" color-interpolation-filters="sRGB">
<feFlood flood-opacity="0" result="BackgroundImageFix"/>
<feColorMatrix in="SourceAlpha" type="matrix" values="0 0 0 0 0 0 0 0 0 0 0 0 0 0 0 0 0 0 127 0" result="hardAlpha"/>
<feOffset dy="32"/>
<feGaussianBlur stdDeviation="27"/>
<feColorMatrix type="matrix" values="0 0 0 0 0.0862745 0 0 0 0 0.109804 0 0 0 0 0.176471 0 0 0 0.164554 0"/>
<feBlend mode="normal" in2="BackgroundImageFix" result="effect1_dropShadow_1_552"/>
<feBlend mode="normal" in="SourceGraphic" in2="effect1_dropShadow_1_552" result="shape"/>
</filter>
<filter id="filter1_d_1_552" x="109" y="413" width="131" height="40" filterUnits="userSpaceOnUse" color-interpolation-filters="sRGB">
<feFlood flood-opacity="0" result="BackgroundImageFix"/>
<feColorMatrix in="SourceAlpha" type="matrix" values="0 0 0 0 0 0 0 0 0 0 0 0 0 0 0 0 0 0 127 0" result="hardAlpha"/>
<feOffset dy="4"/>
<feGaussianBlur stdDeviation="2"/>
<feComposite in2="hardAlpha" operator="out"/>
<feColorMatrix type="matrix" values="0 0 0 0 0 0 0 0 0 0 0 0 0 0 0 0 0 0 0.25 0"/>
<feBlend mode="normal" in2="BackgroundImageFix" result="effect1_dropShadow_1_552"/>
<feBlend mode="normal" in="SourceGraphic" in2="effect1_dropShadow_1_552" result="shape"/>
</filter>
<clipPath id="clip0_1_552">
<rect width="350" height="483" fill="white"/>
</clipPath>
<clipPath id="clip1_1_552">
<rect width="123" height="32" fill="white" transform="translate(113 413)"/>
</clipPath>
</defs>
</svg>
