<svg width="350" height="483" viewBox="0 0 350 483" fill="none" xmlns="http://www.w3.org/2000/svg">
<g clip-path="url(#clip0_1_473)">
<rect width="350" height="483" rx="10" fill="#F64B4B"/>
<g clip-path="url(#clip1_1_473)">
<path d="M116.451 432.756H120.99V435H114.105V423.1H116.451V432.756ZM123.308 431.651C123.614 432.773 124.549 433.249 125.705 433.249C126.555 433.249 127.235 432.892 127.609 432.399L129.377 433.419C128.578 434.575 127.303 435.238 125.671 435.238C122.815 435.238 121.013 433.283 121.013 430.75C121.013 428.217 122.832 426.262 125.501 426.262C128.017 426.262 129.802 428.251 129.802 430.75C129.802 431.073 129.768 431.362 129.717 431.651H123.308ZM123.274 429.951H127.609C127.337 428.727 126.419 428.234 125.501 428.234C124.328 428.234 123.529 428.863 123.274 429.951ZM137.126 426.5H139.319V435H137.126V433.997C136.514 434.762 135.596 435.238 134.355 435.238C132.094 435.238 130.224 433.283 130.224 430.75C130.224 428.217 132.094 426.262 134.355 426.262C135.596 426.262 136.514 426.738 137.126 427.503V426.5ZM134.763 433.147C136.123 433.147 137.126 432.178 137.126 430.75C137.126 429.322 136.123 428.353 134.763 428.353C133.42 428.353 132.417 429.322 132.417 430.75C132.417 432.178 133.42 433.147 134.763 433.147ZM142.901 427.962C143.343 426.806 144.414 426.33 145.485 426.33V428.778C144.346 428.642 142.901 429.152 142.901 430.937V435H140.708V426.5H142.901V427.962ZM150.893 426.262C152.695 426.262 154.106 427.52 154.106 429.781V435H151.913V430.053C151.913 428.897 151.216 428.302 150.23 428.302C149.159 428.302 148.36 428.931 148.36 430.41V435H146.167V426.5H148.36V427.452C148.87 426.687 149.754 426.262 150.893 426.262ZM168.43 426.262C170.368 426.262 171.643 427.639 171.643 429.764V435H169.45V429.917C169.45 428.914 168.94 428.302 168.022 428.302C167.053 428.302 166.441 428.948 166.441 430.223V435H164.248V429.917C164.248 428.914 163.738 428.302 162.82 428.302C161.885 428.302 161.222 428.948 161.222 430.223V435H159.029V426.5H161.222V427.401C161.698 426.687 162.497 426.262 163.585 426.262C164.639 426.262 165.421 426.704 165.897 427.486C166.424 426.721 167.274 426.262 168.43 426.262ZM176.952 435.238C174.453 435.238 172.464 433.283 172.464 430.75C172.464 428.217 174.453 426.262 176.952 426.262C179.451 426.262 181.457 428.217 181.457 430.75C181.457 433.283 179.451 435.238 176.952 435.238ZM176.952 433.096C178.261 433.096 179.264 432.127 179.264 430.75C179.264 429.373 178.261 428.404 176.952 428.404C175.66 428.404 174.657 429.373 174.657 430.75C174.657 432.127 175.66 433.096 176.952 433.096ZM184.592 427.962C185.034 426.806 186.105 426.33 187.176 426.33V428.778C186.037 428.642 184.592 429.152 184.592 430.937V435H182.399V426.5H184.592V427.962ZM189.396 431.651C189.702 432.773 190.637 433.249 191.793 433.249C192.643 433.249 193.323 432.892 193.697 432.399L195.465 433.419C194.666 434.575 193.391 435.238 191.759 435.238C188.903 435.238 187.101 433.283 187.101 430.75C187.101 428.217 188.92 426.262 191.589 426.262C194.105 426.262 195.89 428.251 195.89 430.75C195.89 431.073 195.856 431.362 195.805 431.651H189.396ZM189.362 429.951H193.697C193.425 428.727 192.507 428.234 191.589 428.234C190.416 428.234 189.617 428.863 189.362 429.951Z" fill="white"/>
<path d="M230.4 424L236 429.2L230.4 434.4" stroke="white" stroke-width="2" stroke-linecap="square" stroke-linejoin="bevel"/>
<path d="M224 428.986H235.2" stroke="white" stroke-width="2" stroke-linecap="square" stroke-linejoin="bevel"/>
</g>
<path d="M98.8014 259.336C93.7134 259.336 90.0654 255.496 90.0654 250.6C90.0654 245.68 93.7134 241.864 98.8014 241.864C101.873 241.864 104.585 243.424 106.025 245.824L103.169 247.48C102.353 245.992 100.721 245.08 98.8014 245.08C95.5134 245.08 93.3534 247.36 93.3534 250.6C93.3534 253.816 95.5134 256.096 98.8014 256.096C100.721 256.096 102.377 255.184 103.169 253.72L106.025 255.376C104.609 257.776 101.897 259.336 98.8014 259.336ZM113.198 259.336C109.67 259.336 106.862 256.576 106.862 253C106.862 249.424 109.67 246.664 113.198 246.664C116.726 246.664 119.558 249.424 119.558 253C119.558 256.576 116.726 259.336 113.198 259.336ZM113.198 256.312C115.046 256.312 116.462 254.944 116.462 253C116.462 251.056 115.046 249.688 113.198 249.688C111.374 249.688 109.958 251.056 109.958 253C109.958 254.944 111.374 256.312 113.198 256.312ZM127.908 246.664C130.452 246.664 132.444 248.44 132.444 251.632V259H129.348V252.016C129.348 250.384 128.364 249.544 126.972 249.544C125.46 249.544 124.332 250.432 124.332 252.52V259H121.236V247H124.332V248.344C125.052 247.264 126.3 246.664 127.908 246.664ZM141.452 249.976H138.74V254.968C138.74 256.264 139.676 256.288 141.452 256.192V259C137.108 259.48 135.644 258.208 135.644 254.968V249.976H133.556V247H135.644V244.576L138.74 243.64V247H141.452V249.976ZM145.376 254.272C145.808 255.856 147.128 256.528 148.76 256.528C149.96 256.528 150.92 256.024 151.448 255.328L153.944 256.768C152.816 258.4 151.016 259.336 148.712 259.336C144.68 259.336 142.136 256.576 142.136 253C142.136 249.424 144.704 246.664 148.472 246.664C152.024 246.664 154.544 249.472 154.544 253C154.544 253.456 154.496 253.864 154.424 254.272H145.376ZM145.328 251.872H151.448C151.064 250.144 149.768 249.448 148.472 249.448C146.816 249.448 145.688 250.336 145.328 251.872ZM162.877 246.664C165.421 246.664 167.413 248.44 167.413 251.632V259H164.317V252.016C164.317 250.384 163.333 249.544 161.941 249.544C160.429 249.544 159.301 250.432 159.301 252.52V259H156.205V247H159.301V248.344C160.021 247.264 161.269 246.664 162.877 246.664ZM176.421 249.976H173.709V254.968C173.709 256.264 174.645 256.288 176.421 256.192V259C172.077 259.48 170.613 258.208 170.613 254.968V249.976H168.525V247H170.613V244.576L173.709 243.64V247H176.421V249.976ZM187.439 259L182.735 242.2H186.215L189.431 254.656L192.935 242.2H195.767L199.295 254.656L202.511 242.2H205.991L201.287 259H197.519L194.351 247.912L191.207 259H187.439ZM209.403 249.064C210.027 247.432 211.539 246.76 213.051 246.76V250.216C211.443 250.024 209.403 250.744 209.403 253.264V259H206.307V247H209.403V249.064ZM215.897 245.56C214.865 245.56 214.001 244.696 214.001 243.664C214.001 242.632 214.865 241.744 215.897 241.744C216.953 241.744 217.817 242.632 217.817 243.664C217.817 244.696 216.953 245.56 215.897 245.56ZM214.361 259V247H217.457V259H214.361ZM226.655 249.976H223.943V254.968C223.943 256.264 224.879 256.288 226.655 256.192V259C222.311 259.48 220.847 258.208 220.847 254.968V249.976H218.759V247H220.847V244.576L223.943 243.64V247H226.655V249.976ZM229.874 245.56C228.842 245.56 227.978 244.696 227.978 243.664C227.978 242.632 228.842 241.744 229.874 241.744C230.93 241.744 231.794 242.632 231.794 243.664C231.794 244.696 230.93 245.56 229.874 245.56ZM228.338 259V247H231.434V259H228.338ZM240.44 246.664C242.984 246.664 244.976 248.44 244.976 251.632V259H241.88V252.016C241.88 250.384 240.896 249.544 239.504 249.544C237.992 249.544 236.864 250.432 236.864 252.52V259H233.768V247H236.864V248.344C237.584 247.264 238.832 246.664 240.44 246.664ZM256.311 247H259.335V258.424C259.335 262.36 256.239 264.136 253.071 264.136C250.503 264.136 248.439 263.152 247.383 261.208L250.023 259.696C250.527 260.632 251.319 261.376 253.167 261.376C255.111 261.376 256.311 260.32 256.311 258.424V257.128C255.471 258.256 254.175 258.952 252.471 258.952C249.063 258.952 246.495 256.192 246.495 252.808C246.495 249.448 249.063 246.664 252.471 246.664C254.175 246.664 255.471 247.36 256.311 248.488V247ZM252.951 256.096C254.895 256.096 256.311 254.728 256.311 252.808C256.311 250.912 254.895 249.544 252.951 249.544C251.007 249.544 249.591 250.912 249.591 252.808C249.591 254.728 251.007 256.096 252.951 256.096Z" fill="white"/>
<path opacity="0.65" d="M47.503 303L44.052 291.1H45.31L48.251 301.385L51.345 291.1H52.739L55.833 301.385L58.774 291.1H60.032L56.581 303H55.153L52.042 292.664L48.931 303H47.503ZM61.761 292.698C61.302 292.698 60.945 292.324 60.945 291.882C60.945 291.44 61.302 291.066 61.761 291.066C62.22 291.066 62.577 291.44 62.577 291.882C62.577 292.324 62.22 292.698 61.761 292.698ZM61.2 303V294.5H62.322V303H61.2ZM69.0079 295.588H66.5599V300.739C66.5599 302.201 67.3589 302.082 69.0079 302.014V303C66.7129 303.34 65.4379 302.779 65.4379 300.739V295.588H63.6529V294.5H65.4379V292.46L66.5599 292.12V294.5H69.0079V295.588ZM74.6559 294.296C76.7299 294.296 77.9879 295.656 77.9879 297.781V303H76.8659V297.781C76.8659 296.268 76.0329 295.384 74.5539 295.384C73.0579 295.384 71.7999 296.268 71.7999 298.546V303H70.6779V291.1H71.7999V295.826C72.4629 294.755 73.4489 294.296 74.6559 294.296ZM84.0074 303V290.59H85.1294V303H84.0074ZM91.2713 303.204C88.7893 303.204 86.8003 301.266 86.8003 298.75C86.8003 296.234 88.7893 294.296 91.2713 294.296C93.7533 294.296 95.7423 296.234 95.7423 298.75C95.7423 301.266 93.7533 303.204 91.2713 303.204ZM91.2713 302.116C93.1583 302.116 94.6203 300.637 94.6203 298.75C94.6203 296.863 93.1583 295.384 91.2713 295.384C89.3843 295.384 87.9223 296.863 87.9223 298.75C87.9223 300.637 89.3843 302.116 91.2713 302.116ZM101.759 295.588H99.3109V300.739C99.3109 302.201 100.11 302.082 101.759 302.014V303C99.4639 303.34 98.1889 302.779 98.1889 300.739V295.588H96.4039V294.5H98.1889V292.46L99.3109 292.12V294.5H101.759V295.588ZM103.798 296.727C103.798 298.835 108.762 297.628 108.762 300.756C108.762 302.201 107.504 303.204 105.685 303.204C103.985 303.204 102.829 302.337 102.404 301.249L103.356 300.688C103.662 301.555 104.546 302.116 105.685 302.116C106.688 302.116 107.64 301.759 107.64 300.756C107.64 298.648 102.676 299.855 102.676 296.727C102.676 295.367 103.883 294.296 105.583 294.296C106.977 294.296 108.065 294.976 108.558 296.03L107.623 296.574C107.266 295.707 106.399 295.384 105.583 295.384C104.699 295.384 103.798 295.809 103.798 296.727ZM118.445 303.204C115.963 303.204 113.974 301.266 113.974 298.75C113.974 296.234 115.963 294.296 118.445 294.296C120.927 294.296 122.916 296.234 122.916 298.75C122.916 301.266 120.927 303.204 118.445 303.204ZM118.445 302.116C120.332 302.116 121.794 300.637 121.794 298.75C121.794 296.863 120.332 295.384 118.445 295.384C116.558 295.384 115.096 296.863 115.096 298.75C115.096 300.637 116.558 302.116 118.445 302.116ZM128.511 291.984C126.862 291.848 126.063 292.528 126.063 294.16V294.5H128.511V295.588H126.063V303H124.941V295.588H123.496V294.5H124.941V294.16C124.941 291.95 126.216 290.726 128.511 290.896V291.984ZM139.541 294.5H140.663V303H139.541V301.674C138.878 302.745 137.892 303.204 136.685 303.204C134.611 303.204 133.353 301.844 133.353 299.719V294.5H134.475V299.719C134.475 301.232 135.308 302.116 136.787 302.116C138.283 302.116 139.541 301.232 139.541 298.954V294.5ZM146.814 294.296C148.888 294.296 150.146 295.656 150.146 297.781V303H149.024V297.781C149.024 296.268 148.191 295.384 146.712 295.384C145.216 295.384 143.958 296.268 143.958 298.546V303H142.836V294.5H143.958V295.826C144.621 294.755 145.607 294.296 146.814 294.296ZM152.677 292.698C152.218 292.698 151.861 292.324 151.861 291.882C151.861 291.44 152.218 291.066 152.677 291.066C153.136 291.066 153.493 291.44 153.493 291.882C153.493 292.324 153.136 292.698 152.677 292.698ZM152.116 303V294.5H153.238V303H152.116ZM162.729 294.5H163.851V306.4H162.729V301.334C162.015 302.473 160.808 303.204 159.295 303.204C156.898 303.204 154.909 301.266 154.909 298.75C154.909 296.234 156.898 294.296 159.295 294.296C160.808 294.296 162.015 295.027 162.729 296.166V294.5ZM159.38 302.116C161.267 302.116 162.729 300.637 162.729 298.75C162.729 296.863 161.267 295.384 159.38 295.384C157.493 295.384 156.031 296.863 156.031 298.75C156.031 300.637 157.493 302.116 159.38 302.116ZM172.01 294.5H173.132V303H172.01V301.674C171.347 302.745 170.361 303.204 169.154 303.204C167.08 303.204 165.822 301.844 165.822 299.719V294.5H166.944V299.719C166.944 301.232 167.777 302.116 169.256 302.116C170.752 302.116 172.01 301.232 172.01 298.954V294.5ZM179.233 294.296C181.834 294.296 183.449 296.455 183.449 298.784C183.449 298.954 183.432 299.141 183.415 299.311H175.952C176.19 301.045 177.533 302.116 179.335 302.116C180.678 302.116 181.613 301.487 182.072 300.671L183.058 301.249C182.344 302.405 181.035 303.204 179.318 303.204C176.632 303.204 174.796 301.317 174.796 298.75C174.796 296.251 176.598 294.296 179.233 294.296ZM179.233 295.384C177.448 295.384 176.173 296.557 175.952 298.223H182.293C182.055 296.353 180.695 295.384 179.233 295.384ZM193.64 294.296C196.037 294.296 198.026 296.234 198.026 298.75C198.026 301.266 196.037 303.204 193.64 303.204C192.127 303.204 190.92 302.473 190.206 301.334V303H189.084V291.1H190.206V296.166C190.92 295.027 192.127 294.296 193.64 294.296ZM193.555 302.116C195.442 302.116 196.904 300.637 196.904 298.75C196.904 296.863 195.442 295.384 193.555 295.384C191.668 295.384 190.206 296.863 190.206 298.75C190.206 300.637 191.668 302.116 193.555 302.116ZM199.691 303V290.59H200.813V303H199.691ZM206.955 303.204C204.473 303.204 202.484 301.266 202.484 298.75C202.484 296.234 204.473 294.296 206.955 294.296C209.437 294.296 211.426 296.234 211.426 298.75C211.426 301.266 209.437 303.204 206.955 303.204ZM206.955 302.116C208.842 302.116 210.304 300.637 210.304 298.75C210.304 296.863 208.842 295.384 206.955 295.384C205.068 295.384 203.606 296.863 203.606 298.75C203.606 300.637 205.068 302.116 206.955 302.116ZM217.065 303.204C214.498 303.204 212.594 301.266 212.594 298.75C212.594 296.234 214.498 294.296 217.065 294.296C218.748 294.296 220.176 295.18 220.788 296.523L219.87 297.05C219.411 296.047 218.34 295.384 217.065 295.384C215.178 295.384 213.716 296.863 213.716 298.75C213.716 300.637 215.178 302.116 217.065 302.116C218.357 302.116 219.394 301.436 219.938 300.45L220.873 300.994C220.176 302.337 218.731 303.204 217.065 303.204ZM229.152 303H227.656L223.406 298.903V303H222.284V291.1H223.406V298.257L227.452 294.5H228.982L224.596 298.58L229.152 303ZM230.687 296.727C230.687 298.835 235.651 297.628 235.651 300.756C235.651 302.201 234.393 303.204 232.574 303.204C230.874 303.204 229.718 302.337 229.293 301.249L230.245 300.688C230.551 301.555 231.435 302.116 232.574 302.116C233.577 302.116 234.529 301.759 234.529 300.756C234.529 298.648 229.565 299.855 229.565 296.727C229.565 295.367 230.772 294.296 232.472 294.296C233.866 294.296 234.954 294.976 235.447 296.03L234.512 296.574C234.155 295.707 233.288 295.384 232.472 295.384C231.588 295.384 230.687 295.809 230.687 296.727ZM239.027 301.555L238.007 305.38H236.987L237.667 301.555H239.027ZM251.211 294.5H252.401L248.763 303.782C248.117 305.414 246.859 306.519 245.329 306.4V305.346C246.434 305.465 247.199 304.683 247.658 303.578L247.879 303.051L244.071 294.5H245.261L248.457 301.623L251.211 294.5ZM257.186 303.204C254.704 303.204 252.715 301.266 252.715 298.75C252.715 296.234 254.704 294.296 257.186 294.296C259.668 294.296 261.657 296.234 261.657 298.75C261.657 301.266 259.668 303.204 257.186 303.204ZM257.186 302.116C259.073 302.116 260.535 300.637 260.535 298.75C260.535 296.863 259.073 295.384 257.186 295.384C255.299 295.384 253.837 296.863 253.837 298.75C253.837 300.637 255.299 302.116 257.186 302.116ZM269.319 294.5H270.441V303H269.319V301.674C268.656 302.745 267.67 303.204 266.463 303.204C264.389 303.204 263.131 301.844 263.131 299.719V294.5H264.253V299.719C264.253 301.232 265.086 302.116 266.565 302.116C268.061 302.116 269.319 301.232 269.319 298.954V294.5ZM280.625 303.204C278.058 303.204 276.154 301.266 276.154 298.75C276.154 296.234 278.058 294.296 280.625 294.296C282.308 294.296 283.736 295.18 284.348 296.523L283.43 297.05C282.971 296.047 281.9 295.384 280.625 295.384C278.738 295.384 277.276 296.863 277.276 298.75C277.276 300.637 278.738 302.116 280.625 302.116C281.917 302.116 282.954 301.436 283.498 300.45L284.433 300.994C283.736 302.337 282.291 303.204 280.625 303.204ZM293.071 294.5H294.193V303H293.071V301.334C292.357 302.473 291.15 303.204 289.637 303.204C287.24 303.204 285.251 301.266 285.251 298.75C285.251 296.234 287.24 294.296 289.637 294.296C291.15 294.296 292.357 295.027 293.071 296.166V294.5ZM289.722 302.116C291.609 302.116 293.071 300.637 293.071 298.75C293.071 296.863 291.609 295.384 289.722 295.384C287.835 295.384 286.373 296.863 286.373 298.75C286.373 300.637 287.835 302.116 289.722 302.116ZM300.347 294.296C302.421 294.296 303.679 295.656 303.679 297.781V303H302.557V297.781C302.557 296.268 301.724 295.384 300.245 295.384C298.749 295.384 297.491 296.268 297.491 298.546V303H296.369V294.5H297.491V295.826C298.154 294.755 299.14 294.296 300.347 294.296ZM45.9778 323.296C48.5788 323.296 50.1938 325.455 50.1938 327.784C50.1938 327.954 50.1768 328.141 50.1598 328.311H42.6968C42.9348 330.045 44.2778 331.116 46.0798 331.116C47.4228 331.116 48.3578 330.487 48.8168 329.671L49.8028 330.249C49.0888 331.405 47.7798 332.204 46.0628 332.204C43.3768 332.204 41.5408 330.317 41.5408 327.75C41.5408 325.251 43.3428 323.296 45.9778 323.296ZM45.9778 324.384C44.1928 324.384 42.9178 325.557 42.6968 327.223H49.0378C48.7998 325.353 47.4398 324.384 45.9778 324.384ZM59.0886 323.5H60.2106V332H59.0886V330.334C58.3746 331.473 57.1676 332.204 55.6546 332.204C53.2576 332.204 51.2686 330.266 51.2686 327.75C51.2686 325.234 53.2576 323.296 55.6546 323.296C57.1676 323.296 58.3746 324.027 59.0886 325.166V323.5ZM55.7396 331.116C57.6266 331.116 59.0886 329.637 59.0886 327.75C59.0886 325.863 57.6266 324.384 55.7396 324.384C53.8526 324.384 52.3906 325.863 52.3906 327.75C52.3906 329.637 53.8526 331.116 55.7396 331.116ZM63.2702 325.727C63.2702 327.835 68.2342 326.628 68.2342 329.756C68.2342 331.201 66.9762 332.204 65.1572 332.204C63.4572 332.204 62.3012 331.337 61.8762 330.249L62.8282 329.688C63.1342 330.555 64.0182 331.116 65.1572 331.116C66.1602 331.116 67.1122 330.759 67.1122 329.756C67.1122 327.648 62.1482 328.855 62.1482 325.727C62.1482 324.367 63.3552 323.296 65.0552 323.296C66.4492 323.296 67.5372 323.976 68.0302 325.03L67.0952 325.574C66.7382 324.707 65.8712 324.384 65.0552 324.384C64.1712 324.384 63.2702 324.809 63.2702 325.727ZM70.3839 321.698C69.9249 321.698 69.5679 321.324 69.5679 320.882C69.5679 320.44 69.9249 320.066 70.3839 320.066C70.8429 320.066 71.1999 320.44 71.1999 320.882C71.1999 321.324 70.8429 321.698 70.3839 321.698ZM69.8229 332V323.5H70.9449V332H69.8229ZM73.1258 332V319.59H74.2478V332H73.1258ZM82.5488 323.5H83.7388L80.1008 332.782C79.4548 334.414 78.1968 335.519 76.6668 335.4V334.346C77.7718 334.465 78.5368 333.683 78.9958 332.578L79.2168 332.051L75.4088 323.5H76.5988L79.7948 330.623L82.5488 323.5ZM93.5008 323.296C95.8978 323.296 97.8868 325.234 97.8868 327.75C97.8868 330.266 95.8978 332.204 93.5008 332.204C91.9878 332.204 90.7808 331.473 90.0668 330.334V332H88.9448V320.1H90.0668V325.166C90.7808 324.027 91.9878 323.296 93.5008 323.296ZM93.4158 331.116C95.3028 331.116 96.7648 329.637 96.7648 327.75C96.7648 325.863 95.3028 324.384 93.4158 324.384C91.5288 324.384 90.0668 325.863 90.0668 327.75C90.0668 329.637 91.5288 331.116 93.4158 331.116ZM105.536 323.5H106.658V332H105.536V330.674C104.873 331.745 103.887 332.204 102.68 332.204C100.606 332.204 99.3484 330.844 99.3484 328.719V323.5H100.47V328.719C100.47 330.232 101.303 331.116 102.782 331.116C104.278 331.116 105.536 330.232 105.536 327.954V323.5ZM109.393 321.698C108.934 321.698 108.577 321.324 108.577 320.882C108.577 320.44 108.934 320.066 109.393 320.066C109.852 320.066 110.209 320.44 110.209 320.882C110.209 321.324 109.852 321.698 109.393 321.698ZM108.832 332V323.5H109.954V332H108.832ZM112.135 332V319.59H113.257V332H112.135ZM122.748 320.1H123.87V332H122.748V330.334C122.034 331.473 120.827 332.204 119.314 332.204C116.917 332.204 114.928 330.266 114.928 327.75C114.928 325.234 116.917 323.296 119.314 323.296C120.827 323.296 122.034 324.027 122.748 325.166V320.1ZM119.399 331.116C121.286 331.116 122.748 329.637 122.748 327.75C122.748 325.863 121.286 324.384 119.399 324.384C117.512 324.384 116.05 325.863 116.05 327.75C116.05 329.637 117.512 331.116 119.399 331.116ZM137.405 323.5H138.527V332H137.405V330.334C136.691 331.473 135.484 332.204 133.971 332.204C131.574 332.204 129.585 330.266 129.585 327.75C129.585 325.234 131.574 323.296 133.971 323.296C135.484 323.296 136.691 324.027 137.405 325.166V323.5ZM134.056 331.116C135.943 331.116 137.405 329.637 137.405 327.75C137.405 325.863 135.943 324.384 134.056 324.384C132.169 324.384 130.707 325.863 130.707 327.75C130.707 329.637 132.169 331.116 134.056 331.116ZM149.309 323.296C151.706 323.296 153.695 325.234 153.695 327.75C153.695 330.266 151.706 332.204 149.309 332.204C147.796 332.204 146.589 331.473 145.875 330.334V335.4H144.753V323.5H145.875V325.166C146.589 324.027 147.796 323.296 149.309 323.296ZM149.224 331.116C151.111 331.116 152.573 329.637 152.573 327.75C152.573 325.863 151.111 324.384 149.224 324.384C147.337 324.384 145.875 325.863 145.875 327.75C145.875 329.637 147.337 331.116 149.224 331.116ZM162.671 323.5H163.793V332H162.671V330.334C161.957 331.473 160.75 332.204 159.237 332.204C156.84 332.204 154.851 330.266 154.851 327.75C154.851 325.234 156.84 323.296 159.237 323.296C160.75 323.296 161.957 324.027 162.671 325.166V323.5ZM159.322 331.116C161.209 331.116 162.671 329.637 162.671 327.75C162.671 325.863 161.209 324.384 159.322 324.384C157.435 324.384 155.973 325.863 155.973 327.75C155.973 329.637 157.435 331.116 159.322 331.116ZM173.278 323.5H174.4V331.66C174.4 334.244 172.326 335.604 170.133 335.604C168.178 335.604 166.767 334.856 166.104 333.53L167.09 332.969C167.515 333.836 168.297 334.516 170.133 334.516C172.105 334.516 173.278 333.394 173.278 331.66V330.334C172.564 331.473 171.357 332.204 169.844 332.204C167.447 332.204 165.458 330.266 165.458 327.75C165.458 325.234 167.447 323.296 169.844 323.296C171.357 323.296 172.564 324.027 173.278 325.166V323.5ZM169.929 331.116C171.816 331.116 173.278 329.637 173.278 327.75C173.278 325.863 171.816 324.384 169.929 324.384C168.042 324.384 166.58 325.863 166.58 327.75C166.58 329.637 168.042 331.116 169.929 331.116ZM180.503 323.296C183.104 323.296 184.719 325.455 184.719 327.784C184.719 327.954 184.702 328.141 184.685 328.311H177.222C177.46 330.045 178.803 331.116 180.605 331.116C181.948 331.116 182.883 330.487 183.342 329.671L184.328 330.249C183.614 331.405 182.305 332.204 180.588 332.204C177.902 332.204 176.066 330.317 176.066 327.75C176.066 325.251 177.868 323.296 180.503 323.296ZM180.503 324.384C178.718 324.384 177.443 325.557 177.222 327.223H183.563C183.325 325.353 181.965 324.384 180.503 324.384ZM200.588 323.5H201.744L199.126 332H197.902L195.709 325.149L193.516 332H192.292L189.674 323.5H190.83L192.921 330.555L195.148 323.5H196.27L198.497 330.555L200.588 323.5ZM203.797 321.698C203.338 321.698 202.981 321.324 202.981 320.882C202.981 320.44 203.338 320.066 203.797 320.066C204.256 320.066 204.613 320.44 204.613 320.882C204.613 321.324 204.256 321.698 203.797 321.698ZM203.236 332V323.5H204.358V332H203.236ZM211.044 324.588H208.596V329.739C208.596 331.201 209.395 331.082 211.044 331.014V332C208.749 332.34 207.474 331.779 207.474 329.739V324.588H205.689V323.5H207.474V321.46L208.596 321.12V323.5H211.044V324.588ZM216.692 323.296C218.766 323.296 220.024 324.656 220.024 326.781V332H218.902V326.781C218.902 325.268 218.069 324.384 216.59 324.384C215.094 324.384 213.836 325.268 213.836 327.546V332H212.714V320.1H213.836V324.826C214.499 323.755 215.485 323.296 216.692 323.296ZM225.954 332.204C223.472 332.204 221.483 330.266 221.483 327.75C221.483 325.234 223.472 323.296 225.954 323.296C228.436 323.296 230.425 325.234 230.425 327.75C230.425 330.266 228.436 332.204 225.954 332.204ZM225.954 331.116C227.841 331.116 229.303 329.637 229.303 327.75C229.303 325.863 227.841 324.384 225.954 324.384C224.067 324.384 222.605 325.863 222.605 327.75C222.605 329.637 224.067 331.116 225.954 331.116ZM238.087 323.5H239.209V332H238.087V330.674C237.424 331.745 236.438 332.204 235.231 332.204C233.157 332.204 231.899 330.844 231.899 328.719V323.5H233.021V328.719C233.021 330.232 233.854 331.116 235.333 331.116C236.829 331.116 238.087 330.232 238.087 327.954V323.5ZM245.887 324.588H243.439V329.739C243.439 331.201 244.238 331.082 245.887 331.014V332C243.592 332.34 242.317 331.779 242.317 329.739V324.588H240.532V323.5H242.317V321.46L243.439 321.12V323.5H245.887V324.588ZM255.568 332.204C253.001 332.204 251.097 330.266 251.097 327.75C251.097 325.234 253.001 323.296 255.568 323.296C257.251 323.296 258.679 324.18 259.291 325.523L258.373 326.05C257.914 325.047 256.843 324.384 255.568 324.384C253.681 324.384 252.219 325.863 252.219 327.75C252.219 329.637 253.681 331.116 255.568 331.116C256.86 331.116 257.897 330.436 258.441 329.45L259.376 329.994C258.679 331.337 257.234 332.204 255.568 332.204ZM264.665 332.204C262.183 332.204 260.194 330.266 260.194 327.75C260.194 325.234 262.183 323.296 264.665 323.296C267.147 323.296 269.136 325.234 269.136 327.75C269.136 330.266 267.147 332.204 264.665 332.204ZM264.665 331.116C266.552 331.116 268.014 329.637 268.014 327.75C268.014 325.863 266.552 324.384 264.665 324.384C262.778 324.384 261.316 325.863 261.316 327.75C261.316 329.637 262.778 331.116 264.665 331.116ZM278.124 320.1H279.246V332H278.124V330.334C277.41 331.473 276.203 332.204 274.69 332.204C272.293 332.204 270.304 330.266 270.304 327.75C270.304 325.234 272.293 323.296 274.69 323.296C276.203 323.296 277.41 324.027 278.124 325.166V320.1ZM274.775 331.116C276.662 331.116 278.124 329.637 278.124 327.75C278.124 325.863 276.662 324.384 274.775 324.384C272.888 324.384 271.426 325.863 271.426 327.75C271.426 329.637 272.888 331.116 274.775 331.116ZM281.982 321.698C281.523 321.698 281.166 321.324 281.166 320.882C281.166 320.44 281.523 320.066 281.982 320.066C282.441 320.066 282.798 320.44 282.798 320.882C282.798 321.324 282.441 321.698 281.982 321.698ZM281.421 332V323.5H282.543V332H281.421ZM288.702 323.296C290.776 323.296 292.034 324.656 292.034 326.781V332H290.912V326.781C290.912 325.268 290.079 324.384 288.6 324.384C287.104 324.384 285.846 325.268 285.846 327.546V332H284.724V323.5H285.846V324.826C286.509 323.755 287.495 323.296 288.702 323.296ZM301.314 323.5H302.436V331.66C302.436 334.244 300.362 335.604 298.169 335.604C296.214 335.604 294.803 334.856 294.14 333.53L295.126 332.969C295.551 333.836 296.333 334.516 298.169 334.516C300.141 334.516 301.314 333.394 301.314 331.66V330.334C300.6 331.473 299.393 332.204 297.88 332.204C295.483 332.204 293.494 330.266 293.494 327.75C293.494 325.234 295.483 323.296 297.88 323.296C299.393 323.296 300.6 324.027 301.314 325.166V323.5ZM297.965 331.116C299.852 331.116 301.314 329.637 301.314 327.75C301.314 325.863 299.852 324.384 297.965 324.384C296.078 324.384 294.616 325.863 294.616 327.75C294.616 329.637 296.078 331.116 297.965 331.116ZM305.376 332.17C304.849 332.17 304.441 331.762 304.441 331.235C304.441 330.708 304.849 330.3 305.376 330.3C305.903 330.3 306.311 330.708 306.311 331.235C306.311 331.762 305.903 332.17 305.376 332.17ZM71.4752 354.829C72.5972 355.305 73.3792 356.359 73.3792 357.685C73.3792 359.521 71.9002 361 70.0642 361H64.8792V349.1H69.6732C71.4412 349.1 72.8692 350.545 72.8692 352.296C72.8692 353.401 72.3252 354.302 71.4752 354.829ZM69.6732 350.222H66.0692V354.37H69.6732C70.7782 354.37 71.6792 353.452 71.6792 352.296C71.6792 351.157 70.7782 350.222 69.6732 350.222ZM70.0642 359.878C71.2372 359.878 72.1892 358.909 72.1892 357.685C72.1892 356.478 71.2372 355.492 70.0642 355.492H66.0692V359.878H70.0642ZM81.2012 352.5H82.3232V361H81.2012V359.674C80.5382 360.745 79.5522 361.204 78.3452 361.204C76.2712 361.204 75.0132 359.844 75.0132 357.719V352.5H76.1352V357.719C76.1352 359.232 76.9682 360.116 78.4472 360.116C79.9432 360.116 81.2012 359.232 81.2012 356.954V352.5ZM85.0577 350.698C84.5987 350.698 84.2417 350.324 84.2417 349.882C84.2417 349.44 84.5987 349.066 85.0577 349.066C85.5167 349.066 85.8737 349.44 85.8737 349.882C85.8737 350.324 85.5167 350.698 85.0577 350.698ZM84.4967 361V352.5H85.6187V361H84.4967ZM87.7997 361V348.59H88.9217V361H87.7997ZM98.4126 349.1H99.5346V361H98.4126V359.334C97.6986 360.473 96.4916 361.204 94.9786 361.204C92.5816 361.204 90.5926 359.266 90.5926 356.75C90.5926 354.234 92.5816 352.296 94.9786 352.296C96.4916 352.296 97.6986 353.027 98.4126 354.166V349.1ZM95.0636 360.116C96.9506 360.116 98.4126 358.637 98.4126 356.75C98.4126 354.863 96.9506 353.384 95.0636 353.384C93.1766 353.384 91.7146 354.863 91.7146 356.75C91.7146 358.637 93.1766 360.116 95.0636 360.116ZM111.88 352.5H113.07L109.432 361.782C108.786 363.414 107.528 364.519 105.998 364.4V363.346C107.103 363.465 107.868 362.683 108.327 361.578L108.548 361.051L104.74 352.5H105.93L109.126 359.623L111.88 352.5ZM117.855 361.204C115.373 361.204 113.384 359.266 113.384 356.75C113.384 354.234 115.373 352.296 117.855 352.296C120.337 352.296 122.326 354.234 122.326 356.75C122.326 359.266 120.337 361.204 117.855 361.204ZM117.855 360.116C119.742 360.116 121.204 358.637 121.204 356.75C121.204 354.863 119.742 353.384 117.855 353.384C115.968 353.384 114.506 354.863 114.506 356.75C114.506 358.637 115.968 360.116 117.855 360.116ZM129.988 352.5H131.11V361H129.988V359.674C129.325 360.745 128.339 361.204 127.132 361.204C125.058 361.204 123.8 359.844 123.8 357.719V352.5H124.922V357.719C124.922 359.232 125.755 360.116 127.234 360.116C128.73 360.116 129.988 359.232 129.988 356.954V352.5ZM134.405 353.911C135 352.721 136.003 352.364 137.091 352.364V353.452C135.731 353.452 134.405 354.166 134.405 356.274V361H133.283V352.5H134.405V353.911ZM146.457 352.296C148.531 352.296 149.789 353.656 149.789 355.781V361H148.667V355.781C148.667 354.268 147.834 353.384 146.355 353.384C144.859 353.384 143.601 354.268 143.601 356.546V361H142.479V352.5H143.601V353.826C144.264 352.755 145.25 352.296 146.457 352.296ZM155.685 352.296C158.286 352.296 159.901 354.455 159.901 356.784C159.901 356.954 159.884 357.141 159.867 357.311H152.404C152.642 359.045 153.985 360.116 155.787 360.116C157.13 360.116 158.065 359.487 158.524 358.671L159.51 359.249C158.796 360.405 157.487 361.204 155.77 361.204C153.084 361.204 151.248 359.317 151.248 356.75C151.248 354.251 153.05 352.296 155.685 352.296ZM155.685 353.384C153.9 353.384 152.625 354.557 152.404 356.223H158.745C158.507 354.353 157.147 353.384 155.685 353.384ZM168.294 361H166.951L164.299 357.498L161.647 361H160.304L163.636 356.597L160.525 352.5H161.868L164.299 355.713L166.73 352.5H168.073L164.979 356.597L168.294 361ZM174.125 353.588H171.677V358.739C171.677 360.201 172.476 360.082 174.125 360.014V361C171.83 361.34 170.555 360.779 170.555 358.739V353.588H168.77V352.5H170.555V350.46L171.677 350.12V352.5H174.125V353.588ZM179.845 361V348.59H180.967V361H179.845ZM190.458 352.5H191.58V361H190.458V359.334C189.744 360.473 188.537 361.204 187.024 361.204C184.627 361.204 182.638 359.266 182.638 356.75C182.638 354.234 184.627 352.296 187.024 352.296C188.537 352.296 189.744 353.027 190.458 354.166V352.5ZM187.109 360.116C188.996 360.116 190.458 358.637 190.458 356.75C190.458 354.863 188.996 353.384 187.109 353.384C185.222 353.384 183.76 354.863 183.76 356.75C183.76 358.637 185.222 360.116 187.109 360.116ZM197.734 352.296C199.808 352.296 201.066 353.656 201.066 355.781V361H199.944V355.781C199.944 354.268 199.111 353.384 197.632 353.384C196.136 353.384 194.878 354.268 194.878 356.546V361H193.756V352.5H194.878V353.826C195.541 352.755 196.527 352.296 197.734 352.296ZM210.345 349.1H211.467V361H210.345V359.334C209.631 360.473 208.424 361.204 206.911 361.204C204.514 361.204 202.525 359.266 202.525 356.75C202.525 354.234 204.514 352.296 206.911 352.296C208.424 352.296 209.631 353.027 210.345 354.166V349.1ZM206.996 360.116C208.883 360.116 210.345 358.637 210.345 356.75C210.345 354.863 208.883 353.384 206.996 353.384C205.109 353.384 203.647 354.863 203.647 356.75C203.647 358.637 205.109 360.116 206.996 360.116ZM214.204 350.698C213.745 350.698 213.388 350.324 213.388 349.882C213.388 349.44 213.745 349.066 214.204 349.066C214.663 349.066 215.02 349.44 215.02 349.882C215.02 350.324 214.663 350.698 214.204 350.698ZM213.643 361V352.5H214.765V361H213.643ZM220.924 352.296C222.998 352.296 224.256 353.656 224.256 355.781V361H223.134V355.781C223.134 354.268 222.301 353.384 220.822 353.384C219.326 353.384 218.068 354.268 218.068 356.546V361H216.946V352.5H218.068V353.826C218.731 352.755 219.717 352.296 220.924 352.296ZM233.535 352.5H234.657V360.66C234.657 363.244 232.583 364.604 230.39 364.604C228.435 364.604 227.024 363.856 226.361 362.53L227.347 361.969C227.772 362.836 228.554 363.516 230.39 363.516C232.362 363.516 233.535 362.394 233.535 360.66V359.334C232.821 360.473 231.614 361.204 230.101 361.204C227.704 361.204 225.715 359.266 225.715 356.75C225.715 354.234 227.704 352.296 230.101 352.296C231.614 352.296 232.821 353.027 233.535 354.166V352.5ZM230.186 360.116C232.073 360.116 233.535 358.637 233.535 356.75C233.535 354.863 232.073 353.384 230.186 353.384C228.299 353.384 226.837 354.863 226.837 356.75C226.837 358.637 228.299 360.116 230.186 360.116ZM245.439 352.296C247.836 352.296 249.825 354.234 249.825 356.75C249.825 359.266 247.836 361.204 245.439 361.204C243.926 361.204 242.719 360.473 242.005 359.334V364.4H240.883V352.5H242.005V354.166C242.719 353.027 243.926 352.296 245.439 352.296ZM245.354 360.116C247.241 360.116 248.703 358.637 248.703 356.75C248.703 354.863 247.241 353.384 245.354 353.384C243.467 353.384 242.005 354.863 242.005 356.75C242.005 358.637 243.467 360.116 245.354 360.116ZM258.8 352.5H259.922V361H258.8V359.334C258.086 360.473 256.879 361.204 255.366 361.204C252.969 361.204 250.98 359.266 250.98 356.75C250.98 354.234 252.969 352.296 255.366 352.296C256.879 352.296 258.086 353.027 258.8 354.166V352.5ZM255.451 360.116C257.338 360.116 258.8 358.637 258.8 356.75C258.8 354.863 257.338 353.384 255.451 353.384C253.564 353.384 252.102 354.863 252.102 356.75C252.102 358.637 253.564 360.116 255.451 360.116ZM269.408 352.5H270.53V360.66C270.53 363.244 268.456 364.604 266.263 364.604C264.308 364.604 262.897 363.856 262.234 362.53L263.22 361.969C263.645 362.836 264.427 363.516 266.263 363.516C268.235 363.516 269.408 362.394 269.408 360.66V359.334C268.694 360.473 267.487 361.204 265.974 361.204C263.577 361.204 261.588 359.266 261.588 356.75C261.588 354.234 263.577 352.296 265.974 352.296C267.487 352.296 268.694 353.027 269.408 354.166V352.5ZM266.059 360.116C267.946 360.116 269.408 358.637 269.408 356.75C269.408 354.863 267.946 353.384 266.059 353.384C264.172 353.384 262.71 354.863 262.71 356.75C262.71 358.637 264.172 360.116 266.059 360.116ZM276.633 352.296C279.234 352.296 280.849 354.455 280.849 356.784C280.849 356.954 280.832 357.141 280.815 357.311H273.352C273.59 359.045 274.933 360.116 276.735 360.116C278.078 360.116 279.013 359.487 279.472 358.671L280.458 359.249C279.744 360.405 278.435 361.204 276.718 361.204C274.032 361.204 272.196 359.317 272.196 356.75C272.196 354.251 273.998 352.296 276.633 352.296ZM276.633 353.384C274.848 353.384 273.573 354.557 273.352 356.223H279.693C279.455 354.353 278.095 353.384 276.633 353.384ZM282.518 361.17C281.991 361.17 281.583 360.762 281.583 360.235C281.583 359.708 281.991 359.3 282.518 359.3C283.045 359.3 283.453 359.708 283.453 360.235C283.453 360.762 283.045 361.17 282.518 361.17Z" fill="white"/>
<rect x="117.28" y="65.2974" width="89.1187" height="64.5148" rx="4.89" fill="#263238"/>
<rect x="160.545" y="62.3757" width="2.59275" height="127.374" rx="1.17" fill="#263238"/>
<path d="M159.062 187.171H164.611C165.812 187.171 166.784 188.139 166.784 189.332V189.597C166.784 189.637 166.768 189.676 166.739 189.705C166.711 189.734 166.671 189.75 166.631 189.75H157.043C156.958 189.75 156.889 189.681 156.889 189.597V189.332C156.889 188.139 157.862 187.171 159.062 187.171V187.171Z" fill="#263238"/>
<rect x="186.552" y="63.6743" width="7.46114" height="0.463768" fill="#FF7171"/>
<rect x="179.818" y="63.6743" width="2.28031" height="0.463768" fill="#FF7171"/>
<rect x="117.611" y="65.2974" width="89.1187" height="64.5148" rx="4.89" fill="#FF7171"/>
<path opacity="0.7" d="M200.178 67.6162C202.509 67.6162 204.398 69.5056 204.398 71.8362V123.273C204.398 125.604 202.509 127.493 200.178 127.493H124.162C121.832 127.493 119.942 125.604 119.942 123.273V71.8362C119.942 69.5056 121.832 67.6162 124.162 67.6162H200.178Z" fill="white"/>
<path opacity="0.2" d="M144.513 96.7827C139.075 96.2765 133.615 96.0474 128.154 96.0964C128.206 88.7225 128.868 80.7503 129.451 72.908L145.483 73.9329C144.863 83.083 144.247 92.261 144.513 96.7827Z" fill="black"/>
<path d="M144.821 96.4535C139.383 95.9449 133.923 95.7158 128.462 95.7671C128.513 88.3885 128.854 80.7549 129.437 72.908L145.795 73.5943C145.184 82.7445 144.569 91.9271 144.821 96.4535Z" fill="white"/>
<path opacity="0.2" d="M166.29 112.49L149.936 113.2L149.255 90.007L165.292 89.6313L166.29 112.49Z" fill="black"/>
<path d="M149.252 90.0146L165.609 89.3072L166.608 112.163L150.251 112.871L149.252 90.0146Z" fill="white"/>
<path opacity="0.2" d="M202.752 111.939L186.519 109.81L189.905 86.8535L205.76 89.2558L202.752 111.939Z" fill="black"/>
<path d="M189.898 86.8586L206.129 88.9896L203.119 111.671L186.887 109.54L189.898 86.8586Z" fill="white"/>
<path opacity="0.2" d="M146.947 128.709C143.981 129.636 136.343 129.78 130.626 129.497C129.81 122.355 129.894 114.36 130.099 106.309L146.136 106.044C145.781 111.572 146.056 121.409 146.947 128.709Z" fill="black"/>
<path d="M147.274 128.375C144.303 129.302 136.665 129.441 130.952 129.158C130.142 121.565 129.859 113.926 130.104 106.295L146.462 105.692C146.103 111.238 146.378 121.075 147.274 128.375Z" fill="white"/>
<path opacity="0.2" d="M187.167 94.4639L170.799 94.821C170.249 87.2059 170.408 79.243 170.618 71.6326H186.664C186.482 79.7253 186.603 87.4471 187.167 94.4639Z" fill="black"/>
<path d="M187.489 94.1206L171.121 94.4777C170.574 86.8626 170.409 79.2383 170.627 71.6047L186.995 71.2476C186.818 79.3913 186.948 87.1084 187.489 94.1206Z" fill="white"/>
<path d="M193.117 184.576L189.486 183.61L190.779 175.021L194.41 175.987L193.117 184.576Z" fill="#FF8B7B"/>
<path d="M226.702 187.84H222.94L220.012 179.209H223.774L226.702 187.84Z" fill="#FF8B7B"/>
<path d="M222.439 187.408H227.025C227.178 187.409 227.311 187.515 227.343 187.664L228.088 190.979C228.123 191.142 228.08 191.312 227.972 191.44C227.865 191.569 227.704 191.641 227.535 191.638C226.06 191.615 224.987 191.526 223.127 191.526C221.984 191.526 218.536 191.647 216.962 191.647C215.388 191.647 215.177 190.101 215.824 189.957C218.719 189.33 220.902 188.467 221.83 187.636C221.999 187.49 222.215 187.409 222.439 187.408V187.408Z" fill="#263238"/>
<path d="M189.627 183.202L193.59 184.256C193.739 184.296 193.839 184.433 193.834 184.585L193.684 187.975C193.679 188.141 193.597 188.295 193.461 188.394C193.326 188.492 193.152 188.522 192.991 188.476C191.585 188.072 189.519 187.436 187.72 186.958C185.617 186.401 183.771 186.029 181.307 185.375C179.817 184.98 179.808 183.374 180.468 183.406C183.476 183.545 185.814 184.098 188.676 183.248C188.982 183.145 189.312 183.129 189.627 183.202Z" fill="#263238"/>
<path d="M209.068 76.7132C207.827 78.2593 206.539 79.9214 205.321 81.5511C204.103 83.1807 202.932 84.8661 201.854 86.5561C201.315 87.3964 200.823 88.2507 200.35 89.1004L199.057 91.6214L198.95 91.8489C198.95 91.8722 198.921 91.8907 198.917 91.8861C198.91 91.8305 198.91 91.7745 198.917 91.7189C198.916 91.5753 198.901 91.4322 198.87 91.2918C198.853 91.2145 198.832 91.1385 198.804 91.0643C198.804 91.0179 198.772 90.9714 198.753 90.925C198.73 90.8596 198.701 90.7959 198.668 90.7347C198.585 90.5788 198.484 90.4325 198.369 90.2982C198.206 90.1149 198.014 89.9582 197.802 89.8339C197.586 89.7105 197.352 89.6226 197.108 89.5739C196.926 89.5405 196.741 89.5281 196.556 89.5368C196.345 89.5466 196.138 89.5905 195.942 89.6668C195.805 89.7138 195.675 89.7811 195.558 89.8664C195.441 89.9547 195.445 89.9686 195.441 89.9779C195.436 89.9872 195.469 89.9779 195.497 89.9779C195.663 89.8656 195.82 89.7398 195.965 89.6018C196.143 89.4486 196.321 89.2814 196.499 89.105C197.226 88.4132 197.975 87.6518 198.757 86.9414L201.123 88.4643C200.744 89.5087 200.287 90.5236 199.755 91.5007C199.466 92.0577 199.124 92.5863 198.734 93.0793C198.662 93.1682 198.585 93.2534 198.505 93.3347C198.375 93.4692 198.232 93.5905 198.078 93.6968C197.904 93.8169 197.715 93.9151 197.516 93.9893C197.287 94.0735 197.047 94.1235 196.804 94.1379C196.603 94.1473 196.402 94.1333 196.204 94.0961C195.943 94.0455 195.693 93.9513 195.464 93.8175C195.238 93.6864 195.034 93.5203 194.86 93.3254C194.734 93.1827 194.624 93.027 194.532 92.8611C194.499 92.7914 194.462 92.7172 194.434 92.6475L194.373 92.485C194.335 92.3643 194.316 92.29 194.298 92.2064C194.255 92.0018 194.237 91.7931 194.241 91.5843C194.244 91.3977 194.26 91.2116 194.288 91.0272C194.288 90.8925 194.326 90.7857 194.345 90.6836C194.387 90.4793 194.424 90.3122 194.462 90.1497C194.616 89.5136 194.78 88.9797 194.968 88.4411C195.155 87.9025 195.399 87.3639 195.637 86.8486C196.106 85.8086 196.621 84.8057 197.165 83.84C198.243 81.923 199.422 80.0633 200.697 78.2686C201.325 77.3818 201.971 76.5043 202.636 75.6454C203.302 74.7864 203.976 73.9554 204.721 73.0918L209.068 76.7132Z" fill="#FF8B7B"/>
<path d="M211.111 73.9785C211.917 77.4467 204.229 86.3285 204.229 86.3285L197.333 81.3235C198.864 78.4459 200.702 75.7392 202.814 73.2496C205.972 69.7117 210.226 70.1667 211.111 73.9785Z" fill="#FF7171"/>
<path opacity="0.2" d="M211.111 73.9785C211.917 77.4467 204.229 86.3285 204.229 86.3285L197.333 81.3235C198.864 78.4459 200.702 75.7392 202.814 73.2496C205.972 69.7117 210.226 70.1667 211.111 73.9785Z" fill="black"/>
<path opacity="0.2" d="M190.779 175.021L190.11 179.45L193.745 180.416L194.41 175.987L190.779 175.021Z" fill="black"/>
<path opacity="0.2" d="M223.774 179.214H220.012L221.525 183.661H225.287L223.774 179.214Z" fill="black"/>
<path d="M227.934 73.4586C223.038 87.35 222.949 102.393 222.401 105.411C219.478 105.025 208.469 103.554 202.468 102.75C201.119 81.4211 207.031 70.8539 207.031 70.8539C207.031 70.8539 208.333 70.6821 210.094 70.6079C210.647 70.6079 211.242 70.5707 211.861 70.5754C212.203 70.5754 212.549 70.5754 212.901 70.5986C215.745 70.8213 218.575 71.2057 221.375 71.75C221.905 71.8475 222.443 71.9589 222.963 72.075C223.483 72.1911 223.9 72.3025 224.369 72.4186C226.378 72.9246 227.934 73.4586 227.934 73.4586Z" fill="#FF7171"/>
<path opacity="0.2" d="M227.934 73.4586C223.038 87.35 222.949 102.393 222.401 105.411C219.478 105.025 208.469 103.554 202.468 102.75C201.119 81.4211 207.031 70.8539 207.031 70.8539C207.031 70.8539 208.333 70.6821 210.094 70.6079C210.647 70.6079 211.242 70.5707 211.861 70.5754C212.203 70.5754 212.549 70.5754 212.901 70.5986C215.745 70.8213 218.575 71.2057 221.375 71.75C221.905 71.8475 222.443 71.9589 222.963 72.075C223.483 72.1911 223.9 72.3025 224.369 72.4186C226.378 72.9246 227.934 73.4586 227.934 73.4586Z" fill="black"/>
<path opacity="0.2" d="M223.352 79.8564C222.56 81.9504 223.179 87.7493 224.045 89.7272C224.355 87.6564 224.734 85.4836 225.212 83.255L223.352 79.8564Z" fill="black"/>
<path d="M198.795 86.6722L201.774 83.8865L203.714 88.2415C202.612 89.3599 200.906 89.6417 199.498 88.9379L198.795 86.6722Z" fill="#FF8B7B"/>
<path d="M203.962 82.4377L205.452 86.2913L203.714 88.2181L201.774 83.8631L203.962 82.4377Z" fill="#FF8B7B"/>
<path d="M221.82 62.1624C220.916 64.7949 219.712 69.6745 221.375 71.7313C219.693 72.9941 217.524 74.4195 214.273 74.0991C211.022 73.7788 211.889 71.6477 212.901 70.5984C216.039 70.2874 216.264 68.0402 216.021 65.8674L221.82 62.1624Z" fill="#FF8B7B"/>
<path d="M212.324 69.8928C212.324 69.1592 215.369 68.5417 215.486 69.2382C215.604 69.9346 214.55 70.1667 214.882 71.0953C215.215 72.0239 218.283 72.1167 219.511 70.8028C220.326 69.9253 220.583 69.0432 221.619 69.6235C222.654 70.2039 223.9 71.0164 223.216 72.2932C222.532 73.5699 218.672 76.5878 215.159 75.8124C211.645 75.0371 210.666 73.166 211.35 72.3535C211.945 71.6654 212.288 70.7984 212.324 69.8928Z" fill="#FF7171"/>
<path opacity="0.2" d="M219.454 63.676L216.021 65.8675C216.087 66.3722 216.107 66.8819 216.081 67.3903C217.478 67.3332 218.753 66.5873 219.478 65.4032C219.871 64.6557 219.74 63.806 219.454 63.676Z" fill="black"/>
<path d="M222.387 57.5196C222.054 61.2061 222.045 63.3789 220.11 65.2221C217.201 68.0078 212.652 66.1507 211.87 62.4643C211.167 59.1261 211.832 53.6428 215.515 52.2964C217.164 51.6737 219.021 51.9427 220.422 53.0072C221.822 54.0716 222.566 55.7794 222.387 57.5196Z" fill="#FF8B7B"/>
<path d="M222.673 54.5714C219.937 54.3671 219.707 59.075 221.97 61.0992C224.706 60.036 228.529 54.9846 222.673 54.5714Z" fill="#263238"/>
<path d="M219.965 55.305C218.363 52.7978 215.28 56.7721 213.758 54.0328C212.844 52.3846 211.284 54.1721 210.333 53.1832C209.382 52.1943 210.853 49.5385 211.846 49.3018C211.289 49.9007 211.181 52.041 212.854 50.9825C214.526 49.9239 215.725 48.8282 217.773 50.6064C219.82 52.3846 221.961 48.8096 223.839 51.535C225.488 53.9028 221.862 58.2857 219.965 55.305Z" fill="#263238"/>
<path d="M223.062 54.9149C222.622 54.9133 222.186 54.8428 221.769 54.706C221.677 54.6778 221.625 54.5811 221.654 54.4901C221.682 54.399 221.78 54.3481 221.872 54.3763C223.071 54.7524 224.237 54.5527 224.772 53.8842C225.188 53.3642 225.156 52.6492 224.692 51.8738C224.643 51.7918 224.67 51.6858 224.753 51.637C224.836 51.5883 224.943 51.6153 224.992 51.6974C225.53 52.5888 225.549 53.4663 225.048 54.0977C224.547 54.6566 223.815 54.9576 223.062 54.9149Z" fill="#263238"/>
<path d="M223.952 61.6377C223.428 62.409 222.618 62.9445 221.698 63.1281C220.476 63.3556 219.97 62.2506 220.396 61.1595C220.78 60.1799 221.881 58.8799 223.066 59.1399C224.252 59.3999 224.584 60.6813 223.952 61.6377Z" fill="#FF8B7B"/>
<path d="M188.77 178.127L194.916 179.761C194.916 179.761 200.767 158.283 202.618 146.797C203.18 143.31 204.435 138.482 205.953 133.333C207.864 126.833 210.193 119.831 212.081 114.348C214.076 108.572 215.571 104.491 215.571 104.491L202.454 102.741C202.454 102.741 192.471 133.073 191.346 144.392C190.189 156.171 188.77 178.127 188.77 178.127Z" fill="#263238"/>
<path opacity="0.2" d="M205.953 133.342C207.864 126.842 210.193 119.841 212.081 114.357L210.919 111.354C207.391 114.994 205.738 126.837 205.953 133.342Z" fill="black"/>
<path d="M209.537 103.698C209.537 103.698 208.89 135.626 209.771 146.509C210.741 158.432 219.754 182.798 219.754 182.798H226.641C226.641 182.798 222.045 160.512 220.64 148.905C219.033 135.719 222.401 105.401 222.401 105.401L209.537 103.698Z" fill="#263238"/>
<path d="M218.93 182.946H227.039V180.546L217.974 180.388L218.93 182.946Z" fill="#FF7171"/>
<path d="M187.959 178.062L195.286 180.012L195.923 177.667L188.175 175.481L187.959 178.062Z" fill="#FF7171"/>
<path d="M216.709 58.3971C216.709 58.6942 216.536 58.9356 216.334 58.931C216.133 58.9263 215.983 58.6756 215.992 58.3738C216.002 58.0721 216.17 57.8353 216.367 57.8399C216.564 57.8446 216.719 58.0953 216.709 58.3971Z" fill="#263238"/>
<path d="M213.285 58.2857C213.285 58.5875 213.107 58.8242 212.91 58.8196C212.713 58.815 212.559 58.5642 212.563 58.2671C212.568 57.97 212.741 57.7239 212.938 57.7332C213.135 57.7425 213.289 57.9978 213.285 58.2857Z" fill="#263238"/>
<path d="M214.367 58.4807C213.981 59.3888 213.468 60.239 212.844 61.0064C213.255 61.3175 213.784 61.4315 214.287 61.3175L214.367 58.4807Z" fill="#FF5652"/>
<path d="M215.543 62.1577C216.227 62.1002 216.856 61.7639 217.281 61.2292C217.313 61.1952 217.313 61.1424 217.281 61.1084C217.261 61.0944 217.236 61.0889 217.212 61.0933C217.189 61.0977 217.168 61.1115 217.154 61.1317C216.663 61.7281 215.91 62.0516 215.135 61.9999C215.111 61.9986 215.087 62.0073 215.069 62.024C215.051 62.0407 215.041 62.0639 215.041 62.0881C215.041 62.1351 215.078 62.1738 215.126 62.1763C215.265 62.1806 215.404 62.1744 215.543 62.1577Z" fill="#263238"/>
<path d="M217.796 57.3293C217.827 57.3263 217.856 57.3151 217.88 57.2968C217.919 57.2697 217.945 57.2286 217.953 57.1824C217.961 57.1363 217.95 57.0889 217.923 57.0507C217.6 56.58 217.068 56.2929 216.494 56.28C216.446 56.2824 216.402 56.3034 216.37 56.3382C216.339 56.373 216.323 56.4189 216.325 56.4657C216.326 56.5121 216.346 56.5561 216.381 56.5876C216.415 56.6191 216.461 56.6354 216.508 56.6329C216.962 56.6479 217.381 56.8797 217.632 57.255C217.67 57.3067 217.732 57.3349 217.796 57.3293Z" fill="#263238"/>
<path d="M211.856 57.0878C211.914 57.0824 211.966 57.0472 211.992 56.9949C212.189 56.5876 212.573 56.3002 213.022 56.2242C213.11 56.2039 213.168 56.1222 213.159 56.0337C213.149 55.9451 213.075 55.8775 212.985 55.876C212.417 55.9632 211.929 56.3206 211.678 56.8324C211.655 56.8735 211.65 56.922 211.664 56.9667C211.678 57.0114 211.71 57.0484 211.753 57.0692C211.784 57.0867 211.82 57.0933 211.856 57.0878Z" fill="#263238"/>
<path fill-rule="evenodd" clip-rule="evenodd" d="M222.181 187.971C221.859 188.056 221.529 188.103 221.197 188.113C220.94 188.13 220.685 188.058 220.471 187.908C220.338 187.785 220.27 187.603 220.288 187.419C220.29 187.308 220.349 187.207 220.443 187.155C220.843 186.941 222 187.669 222.194 187.791C222.2 187.795 222.205 187.798 222.209 187.8C222.237 187.822 222.251 187.857 222.246 187.893C222.242 187.931 222.216 187.962 222.181 187.971ZM221.9 187.844C221.908 187.843 221.916 187.841 221.923 187.839V187.859C221.916 187.854 221.908 187.849 221.9 187.844ZM220.588 187.766C220.792 187.945 221.27 187.971 221.9 187.844C221.41 187.531 220.753 187.206 220.523 187.321C220.485 187.345 220.463 187.388 220.466 187.434C220.448 187.559 220.494 187.685 220.588 187.766Z" fill="#FF7171"/>
<path fill-rule="evenodd" clip-rule="evenodd" d="M222.214 187.928C222.197 187.933 222.179 187.933 222.162 187.928L222.12 187.933C221.731 187.724 220.982 186.907 221.061 186.489C221.088 186.356 221.206 186.261 221.342 186.261C221.479 186.241 221.618 186.282 221.722 186.373C222.157 186.726 222.251 187.803 222.251 187.849C222.256 187.881 222.241 187.912 222.214 187.928ZM221.605 186.508C221.549 186.456 221.475 186.428 221.399 186.429H221.361C221.23 186.443 221.23 186.498 221.23 186.521C221.183 186.744 221.661 187.38 222.05 187.673C222.025 187.249 221.869 186.842 221.605 186.508Z" fill="#FF7171"/>
<path fill-rule="evenodd" clip-rule="evenodd" d="M189.21 183.55C189.197 183.58 189.168 183.602 189.135 183.606L189.121 183.61C188.503 183.568 187.425 183.443 187.121 182.979C187.029 182.841 187.011 182.668 187.074 182.515C187.103 182.421 187.179 182.349 187.275 182.324C187.781 182.199 189.046 183.322 189.187 183.452C189.214 183.477 189.223 183.516 189.21 183.55ZM188.868 183.42C188.362 182.979 187.655 182.491 187.355 182.491L187.317 182.51C187.279 182.52 187.25 182.55 187.243 182.589C187.199 182.688 187.21 182.801 187.271 182.891C187.439 183.146 188.03 183.336 188.868 183.42Z" fill="#FF7171"/>
<path fill-rule="evenodd" clip-rule="evenodd" d="M189.159 183.606H189.135C189.112 183.608 189.089 183.603 189.07 183.592C188.671 183.276 188.025 182.273 188.203 181.883C188.245 181.79 188.343 181.693 188.587 181.73C188.766 181.757 188.925 181.856 189.027 182.004C189.352 182.451 189.244 183.304 189.219 183.501C189.217 183.523 189.215 183.537 189.215 183.541C189.209 183.571 189.187 183.595 189.159 183.606ZM188.559 181.888H188.465C188.399 181.892 188.377 181.922 188.369 181.932C188.368 181.933 188.367 181.934 188.367 181.934C188.259 182.176 188.685 182.942 189.06 183.327C189.128 182.907 189.066 182.477 188.882 182.092C188.809 181.981 188.691 181.907 188.559 181.888Z" fill="#FF7171"/>
<path d="M228.913 76.3372C229.456 78.7561 229.915 81.1611 230.318 83.5939C230.721 86.0268 231.082 88.4643 231.363 90.9343L231.461 91.8629L231.517 92.4386C231.56 92.8895 231.519 93.3443 231.396 93.7804C231.229 94.3865 230.893 94.9337 230.426 95.3589C230.036 95.7064 229.571 95.9619 229.067 96.1064C228.481 96.2701 227.869 96.319 227.264 96.2504C226.478 96.1647 225.705 95.9903 224.959 95.7304C224.289 95.5029 223.671 95.2661 223.085 94.9829C221.909 94.4507 220.763 93.8572 219.651 93.2047C218.55 92.5593 217.496 91.8954 216.447 91.1386L217.782 88.6732C220.054 89.4532 222.368 90.2889 224.589 90.8925C225.142 91.0457 225.69 91.1757 226.21 91.2686C226.645 91.367 227.09 91.4137 227.535 91.4079C227.671 91.4079 227.779 91.3475 227.564 91.3847C227.354 91.4383 227.161 91.5456 227.006 91.6957C226.763 91.9094 226.585 92.1859 226.491 92.4943C226.451 92.6352 226.428 92.78 226.421 92.9261C226.421 93.005 226.421 92.8797 226.397 92.8147L226.355 92.5918L226.186 91.7097C225.727 89.3511 225.259 86.9848 224.781 84.6107C224.312 82.2382 223.816 79.8518 223.375 77.4886L228.913 76.3372Z" fill="#FF8B7B"/>
<path d="M229.189 74.3733C231.644 76.9779 231.864 84.9776 231.864 84.9776L224.757 88.2972C224.757 88.2972 222.453 83.2133 222.378 78.6122C222.303 73.3936 226.73 71.7501 229.189 74.3733Z" fill="#FF7171"/>
<path opacity="0.2" d="M229.189 74.3733C231.644 76.9779 231.864 84.9776 231.864 84.9776L224.757 88.2972C224.757 88.2972 222.453 83.2133 222.378 78.6122C222.303 73.3936 226.73 71.7501 229.189 74.3733Z" fill="black"/>
<path d="M203.714 84.0954C203.673 84.095 203.633 84.0855 203.597 84.0675C203.485 84.0012 203.448 83.8589 203.512 83.7472L207.26 77.3354C207.331 77.2391 207.463 77.2114 207.567 77.2712C207.671 77.3311 207.713 77.459 207.663 77.5675L203.939 83.9793C203.892 84.0575 203.805 84.1025 203.714 84.0954Z" fill="#263238"/>
<path d="M215.341 101.929L201.179 99.8857C200.582 99.7956 200.121 99.3163 200.06 98.7203L199.123 79.3457C199.109 79.0838 199.22 78.8305 199.422 78.6617C199.625 78.4929 199.896 78.4281 200.154 78.4868L214.315 80.525C214.913 80.6196 215.373 81.0986 215.44 81.695L216.353 101.07C216.366 101.328 216.257 101.577 216.059 101.745C215.862 101.913 215.596 101.98 215.341 101.929Z" fill="white"/>
<path d="M215.023 102.124L200.861 100.071C200.262 99.9818 199.8 99.5028 199.737 98.9061L198.823 79.5314C198.807 79.2699 198.917 79.0164 199.119 78.8473C199.321 78.6783 199.591 78.6135 199.849 78.6725L214.011 80.7107C214.611 80.8008 215.074 81.2822 215.135 81.8807L216.072 101.251C216.095 101.52 215.984 101.783 215.776 101.957C215.567 102.13 215.286 102.192 215.023 102.124Z" fill="#263238"/>
<path d="M218.054 88.7429L214.723 86.8857L214.334 91.6307C214.334 91.6307 217.52 92.5872 218.218 90.9668L218.054 88.7429Z" fill="#FF8B7B"/>
<path d="M211.013 87.7354L211.481 91.2825L214.334 91.6354L214.723 86.8904L211.013 87.7354Z" fill="#FF8B7B"/>
</g>
<defs>
<clipPath id="clip0_1_473">
<rect width="350" height="483" fill="white"/>
</clipPath>
<clipPath id="clip1_1_473">
<rect width="123" height="32" fill="white" transform="translate(113 413)"/>
</clipPath>
</defs>
</svg>
